<svg xmlns="http://www.w3.org/2000/svg" width="24" height="24" fill="none"><path stroke="#94A3B8" stroke-linecap="round" stroke-linejoin="round" stroke-width="1.5" d="M14.25 12a2.25 2.25 0 1 1-4.5 0 2.25 2.25 0 0 1 4.5 0Z"/><path fill="#94A3B8" d="m4.75 7.778.342-.668A.75.75 0 0 0 4 7.778h.75Zm14.5 0H20a.75.75 0 0 0-.337-.626l-.413.626ZM4.75 16.25H4a.75.75 0 0 0 .373.648l.377-.648Zm14.5 0-.261.703A.75.75 0 0 0 20 16.25h-.75ZM4.75 7.778a72.5 72.5 0 0 0-.34.668.126.126 0 0 0 .005.003 2.535 2.535 0 0 0 .184.085c.113.049.274.114.477.184.406.14.985.301 1.698.398 1.428.195 3.393.127 5.549-.9l-.646-1.354c-1.844.879-3.504.93-4.7.768a7.447 7.447 0 0 1-1.412-.33 5.202 5.202 0 0 1-.474-.19l-.001-.001h.001v.001l-.341.668Zm7.573.438c1.817-.865 3.451-.81 4.636-.54a7.026 7.026 0 0 1 1.404.476 5.249 5.249 0 0 1 .476.253h-.001c0-.001-.001-.001.412-.627s.413-.627.412-.627l-.002-.001a.91.91 0 0 0-.055-.035 6.717 6.717 0 0 0-.609-.322 8.528 8.528 0 0 0-1.705-.58c-1.44-.327-3.43-.39-5.614.65l.646 1.353ZM4.75 16.25c-.377.648-.377.648-.376.649l.002.001.004.002.012.007a3.928 3.928 0 0 0 .168.09c.112.055.27.13.472.214.402.168.978.371 1.687.522a9.686 9.686 0 0 0 5.552-.444l-.542-1.399a8.186 8.186 0 0 1-4.698.376 8.112 8.112 0 0 1-1.422-.44 5.844 5.844 0 0 1-.482-.226l-.002-.002.001.001-.376.649Zm7.52 1.04a10.807 10.807 0 0 1 4.793-.703 9.47 9.47 0 0 1 1.44.227 6.299 6.299 0 0 1 .488.14h-.001l.26-.704.26-.703-.002-.001a12.305 12.305 0 0 0-7.779.346l.542 1.399ZM5.5 16.25V7.778H4v8.472h1.5Zm13-8.472v8.472H20V7.778h-1.5Z"/></svg>