<svg width="155" height="163" viewBox="0 0 155 163" fill="none" xmlns="http://www.w3.org/2000/svg">
<path fill-rule="evenodd" clip-rule="evenodd" d="M55.9343 141.928C55.7467 140.993 56.448 140.428 56.9959 139.879C58.1665 138.71 59.4952 137.711 60.7473 136.627C61.6114 135.894 62.6222 135.326 63.3895 134.506C63.9679 133.897 64.4333 133.791 65.0925 134.147C65.175 134.19 65.2086 134.473 65.145 134.554C63.3913 136.681 61.5277 138.406 59.6999 140.488C59.3339 140.901 59.0112 141.354 58.6688 141.79C57.9742 142.67 56.613 142.887 55.9343 141.928Z" fill="#DC2626"/>
<path fill-rule="evenodd" clip-rule="evenodd" d="M89.4284 102.82C88.6557 104.818 88.0693 106.555 87.2149 108.199C86.4721 109.759 85.5179 111.246 84.489 112.655C84.287 112.941 83.1771 112.927 82.8311 112.647C82.4726 112.359 82.2086 111.396 82.4212 111.07C84.1095 108.625 85.9051 106.226 87.4319 103.68C87.7038 103.24 87.9031 102.739 88.2577 102.373C88.4039 102.209 88.9175 102.214 89.1605 102.326C89.3651 102.422 89.415 102.79 89.4284 102.82Z" fill="#DC2626"/>
<path fill-rule="evenodd" clip-rule="evenodd" d="M92.1478 96.0867C91.3072 95.5084 91.6407 94.7099 91.8295 94.0049C92.0371 93.2544 92.2024 92.5017 92.4595 91.7536C92.7075 91.0057 92.9878 90.2554 93.1571 89.5021C93.3986 88.4758 94.0331 87.4225 93.9949 86.4035C94.0017 85.6433 94.3654 85.2411 95.2893 84.9181C95.4049 84.8776 95.6728 85.0045 95.6777 85.0996C95.7199 85.7379 95.7318 86.3722 95.7286 87.0056C95.7123 87.6398 95.6072 88.268 95.5405 88.8989C95.4636 89.5313 95.3888 90.1655 95.3108 90.8052C95.1965 91.4417 95.0942 92.0868 95.0149 92.7522C94.9445 93.2807 94.9779 93.8183 94.9205 94.3502C94.7955 95.4255 93.5115 96.4141 92.1478 96.0867Z" fill="#DC2626"/>
<path fill-rule="evenodd" clip-rule="evenodd" d="M77.7479 121.244C76.8621 122.551 75.1936 124.589 74.5528 125.513C73.936 126.418 73.3515 127.365 72.5892 128.132C72.213 128.512 71.4979 128.632 70.9608 128.678C70.7963 128.692 70.697 128.083 70.5732 127.757C70.0459 126.383 71.2938 125.759 72.0762 124.916C72.8727 124.002 75.3519 121.868 76.1195 120.918C77.0025 119.804 77.3127 119.83 77.8186 120.94C77.8894 121.096 77.6972 121.418 77.7479 121.244Z" fill="#DC2626"/>
<path fill-rule="evenodd" clip-rule="evenodd" d="M76.6879 57.5634C78.7323 57.8416 80.4578 58.1645 82.1131 58.7096C82.8649 58.9988 83.6241 59.3008 84.3501 59.6634C85.0533 60.0623 85.7576 60.4663 86.3946 60.9572C86.6485 61.1645 86.4121 62.3663 86.0358 62.7824C85.6491 63.2081 84.5829 63.6424 84.3103 63.4394C82.149 61.9654 79.8655 60.5964 77.3954 59.5144C76.97 59.3146 76.4659 59.2293 76.11 58.9592C75.9539 58.8361 76.0088 58.2702 76.1484 57.9755C76.2674 57.7273 76.6536 57.5854 76.6879 57.5634Z" fill="#DC2626"/>
<path fill-rule="evenodd" clip-rule="evenodd" d="M69.9126 56.9523C69.3073 57.9209 68.513 57.7189 67.8012 57.6868C66.3034 57.5813 64.7877 57.2539 63.3191 57.0388C62.3203 56.9029 61.3172 56.5532 60.338 56.7476C59.6206 56.9045 59.2473 56.6458 58.8491 55.8078C58.7981 55.7022 58.9044 55.382 59.0014 55.3464C61.6256 54.3896 64.1201 54.7141 66.7032 54.5834L68.2819 54.4231C69.3568 54.307 70.2866 55.4706 69.9126 56.9523Z" fill="#DC2626"/>
<path fill-rule="evenodd" clip-rule="evenodd" d="M91.7346 67.4819C92.7999 68.5155 94.0499 70.6844 94.5622 71.6175L95.4253 72.9417C95.6609 73.4084 95.8587 73.9009 95.9908 74.415C96.1197 74.9243 95.7706 75.652 95.4598 76.1586C95.3635 76.3122 94.7023 76.1631 94.3017 76.1584C92.5974 76.143 92.8965 74.8229 92.5189 73.8618C92.3006 73.3736 92.0303 72.4134 91.7505 71.4388C91.4145 70.4982 91.0015 69.5772 90.6983 69.1323C89.9146 68.1515 90.0879 67.7987 91.4478 67.3736C91.6408 67.3155 91.8959 67.5549 91.7346 67.4819Z" fill="#DC2626"/>
<path fill-rule="evenodd" clip-rule="evenodd" d="M63.0427 86.6169C61.2273 85.966 59.7657 85.1987 58.4954 84.103C57.3213 83.0777 56.2263 81.8412 55.432 80.3791C55.2598 80.0858 55.793 78.8753 56.2421 78.5393C56.6913 78.2013 57.7292 78.0039 57.8964 78.2783C59.201 80.4028 60.6297 82.5722 62.6007 84.2361C62.9278 84.5455 63.3677 84.6901 63.6535 85.0588C63.779 85.2236 63.6846 85.8996 63.5393 86.2374C63.4117 86.5346 63.0768 86.5866 63.0427 86.6169Z" fill="#DC2626"/>
<path fill-rule="evenodd" clip-rule="evenodd" d="M70.6556 86.5468C71.1501 85.2792 71.8849 85.0967 72.5262 84.7317L72.7963 84.5844C74.0531 83.887 75.2673 83.2288 76.452 82.423C77.3064 81.8328 78.2529 81.458 79.0327 80.6252C79.6095 80.0116 80.0171 80.0155 80.539 80.5696C80.6044 80.6379 80.5826 80.9787 80.5096 81.0634C79.5466 82.2116 78.5333 83.2304 77.4564 84.1589C76.388 85.1013 75.277 85.9934 74.0556 86.9009C73.5989 87.2414 73.1388 87.615 72.6638 87.9542L72.572 88.0181C71.5327 88.7028 70.4172 88.215 70.6556 86.5468Z" fill="#DC2626"/>
<path fill-rule="evenodd" clip-rule="evenodd" d="M53.1499 70.4902C52.4259 69.2517 51.6984 66.9055 51.4631 65.8467C51.1847 64.845 50.8926 63.7438 51.0788 62.5998C51.1449 62.0316 51.8161 61.4907 52.2983 61.2153C52.4509 61.1328 52.8839 61.6119 53.2055 61.8042C54.5017 62.5954 53.871 63.4234 53.9133 64.4071C53.9189 64.8939 53.9129 65.8255 53.9878 66.7866C54.0812 67.7412 54.2559 68.7103 54.4627 69.1993C54.9364 70.3352 54.7223 70.6148 53.388 70.6641C53.1991 70.6707 53.0196 70.3809 53.1499 70.4902Z" fill="#DC2626"/>
<path fill-rule="evenodd" clip-rule="evenodd" d="M105.972 50.2739C105.187 52.2994 104.441 53.9598 103.612 55.5963C102.808 57.104 101.991 58.6411 100.898 59.9706C100.681 60.2379 99.5128 60.1316 99.1251 59.8058C98.7298 59.4714 98.398 58.4302 98.6305 58.1153C100.344 55.6852 102.123 53.2881 103.888 50.8705C104.178 50.437 104.392 49.9257 104.764 49.5893C104.93 49.4399 105.468 49.5394 105.716 49.7052C105.925 49.8425 105.958 50.2389 105.972 50.2739Z" fill="#DC2626"/>
<path fill-rule="evenodd" clip-rule="evenodd" d="M110.243 43.0808C109.632 42.364 110.145 41.6082 110.498 40.9292C111.246 39.4769 112.261 38.121 113.179 36.7278C113.808 35.7761 114.661 34.913 115.147 33.9226C115.511 33.1809 115.987 32.9298 116.842 33.0138C116.95 33.0245 117.097 33.2579 117.06 33.3489C116.033 35.8109 114.763 37.9678 113.665 40.4173C113.451 40.9068 113.302 41.4148 113.122 41.9138C112.76 42.9228 111.393 43.6277 110.243 43.0808Z" fill="#DC2626"/>
<path fill-rule="evenodd" clip-rule="evenodd" d="M94.1576 68.4802C93.2734 69.7862 91.7381 71.9487 91.0206 72.8102C90.3686 73.6863 89.7862 74.6465 89.0212 75.421C88.6428 75.8037 87.9294 75.9235 87.3981 75.9646C87.2345 75.9778 87.1412 75.3613 87.0194 75.0327C86.5051 73.6435 87.7376 73.0296 88.5164 72.1895C88.9164 71.7379 89.7835 71.0309 90.5803 70.2518C91.367 69.4637 92.1531 68.6689 92.5202 68.1862C93.3805 67.0536 93.7115 67.0877 94.2262 68.1784C94.2991 68.3328 94.1078 68.6533 94.1576 68.4802Z" fill="#DC2626"/>
<path fill-rule="evenodd" clip-rule="evenodd" d="M124.586 17.1878C123.956 18.6764 122.72 21.0993 122.275 22.152C121.841 23.1754 121.511 24.2424 120.928 25.2062C120.641 25.6817 119.919 26.0412 119.362 26.2743C119.191 26.3467 118.907 25.8297 118.679 25.5768C117.722 24.5104 118.877 23.4833 119.464 22.4262C120.089 21.3063 122.201 18.5012 122.78 17.3653C123.459 16.0355 123.818 15.9808 124.595 16.8834C124.706 17.0111 124.572 17.3664 124.586 17.1878Z" fill="#DC2626"/>
<mask id="mask0_193_615" style="mask-type:alpha" maskUnits="userSpaceOnUse" x="37" y="135" width="21" height="24">
<path d="M37.1543 140.934L49.5287 135.532L57.3487 153.447L44.9743 158.848L37.1543 140.934Z" fill="white"/>
</mask>
<g mask="url(#mask0_193_615)">
<path fill-rule="evenodd" clip-rule="evenodd" d="M56.0198 150.653C55.8789 150.688 55.8174 150.58 55.6726 150.567C55.5527 150.554 55.3807 150.651 55.2675 150.657C55.0464 150.671 54.8233 150.77 54.6001 150.766C53.9785 150.761 53.3556 150.71 52.7378 150.631C52.5347 150.606 52.3328 150.571 52.1312 150.531L52.083 150.52L52.0682 150.519C51.7901 150.465 51.5109 150.419 51.231 150.388C51.072 150.372 50.6802 150.333 50.6508 150.306C50.5985 150.259 50.2337 150.295 50.1725 150.284C50.1279 150.285 49.6613 150.28 49.5395 150.28C49.4071 150.245 49.279 150.184 49.1547 150.118C48.9258 149.998 48.4697 149.802 48.1948 149.845L48.1963 149.839L47.8991 149.774C47.887 149.767 47.8784 149.76 47.8641 149.751C47.8041 149.716 47.7281 149.714 47.646 149.718C46.8116 149.521 45.9944 149.267 45.1461 149.097L44.93 149.06L44.8488 149.056C44.7944 149.051 44.7389 149.033 44.7108 148.992C44.6568 148.922 44.6221 148.882 44.571 148.848C44.4948 148.829 44.6006 148.723 44.6076 148.67C44.6345 148.622 44.5064 148.57 44.6587 148.498C44.6823 148.456 44.6946 148.527 44.7627 148.395C44.8225 148.296 44.8746 148.197 44.8903 148.124C44.9515 147.849 44.9392 147.698 44.9905 147.421C45.1074 146.807 45.2619 146.203 45.4175 145.598C45.4579 145.439 45.5498 145.294 45.6375 145.15C45.7834 144.914 45.9199 144.713 45.872 144.434C45.8278 144.177 45.7995 143.956 45.941 143.727C46.1682 143.356 46.2028 142.931 46.3255 142.526C46.517 141.883 46.6964 141.313 46.9954 140.705C47.0831 140.528 47.2738 140.378 47.2816 140.183C47.3058 139.695 47.6287 139.347 47.8435 138.884C47.9325 138.694 47.7164 138.109 47.3001 137.925C47.0604 137.817 46.7317 137.776 46.4829 137.671C45.9123 137.428 44.794 137.422 44.7223 137.692C44.6445 137.978 44.634 138.282 44.5638 138.569C44.4917 138.868 44.3464 139.149 44.3008 139.455C44.2655 139.699 44.4326 140.003 44.3268 140.221C44.2143 140.454 44.273 140.728 44.0812 140.955C43.8028 141.282 43.8319 141.727 43.7042 142.114C43.4222 142.966 43.1739 143.843 42.8308 144.682C42.6123 145.216 42.5883 145.814 42.4454 146.355L41.621 149.284L41.3542 150.255C41.3492 150.326 41.2742 150.433 41.3253 150.477L41.5661 150.565L42.0459 150.739C42.6895 150.973 43.3149 151.179 43.9372 151.378L45.1534 151.76C45.673 151.923 46.0918 151.934 46.5538 152.256L46.6265 152.297L46.6251 152.3L46.6386 152.304C46.8648 152.431 47.1486 152.491 47.4007 152.522L48.896 152.95C49.4663 153.133 50.0851 153.101 50.6572 153.179C51.7418 153.329 52.8292 153.459 53.921 153.527C54.5174 153.64 55.1045 154.07 55.6986 154.114C55.8578 154.124 56.0235 154.046 56.1584 153.875C56.2975 153.689 56.3376 153.741 56.3891 153.607C56.4502 153.449 56.478 153.155 56.4775 152.812C56.4751 151.878 56.2926 150.581 56.0198 150.653Z" fill="#DC2626"/>
</g>
</svg>
