<svg width="2052" height="2052" viewBox="0 0 2052 2052" fill="none" xmlns="http://www.w3.org/2000/svg">
<rect x="2" y="2" width="2048" height="2048" fill="#1E293B"/>
<g opacity="0.1">
<path d="M3.81445 2H57.6087V55.8992H3.81445V2Z" stroke="#94A3B8" stroke-width="2.48343"/>
<path d="M57.6084 2H111.403V55.8992H57.6084V2Z" stroke="#94A3B8" stroke-width="2.48343"/>
<path d="M111.402 2H165.197V55.8992H111.402V2Z" fill="#94A3B8" fill-opacity="0.3" stroke="#94A3B8" stroke-width="2.48343"/>
<path d="M165.198 2H218.992V55.8992H165.198V2Z" stroke="#94A3B8" stroke-width="2.48343"/>
<path d="M218.992 2H272.786V55.8992H218.992V2Z" stroke="#94A3B8" stroke-width="2.48343"/>
<path d="M272.786 2H326.58V55.8992H272.786V2Z" stroke="#94A3B8" stroke-width="2.48343"/>
<path d="M326.58 2H380.374V55.8992H326.58V2Z" stroke="#94A3B8" stroke-width="2.48343"/>
<path d="M380.375 2H434.169V55.8992H380.375V2Z" stroke="#94A3B8" stroke-width="2.48343"/>
<path d="M434.172 2H487.966V55.8992H434.172V2Z" fill="#94A3B8" fill-opacity="0.3" stroke="#94A3B8" stroke-width="2.48343"/>
<path d="M487.962 2H541.756V55.8992H487.962V2Z" stroke="#94A3B8" stroke-width="2.48343"/>
<path d="M541.759 2H595.553V55.8992H541.759V2Z" stroke="#94A3B8" stroke-width="2.48343"/>
<path d="M595.553 2H649.347V55.8992H595.553V2Z" stroke="#94A3B8" stroke-width="2.48343"/>
<path d="M1133.5 2H1187.29V55.8992H1133.5V2Z" stroke="#94A3B8" stroke-width="2.48343"/>
<path d="M1187.29 2H1241.08V55.8992H1187.29V2Z" stroke="#94A3B8" stroke-width="2.48343"/>
<path d="M1241.08 2H1294.88V55.8992H1241.08V2Z" stroke="#94A3B8" stroke-width="2.48343"/>
<path d="M1294.88 2H1348.67V55.8992H1294.88V2Z" stroke="#94A3B8" stroke-width="2.48343"/>
<path d="M1348.67 2H1402.47V55.8992H1348.67V2Z" fill="#94A3B8" fill-opacity="0.3" stroke="#94A3B8" stroke-width="2.48343"/>
<path d="M1402.47 2H1456.26V55.8992H1402.47V2Z" stroke="#94A3B8" stroke-width="2.48343"/>
<path d="M1456.26 2H1510.06V55.8992H1456.26V2Z" stroke="#94A3B8" stroke-width="2.48343"/>
<path d="M1510.05 2H1563.85V55.8992H1510.05V2Z" fill="#94A3B8" fill-opacity="0.3" stroke="#94A3B8" stroke-width="2.48343"/>
<path d="M1563.85 2H1617.64V55.8992H1563.85V2Z" stroke="#94A3B8" stroke-width="2.48343"/>
<path d="M1617.64 2H1671.44V55.8992H1617.64V2Z" stroke="#94A3B8" stroke-width="2.48343"/>
<path d="M1671.44 2H1725.24V55.8992H1671.44V2Z" stroke="#94A3B8" stroke-width="2.48343"/>
<path d="M1725.24 2H1779.03V55.8992H1725.24V2Z" stroke="#94A3B8" stroke-width="2.48343"/>
<path d="M1779.03 2H1832.82V55.8992H1779.03V2Z" stroke="#94A3B8" stroke-width="2.48343"/>
<path d="M1832.82 2H1886.62V55.8992H1832.82V2Z" stroke="#94A3B8" stroke-width="2.48343"/>
<path d="M1886.62 2H1940.41V55.8992H1886.62V2Z" stroke="#94A3B8" stroke-width="2.48343"/>
<path d="M1940.41 2H1994.21V55.8992H1940.41V2Z" stroke="#94A3B8" stroke-width="2.48343"/>
<path d="M1994.21 2H2048V55.8992H1994.21V2Z" fill="#94A3B8" fill-opacity="0.3" stroke="#94A3B8" stroke-width="2.48343"/>
<path d="M3.81445 55.8993H57.6087V109.798H3.81445V55.8993Z" stroke="#94A3B8" stroke-width="2.48343"/>
<path d="M57.6084 55.8993H111.403V109.798H57.6084V55.8993Z" stroke="#94A3B8" stroke-width="2.48343"/>
<path d="M111.402 55.8993H165.197V109.798H111.402V55.8993Z" stroke="#94A3B8" stroke-width="2.48343"/>
<path d="M165.198 55.8993H218.992V109.798H165.198V55.8993Z" stroke="#94A3B8" stroke-width="2.48343"/>
<path d="M218.992 55.8993H272.786V109.798H218.992V55.8993Z" stroke="#94A3B8" stroke-width="2.48343"/>
<path d="M272.786 55.8993H326.58V109.798H272.786V55.8993Z" stroke="#94A3B8" stroke-width="2.48343"/>
<path d="M326.58 55.8993H380.374V109.798H326.58V55.8993Z" fill="#94A3B8" fill-opacity="0.3" stroke="#94A3B8" stroke-width="2.48343"/>
<path d="M380.375 55.8993H434.169V109.798H380.375V55.8993Z" stroke="#94A3B8" stroke-width="2.48343"/>
<path d="M595.553 55.8993H649.347V109.798H595.553V55.8993Z" stroke="#94A3B8" stroke-width="2.48343"/>
<path d="M649.346 55.8993H703.14V109.798H649.346V55.8993Z" stroke="#94A3B8" stroke-width="2.48343"/>
<path d="M703.141 55.8993H756.935V109.798H703.141V55.8993Z" stroke="#94A3B8" stroke-width="2.48343"/>
<path d="M756.935 55.8993H810.729V109.798H756.935V55.8993Z" stroke="#94A3B8" stroke-width="2.48343"/>
<path d="M810.729 55.8993H864.524V109.798H810.729V55.8993Z" stroke="#94A3B8" stroke-width="2.48343"/>
<path d="M864.522 55.8993H918.317V109.798H864.522V55.8993Z" stroke="#94A3B8" stroke-width="2.48343"/>
<path d="M1671.44 55.8993H1725.24V109.798H1671.44V55.8993Z" stroke="#94A3B8" stroke-width="2.48343"/>
<path d="M1725.24 55.8993H1779.03V109.798H1725.24V55.8993Z" fill="#94A3B8" fill-opacity="0.3" stroke="#94A3B8" stroke-width="2.48343"/>
<path d="M1779.03 55.8993H1832.82V109.798H1779.03V55.8993Z" stroke="#94A3B8" stroke-width="2.48343"/>
<path d="M1832.82 55.8993H1886.62V109.798H1832.82V55.8993Z" stroke="#94A3B8" stroke-width="2.48343"/>
<path d="M1886.62 55.8993H1940.41V109.798H1886.62V55.8993Z" stroke="#94A3B8" stroke-width="2.48343"/>
<path d="M1940.41 55.8993H1994.21V109.798H1940.41V55.8993Z" stroke="#94A3B8" stroke-width="2.48343"/>
<path d="M1994.21 55.8993H2048V109.798H1994.21V55.8993Z" stroke="#94A3B8" stroke-width="2.48343"/>
<path d="M3.81445 109.799H57.6087V163.698H3.81445V109.799Z" stroke="#94A3B8" stroke-width="2.48343"/>
<path d="M57.6084 109.799H111.403V163.698H57.6084V109.799Z" stroke="#94A3B8" stroke-width="2.48343"/>
<path d="M111.402 109.799H165.197V163.698H111.402V109.799Z" stroke="#94A3B8" stroke-width="2.48343"/>
<path d="M165.198 109.799H218.992V163.698H165.198V109.799Z" stroke="#94A3B8" stroke-width="2.48343"/>
<path d="M218.992 109.799H272.786V163.698H218.992V109.799Z" stroke="#94A3B8" stroke-width="2.48343"/>
<path d="M272.786 109.799H326.58V163.698H272.786V109.799Z" stroke="#94A3B8" stroke-width="2.48343"/>
<path d="M595.553 109.799H649.347V163.698H595.553V109.799Z" stroke="#94A3B8" stroke-width="2.48343"/>
<path d="M1133.5 109.799H1187.29V163.698H1133.5V109.799Z" stroke="#94A3B8" stroke-width="2.48343"/>
<path d="M1187.29 109.799H1241.08V163.698H1187.29V109.799Z" stroke="#94A3B8" stroke-width="2.48343"/>
<path d="M1241.08 109.799H1294.88V163.698H1241.08V109.799Z" stroke="#94A3B8" stroke-width="2.48343"/>
<path d="M1294.88 109.799H1348.67V163.698H1294.88V109.799Z" stroke="#94A3B8" stroke-width="2.48343"/>
<path d="M1348.67 109.799H1402.47V163.698H1348.67V109.799Z" stroke="#94A3B8" stroke-width="2.48343"/>
<path d="M1402.47 109.799H1456.26V163.698H1402.47V109.799Z" stroke="#94A3B8" stroke-width="2.48343"/>
<path d="M1456.26 109.799H1510.06V163.698H1456.26V109.799Z" stroke="#94A3B8" stroke-width="2.48343"/>
<path d="M1779.03 109.799H1832.82V163.698H1779.03V109.799Z" stroke="#94A3B8" stroke-width="2.48343"/>
<path d="M1832.82 109.799H1886.62V163.698H1832.82V109.799Z" stroke="#94A3B8" stroke-width="2.48343"/>
<path d="M1886.62 109.799H1940.41V163.698H1886.62V109.799Z" stroke="#94A3B8" stroke-width="2.48343"/>
<path d="M1940.41 109.799H1994.21V163.698H1940.41V109.799Z" stroke="#94A3B8" stroke-width="2.48343"/>
<path d="M1994.21 109.799H2048V163.698H1994.21V109.799Z" stroke="#94A3B8" stroke-width="2.48343"/>
<path d="M3.81445 163.698H57.6087V217.597H3.81445V163.698Z" stroke="#94A3B8" stroke-width="2.48343"/>
<path d="M57.6084 163.698H111.403V217.597H57.6084V163.698Z" stroke="#94A3B8" stroke-width="2.48343"/>
<path d="M111.402 163.698H165.197V217.597H111.402V163.698Z" stroke="#94A3B8" stroke-width="2.48343"/>
<path d="M165.198 163.698H218.992V217.597H165.198V163.698Z" stroke="#94A3B8" stroke-width="2.48343"/>
<path d="M218.992 163.698H272.786V217.597H218.992V163.698Z" stroke="#94A3B8" stroke-width="2.48343"/>
<path d="M272.786 163.698H326.58V217.597H272.786V163.698Z" stroke="#94A3B8" stroke-width="2.48343"/>
<path d="M326.58 163.698H380.374V217.597H326.58V163.698Z" stroke="#94A3B8" stroke-width="2.48343"/>
<path d="M380.375 163.698H434.169V217.597H380.375V163.698Z" stroke="#94A3B8" stroke-width="2.48343"/>
<path d="M1456.26 163.698H1510.06V217.597H1456.26V163.698Z" stroke="#94A3B8" stroke-width="2.48343"/>
<path d="M1563.85 163.698H1617.64V217.597H1563.85V163.698Z" fill="#94A3B8" fill-opacity="0.3" stroke="#94A3B8" stroke-width="2.48343"/>
<path d="M1617.64 163.698H1671.43V217.597H1617.64V163.698Z" stroke="#94A3B8" stroke-width="2.48343"/>
<path d="M1671.44 163.698H1725.24V217.597H1671.44V163.698Z" stroke="#94A3B8" stroke-width="2.48343"/>
<path d="M1725.24 163.698H1779.03V217.597H1725.24V163.698Z" stroke="#94A3B8" stroke-width="2.48343"/>
<path d="M1779.03 163.698H1832.82V217.597H1779.03V163.698Z" stroke="#94A3B8" stroke-width="2.48343"/>
<path d="M1832.82 163.698H1886.62V217.597H1832.82V163.698Z" fill="#94A3B8" fill-opacity="0.3" stroke="#94A3B8" stroke-width="2.48343"/>
<path d="M1886.62 163.698H1940.41V217.597H1886.62V163.698Z" stroke="#94A3B8" stroke-width="2.48343"/>
<path d="M1940.41 163.698H1994.21V217.597H1940.41V163.698Z" stroke="#94A3B8" stroke-width="2.48343"/>
<path d="M1994.21 163.698H2048V217.597H1994.21V163.698Z" fill="#94A3B8" fill-opacity="0.3" stroke="#94A3B8" stroke-width="2.48343"/>
<path d="M3.81445 217.597H57.6087V271.497H3.81445V217.597Z" stroke="#94A3B8" stroke-width="2.48343"/>
<path d="M57.6084 217.597H111.403V271.497H57.6084V217.597Z" fill="#94A3B8" fill-opacity="0.3" stroke="#94A3B8" stroke-width="2.48343"/>
<path d="M111.402 217.597H165.197V271.497H111.402V217.597Z" stroke="#94A3B8" stroke-width="2.48343"/>
<path d="M326.58 217.597H380.374V271.497H326.58V217.597Z" fill="#94A3B8" fill-opacity="0.3" stroke="#94A3B8" stroke-width="2.48343"/>
<path d="M380.375 217.597H434.169V271.497H380.375V217.597Z" stroke="#94A3B8" stroke-width="2.48343"/>
<path d="M487.962 217.597H541.756V271.497H487.962V217.597Z" stroke="#94A3B8" stroke-width="2.48343"/>
<path d="M1456.26 217.597H1510.06V271.497H1456.26V217.597Z" stroke="#94A3B8" stroke-width="2.48343"/>
<path d="M1510.05 217.597H1563.85V271.497H1510.05V217.597Z" stroke="#94A3B8" stroke-width="2.48343"/>
<path d="M1671.44 217.597H1725.24V271.497H1671.44V217.597Z" stroke="#94A3B8" stroke-width="2.48343"/>
<path d="M1725.24 217.597H1779.03V271.497H1725.24V217.597Z" stroke="#94A3B8" stroke-width="2.48343"/>
<path d="M1779.03 217.597H1832.82V271.497H1779.03V217.597Z" stroke="#94A3B8" stroke-width="2.48343"/>
<path d="M1994.21 217.597H2048V271.497H1994.21V217.597Z" stroke="#94A3B8" stroke-width="2.48343"/>
<path d="M3.81445 271.496H57.6087V325.395H3.81445V271.496Z" stroke="#94A3B8" stroke-width="2.48343"/>
<path d="M57.6084 271.496H111.403V325.395H57.6084V271.496Z" stroke="#94A3B8" stroke-width="2.48343"/>
<path d="M111.402 271.496H165.197V325.395H111.402V271.496Z" stroke="#94A3B8" stroke-width="2.48343"/>
<path d="M165.198 271.496H218.992V325.395H165.198V271.496Z" stroke="#94A3B8" stroke-width="2.48343"/>
<path d="M218.992 271.496H272.786V325.395H218.992V271.496Z" stroke="#94A3B8" stroke-width="2.48343"/>
<path d="M272.786 271.496H326.58V325.395H272.786V271.496Z" stroke="#94A3B8" stroke-width="2.48343"/>
<path d="M541.759 271.496H595.553V325.395H541.759V271.496Z" stroke="#94A3B8" stroke-width="2.48343"/>
<path d="M595.553 271.496H649.347V325.395H595.553V271.496Z" stroke="#94A3B8" stroke-width="2.48343"/>
<path d="M1133.5 271.496H1187.29V325.395H1133.5V271.496Z" stroke="#94A3B8" stroke-width="2.48343"/>
<path d="M1187.29 271.496H1241.08V325.395H1187.29V271.496Z" stroke="#94A3B8" stroke-width="2.48343"/>
<path d="M1241.08 271.496H1294.88V325.395H1241.08V271.496Z" stroke="#94A3B8" stroke-width="2.48343"/>
<path d="M1294.88 271.496H1348.67V325.395H1294.88V271.496Z" stroke="#94A3B8" stroke-width="2.48343"/>
<path d="M1348.67 271.496H1402.47V325.395H1348.67V271.496Z" stroke="#94A3B8" stroke-width="2.48343"/>
<path d="M1402.47 271.496H1456.26V325.395H1402.47V271.496Z" stroke="#94A3B8" stroke-width="2.48343"/>
<path d="M1510.05 271.496H1563.85V325.395H1510.05V271.496Z" stroke="#94A3B8" stroke-width="2.48343"/>
<path d="M1563.85 271.496H1617.64V325.395H1563.85V271.496Z" fill="#94A3B8" fill-opacity="0.3" stroke="#94A3B8" stroke-width="2.48343"/>
<path d="M1779.03 271.496H1832.82V325.395H1779.03V271.496Z" stroke="#94A3B8" stroke-width="2.48343"/>
<path d="M1832.82 271.496H1886.62V325.395H1832.82V271.496Z" stroke="#94A3B8" stroke-width="2.48343"/>
<path d="M1886.62 271.496H1940.41V325.395H1886.62V271.496Z" stroke="#94A3B8" stroke-width="2.48343"/>
<path d="M1940.41 271.496H1994.21V325.395H1940.41V271.496Z" stroke="#94A3B8" stroke-width="2.48343"/>
<path d="M1994.21 271.496H2048V325.395H1994.21V271.496Z" stroke="#94A3B8" stroke-width="2.48343"/>
<path d="M3.81445 325.396H57.6087V379.295H3.81445V325.396Z" stroke="#94A3B8" stroke-width="2.48343"/>
<path d="M57.6084 325.396H111.403V379.295H57.6084V325.396Z" stroke="#94A3B8" stroke-width="2.48343"/>
<path d="M111.402 325.396H165.197V379.295H111.402V325.396Z" stroke="#94A3B8" stroke-width="2.48343"/>
<path d="M165.198 325.396H218.992V379.295H165.198V325.396Z" stroke="#94A3B8" stroke-width="2.48343"/>
<path d="M218.992 325.396H272.786V379.295H218.992V325.396Z" stroke="#94A3B8" stroke-width="2.48343"/>
<path d="M272.786 325.396H326.58V379.295H272.786V325.396Z" stroke="#94A3B8" stroke-width="2.48343"/>
<path d="M326.58 325.396H380.374V379.295H326.58V325.396Z" stroke="#94A3B8" stroke-width="2.48343"/>
<path d="M380.375 325.396H434.169V379.295H380.375V325.396Z" stroke="#94A3B8" stroke-width="2.48343"/>
<path d="M1617.64 325.396H1671.43V379.295H1617.64V325.396Z" stroke="#94A3B8" stroke-width="2.48343"/>
<path d="M1671.44 325.396H1725.24V379.295H1671.44V325.396Z" stroke="#94A3B8" stroke-width="2.48343"/>
<path d="M1725.24 325.396H1779.03V379.295H1725.24V325.396Z" stroke="#94A3B8" stroke-width="2.48343"/>
<path d="M1779.03 325.396H1832.82V379.295H1779.03V325.396Z" stroke="#94A3B8" stroke-width="2.48343"/>
<path d="M1832.82 325.396H1886.62V379.295H1832.82V325.396Z" fill="#94A3B8" fill-opacity="0.3" stroke="#94A3B8" stroke-width="2.48343"/>
<path d="M1886.62 325.396H1940.41V379.295H1886.62V325.396Z" stroke="#94A3B8" stroke-width="2.48343"/>
<path d="M1940.41 325.396H1994.21V379.295H1940.41V325.396Z" stroke="#94A3B8" stroke-width="2.48343"/>
<path d="M1994.21 325.396H2048V379.295H1994.21V325.396Z" stroke="#94A3B8" stroke-width="2.48343"/>
<path d="M3.81445 379.294H57.6087V433.194H3.81445V379.294Z" fill="#94A3B8" fill-opacity="0.3" stroke="#94A3B8" stroke-width="2.48343"/>
<path d="M57.6084 379.294H111.403V433.194H57.6084V379.294Z" stroke="#94A3B8" stroke-width="2.48343"/>
<path d="M111.402 379.294H165.197V433.194H111.402V379.294Z" stroke="#94A3B8" stroke-width="2.48343"/>
<path d="M326.58 379.294H380.374V433.194H326.58V379.294Z" fill="#94A3B8" fill-opacity="0.3" stroke="#94A3B8" stroke-width="2.48343"/>
<path d="M380.375 379.294H434.169V433.194H380.375V379.294Z" stroke="#94A3B8" stroke-width="2.48343"/>
<path d="M487.962 379.294H541.756V433.194H487.962V379.294Z" stroke="#94A3B8" stroke-width="2.48343"/>
<path d="M541.759 379.294H595.553V433.194H541.759V379.294Z" stroke="#94A3B8" stroke-width="2.48343"/>
<path d="M1563.85 379.294H1617.64V433.194H1563.85V379.294Z" stroke="#94A3B8" stroke-width="2.48343"/>
<path d="M1617.64 379.294H1671.43V433.194H1617.64V379.294Z" fill="#94A3B8" fill-opacity="0.3" stroke="#94A3B8" stroke-width="2.48343"/>
<path d="M1671.44 379.294H1725.24V433.194H1671.44V379.294Z" stroke="#94A3B8" stroke-width="2.48343"/>
<path d="M1725.24 379.294H1779.03V433.194H1725.24V379.294Z" stroke="#94A3B8" stroke-width="2.48343"/>
<path d="M1779.03 379.294H1832.82V433.194H1779.03V379.294Z" stroke="#94A3B8" stroke-width="2.48343"/>
<path d="M1994.21 379.294H2048V433.194H1994.21V379.294Z" stroke="#94A3B8" stroke-width="2.48343"/>
<path d="M3.81445 433.194H57.6087V487.093H3.81445V433.194Z" stroke="#94A3B8" stroke-width="2.48343"/>
<path d="M57.6084 433.194H111.403V487.093H57.6084V433.194Z" stroke="#94A3B8" stroke-width="2.48343"/>
<path d="M111.402 433.194H165.197V487.093H111.402V433.194Z" stroke="#94A3B8" stroke-width="2.48343"/>
<path d="M165.198 433.194H218.992V487.093H165.198V433.194Z" stroke="#94A3B8" stroke-width="2.48343"/>
<path d="M218.992 433.194H272.786V487.093H218.992V433.194Z" stroke="#94A3B8" stroke-width="2.48343"/>
<path d="M272.786 433.194H326.58V487.093H272.786V433.194Z" fill="#94A3B8" fill-opacity="0.3" stroke="#94A3B8" stroke-width="2.48343"/>
<path d="M541.759 433.194H595.553V487.093H541.759V433.194Z" stroke="#94A3B8" stroke-width="2.48343"/>
<path d="M595.553 433.194H649.347V487.093H595.553V433.194Z" stroke="#94A3B8" stroke-width="2.48343"/>
<path d="M1133.5 433.194H1187.29V487.093H1133.5V433.194Z" stroke="#94A3B8" stroke-width="2.48343"/>
<path d="M1187.29 433.194H1241.08V487.093H1187.29V433.194Z" stroke="#94A3B8" stroke-width="2.48343"/>
<path d="M1241.08 433.194H1294.88V487.093H1241.08V433.194Z" stroke="#94A3B8" stroke-width="2.48343"/>
<path d="M1294.88 433.194H1348.67V487.093H1294.88V433.194Z" stroke="#94A3B8" stroke-width="2.48343"/>
<path d="M1348.67 433.194H1402.47V487.093H1348.67V433.194Z" stroke="#94A3B8" stroke-width="2.48343"/>
<path d="M1402.47 433.194H1456.26V487.093H1402.47V433.194Z" stroke="#94A3B8" stroke-width="2.48343"/>
<path d="M1456.26 433.194H1510.06V487.093H1456.26V433.194Z" stroke="#94A3B8" stroke-width="2.48343"/>
<path d="M1510.05 433.194H1563.85V487.093H1510.05V433.194Z" stroke="#94A3B8" stroke-width="2.48343"/>
<path d="M1832.82 433.194H1886.62V487.093H1832.82V433.194Z" stroke="#94A3B8" stroke-width="2.48343"/>
<path d="M1886.62 433.194H1940.41V487.093H1886.62V433.194Z" stroke="#94A3B8" stroke-width="2.48343"/>
<path d="M1940.41 433.194H1994.21V487.093H1940.41V433.194Z" stroke="#94A3B8" stroke-width="2.48343"/>
<path d="M1994.21 433.194H2048V487.093H1994.21V433.194Z" stroke="#94A3B8" stroke-width="2.48343"/>
<path d="M3.81445 487.093H57.6087V540.992H3.81445V487.093Z" stroke="#94A3B8" stroke-width="2.48343"/>
<path d="M57.6084 487.093H111.403V540.992H57.6084V487.093Z" stroke="#94A3B8" stroke-width="2.48343"/>
<path d="M111.402 487.093H165.197V540.992H111.402V487.093Z" stroke="#94A3B8" stroke-width="2.48343"/>
<path d="M165.198 487.093H218.992V540.992H165.198V487.093Z" fill="#94A3B8" fill-opacity="0.3" stroke="#94A3B8" stroke-width="2.48343"/>
<path d="M218.992 487.093H272.786V540.992H218.992V487.093Z" stroke="#94A3B8" stroke-width="2.48343"/>
<path d="M272.786 487.093H326.58V540.992H272.786V487.093Z" stroke="#94A3B8" stroke-width="2.48343"/>
<path d="M326.58 487.093H380.374V540.992H326.58V487.093Z" stroke="#94A3B8" stroke-width="2.48343"/>
<path d="M380.375 487.093H434.169V540.992H380.375V487.093Z" stroke="#94A3B8" stroke-width="2.48343"/>
<path d="M541.759 487.093H595.553V540.992H541.759V487.093Z" stroke="#94A3B8" stroke-width="2.48343"/>
<path d="M1510.05 487.093H1563.85V540.992H1510.05V487.093Z" stroke="#94A3B8" stroke-width="2.48343"/>
<path d="M1563.85 487.093H1617.64V540.992H1563.85V487.093Z" stroke="#94A3B8" stroke-width="2.48343"/>
<path d="M1832.82 487.093H1886.62V540.992H1832.82V487.093Z" stroke="#94A3B8" stroke-width="2.48343"/>
<path d="M1886.62 487.093H1940.41V540.992H1886.62V487.093Z" stroke="#94A3B8" stroke-width="2.48343"/>
<path d="M1940.41 487.093H1994.21V540.992H1940.41V487.093Z" fill="#94A3B8" fill-opacity="0.3" stroke="#94A3B8" stroke-width="2.48343"/>
<path d="M1994.21 487.093H2048V540.992H1994.21V487.093Z" stroke="#94A3B8" stroke-width="2.48343"/>
<path d="M3.81445 540.992H57.6087V594.892H3.81445V540.992Z" stroke="#94A3B8" stroke-width="2.48343"/>
<path d="M165.198 540.992H218.992V594.892H165.198V540.992Z" stroke="#94A3B8" stroke-width="2.48343"/>
<path d="M326.58 540.992H380.374V594.892H326.58V540.992Z" stroke="#94A3B8" stroke-width="2.48343"/>
<path d="M380.375 540.992H434.169V594.892H380.375V540.992Z" fill="#94A3B8" fill-opacity="0.3" stroke="#94A3B8" stroke-width="2.48343"/>
<path d="M595.553 540.992H649.347V594.892H595.553V540.992Z" stroke="#94A3B8" stroke-width="2.48343"/>
<path d="M649.346 540.992H703.14V594.892H649.346V540.992Z" stroke="#94A3B8" stroke-width="2.48343"/>
<path d="M703.141 540.992H756.935V594.892H703.141V540.992Z" stroke="#94A3B8" stroke-width="2.48343"/>
<path d="M756.935 540.992H810.729V594.892H756.935V540.992Z" fill="#94A3B8" fill-opacity="0.3" stroke="#94A3B8" stroke-width="2.48343"/>
<path d="M810.729 540.992H864.524V594.892H810.729V540.992Z" stroke="#94A3B8" stroke-width="2.48343"/>
<path d="M864.522 540.992H918.317V594.892H864.522V540.992Z" stroke="#94A3B8" stroke-width="2.48343"/>
<path d="M1456.26 540.992H1510.06V594.892H1456.26V540.992Z" stroke="#94A3B8" stroke-width="2.48343"/>
<path opacity="0.99" d="M1510.05 540.992H1563.85V594.892H1510.05V540.992Z" stroke="#94A3B8" stroke-width="2.48343"/>
<path d="M1671.44 540.992H1725.24V594.892H1671.44V540.992Z" stroke="#94A3B8" stroke-width="2.48343"/>
<path d="M1725.24 540.992H1779.03V594.892H1725.24V540.992Z" stroke="#94A3B8" stroke-width="2.48343"/>
<path d="M1779.03 540.992H1832.82V594.892H1779.03V540.992Z" stroke="#94A3B8" stroke-width="2.48343"/>
<path d="M1994.21 540.992H2048V594.892H1994.21V540.992Z" stroke="#94A3B8" stroke-width="2.48343"/>
<path d="M3.81445 594.891H57.6087V648.79H3.81445V594.891Z" stroke="#94A3B8" stroke-width="2.48343"/>
<path d="M57.6084 594.891H111.403V648.79H57.6084V594.891Z" stroke="#94A3B8" stroke-width="2.48343"/>
<path d="M111.402 594.891H165.197V648.79H111.402V594.891Z" stroke="#94A3B8" stroke-width="2.48343"/>
<path d="M165.198 594.891H218.992V648.79H165.198V594.891Z" stroke="#94A3B8" stroke-width="2.48343"/>
<path d="M218.992 594.891H272.786V648.79H218.992V594.891Z" stroke="#94A3B8" stroke-width="2.48343"/>
<path d="M756.935 594.891H810.729V648.79H756.935V594.891Z" stroke="#94A3B8" stroke-width="2.48343"/>
<path d="M810.729 594.891H864.524V648.79H810.729V594.891Z" stroke="#94A3B8" stroke-width="2.48343"/>
<path d="M864.522 594.891H918.317V648.79H864.522V594.891Z" stroke="#94A3B8" stroke-width="2.48343"/>
<path d="M1241.08 594.891H1294.88V648.79H1241.08V594.891Z" stroke="#94A3B8" stroke-width="2.48343"/>
<path d="M1294.88 594.891H1348.67V648.79H1294.88V594.891Z" stroke="#94A3B8" stroke-width="2.48343"/>
<path d="M1348.67 594.891H1402.47V648.79H1348.67V594.891Z" stroke="#94A3B8" stroke-width="2.48343"/>
<path d="M1402.47 594.891H1456.26V648.79H1402.47V594.891Z" stroke="#94A3B8" stroke-width="2.48343"/>
<path d="M1456.26 594.891H1510.06V648.79H1456.26V594.891Z" fill="#94A3B8" fill-opacity="0.3" stroke="#94A3B8" stroke-width="2.48343"/>
<path d="M1510.05 594.891H1563.85V648.79H1510.05V594.891Z" stroke="#94A3B8" stroke-width="2.48343"/>
<path d="M1563.85 594.891H1617.64V648.79H1563.85V594.891Z" stroke="#94A3B8" stroke-width="2.48343"/>
<path d="M1671.44 594.891H1725.24V648.79H1671.44V594.891Z" stroke="#94A3B8" stroke-width="2.48343"/>
<path d="M1725.24 594.891H1779.03V648.79H1725.24V594.891Z" stroke="#94A3B8" stroke-width="2.48343"/>
<path d="M1779.03 594.891H1832.82V648.79H1779.03V594.891Z" stroke="#94A3B8" stroke-width="2.48343"/>
<path d="M1832.82 594.891H1886.62V648.79H1832.82V594.891Z" fill="#94A3B8" fill-opacity="0.3" stroke="#94A3B8" stroke-width="2.48343"/>
<path d="M1886.62 594.891H1940.41V648.79H1886.62V594.891Z" stroke="#94A3B8" stroke-width="2.48343"/>
<path d="M1940.41 594.891H1994.21V648.79H1940.41V594.891Z" stroke="#94A3B8" stroke-width="2.48343"/>
<path d="M1994.21 594.891H2048V648.79H1994.21V594.891Z" stroke="#94A3B8" stroke-width="2.48343"/>
<path d="M3.81445 648.79H57.6087V702.69H3.81445V648.79Z" stroke="#94A3B8" stroke-width="2.48343"/>
<path d="M57.6084 648.79H111.403V702.69H57.6084V648.79Z" stroke="#94A3B8" stroke-width="2.48343"/>
<path d="M111.402 648.79H165.197V702.69H111.402V648.79Z" fill="#94A3B8" fill-opacity="0.3" stroke="#94A3B8" stroke-width="2.48343"/>
<path d="M165.198 648.79H218.992V702.69H165.198V648.79Z" stroke="#94A3B8" stroke-width="2.48343"/>
<path d="M218.992 648.79H272.786V702.69H218.992V648.79Z" stroke="#94A3B8" stroke-width="2.48343"/>
<path d="M272.786 648.79H326.58V702.69H272.786V648.79Z" stroke="#94A3B8" stroke-width="2.48343"/>
<path d="M326.58 648.79H380.374V702.69H326.58V648.79Z" stroke="#94A3B8" stroke-width="2.48343"/>
<path d="M380.375 648.79H434.169V702.69H380.375V648.79Z" stroke="#94A3B8" stroke-width="2.48343"/>
<path d="M434.172 648.79H487.966V702.69H434.172V648.79Z" stroke="#94A3B8" stroke-width="2.48343"/>
<path d="M487.962 648.79H541.756V702.69H487.962V648.79Z" stroke="#94A3B8" stroke-width="2.48343"/>
<path d="M541.759 648.79H595.553V702.69H541.759V648.79Z" stroke="#94A3B8" stroke-width="2.48343"/>
<path d="M595.553 648.79H649.347V702.69H595.553V648.79Z" stroke="#94A3B8" stroke-width="2.48343"/>
<path d="M649.346 648.79H703.14V702.69H649.346V648.79Z" fill="#94A3B8" fill-opacity="0.3" stroke="#94A3B8" stroke-width="2.48343"/>
<path d="M1133.5 648.79H1187.29V702.69H1133.5V648.79Z" stroke="#94A3B8" stroke-width="2.48343"/>
<path d="M1187.29 648.79H1241.08V702.69H1187.29V648.79Z" stroke="#94A3B8" stroke-width="2.48343"/>
<path d="M1241.08 648.79H1294.88V702.69H1241.08V648.79Z" stroke="#94A3B8" stroke-width="2.48343"/>
<path d="M1294.88 648.79H1348.67V702.69H1294.88V648.79Z" stroke="#94A3B8" stroke-width="2.48343"/>
<path d="M1348.67 648.79H1402.47V702.69H1348.67V648.79Z" fill="#94A3B8" fill-opacity="0.3" stroke="#94A3B8" stroke-width="2.48343"/>
<path d="M1402.47 648.79H1456.26V702.69H1402.47V648.79Z" stroke="#94A3B8" stroke-width="2.48343"/>
<path d="M1456.26 648.79H1510.06V702.69H1456.26V648.79Z" stroke="#94A3B8" stroke-width="2.48343"/>
<path d="M1510.05 648.79H1563.85V702.69H1510.05V648.79Z" stroke="#94A3B8" stroke-width="2.48343"/>
<path d="M1563.85 648.79H1617.64V702.69H1563.85V648.79Z" stroke="#94A3B8" stroke-width="2.48343"/>
<path d="M1617.64 648.79H1671.43V702.69H1617.64V648.79Z" stroke="#94A3B8" stroke-width="2.48343"/>
<path d="M1671.44 648.79H1725.24V702.69H1671.44V648.79Z" stroke="#94A3B8" stroke-width="2.48343"/>
<path d="M1725.24 648.79H1779.03V702.69H1725.24V648.79Z" stroke="#94A3B8" stroke-width="2.48343"/>
<path d="M1779.03 648.79H1832.82V702.69H1779.03V648.79Z" stroke="#94A3B8" stroke-width="2.48343"/>
<path d="M1832.82 648.79H1886.62V702.69H1832.82V648.79Z" stroke="#94A3B8" stroke-width="2.48343"/>
<path d="M1886.62 648.79H1940.41V702.69H1886.62V648.79Z" stroke="#94A3B8" stroke-width="2.48343"/>
<path d="M1940.41 648.79H1994.21V702.69H1940.41V648.79Z" stroke="#94A3B8" stroke-width="2.48343"/>
<path d="M1994.21 648.79H2048V702.69H1994.21V648.79Z" stroke="#94A3B8" stroke-width="2.48343"/>
<path d="M3.81445 702.69H57.6087V756.589H3.81445V702.69Z" stroke="#94A3B8" stroke-width="2.48343"/>
<path d="M57.6084 702.69H111.403V756.589H57.6084V702.69Z" stroke="#94A3B8" stroke-width="2.48343"/>
<path d="M111.402 702.69H165.197V756.589H111.402V702.69Z" stroke="#94A3B8" stroke-width="2.48343"/>
<path d="M165.198 702.69H218.992V756.589H165.198V702.69Z" stroke="#94A3B8" stroke-width="2.48343"/>
<path d="M218.992 702.69H272.786V756.589H218.992V702.69Z" stroke="#94A3B8" stroke-width="2.48343"/>
<path d="M272.786 702.69H326.58V756.589H272.786V702.69Z" fill="#94A3B8" fill-opacity="0.3" stroke="#94A3B8" stroke-width="2.48343"/>
<path d="M541.759 702.69H595.553V756.589H541.759V702.69Z" stroke="#94A3B8" stroke-width="2.48343"/>
<path d="M595.553 702.69H649.347V756.589H595.553V702.69Z" stroke="#94A3B8" stroke-width="2.48343"/>
<path d="M1133.5 702.69H1187.29V756.589H1133.5V702.69Z" stroke="#94A3B8" stroke-width="2.48343"/>
<path d="M1187.29 702.69H1241.08V756.589H1187.29V702.69Z" stroke="#94A3B8" stroke-width="2.48343"/>
<path d="M1241.08 702.69H1294.88V756.589H1241.08V702.69Z" stroke="#94A3B8" stroke-width="2.48343"/>
<path d="M1294.88 702.69H1348.67V756.589H1294.88V702.69Z" stroke="#94A3B8" stroke-width="2.48343"/>
<path d="M1348.67 702.69H1402.47V756.589H1348.67V702.69Z" stroke="#94A3B8" stroke-width="2.48343"/>
<path d="M1402.47 702.69H1456.26V756.589H1402.47V702.69Z" stroke="#94A3B8" stroke-width="2.48343"/>
<path d="M1456.26 702.69H1510.06V756.589H1456.26V702.69Z" stroke="#94A3B8" stroke-width="2.48343"/>
<path d="M1510.05 702.69H1563.85V756.589H1510.05V702.69Z" stroke="#94A3B8" stroke-width="2.48343"/>
<path d="M1832.82 702.69H1886.62V756.589H1832.82V702.69Z" stroke="#94A3B8" stroke-width="2.48343"/>
<path d="M1886.62 702.69H1940.41V756.589H1886.62V702.69Z" stroke="#94A3B8" stroke-width="2.48343"/>
<path d="M1940.41 702.69H1994.21V756.589H1940.41V702.69Z" stroke="#94A3B8" stroke-width="2.48343"/>
<path d="M1994.21 702.69H2048V756.589H1994.21V702.69Z" stroke="#94A3B8" stroke-width="2.48343"/>
<path d="M3.81445 756.589H57.6087V810.489H3.81445V756.589Z" stroke="#94A3B8" stroke-width="2.48343"/>
<path d="M57.6084 756.589H111.403V810.489H57.6084V756.589Z" stroke="#94A3B8" stroke-width="2.48343"/>
<path d="M165.198 756.589H218.992V810.489H165.198V756.589Z" stroke="#94A3B8" stroke-width="2.48343"/>
<path d="M218.992 756.589H272.786V810.489H218.992V756.589Z" stroke="#94A3B8" stroke-width="2.48343"/>
<path d="M272.786 756.589H326.58V810.489H272.786V756.589Z" stroke="#94A3B8" stroke-width="2.48343"/>
<path d="M326.58 756.589H380.374V810.489H326.58V756.589Z" stroke="#94A3B8" stroke-width="2.48343"/>
<path d="M380.375 756.589H434.169V810.489H380.375V756.589Z" stroke="#94A3B8" stroke-width="2.48343"/>
<path d="M487.962 756.589H541.756V810.489H487.962V756.589Z" stroke="#94A3B8" stroke-width="2.48343"/>
<path d="M541.759 756.589H595.553V810.489H541.759V756.589Z" stroke="#94A3B8" stroke-width="2.48343"/>
<path d="M595.553 756.589H649.347V810.489H595.553V756.589Z" stroke="#94A3B8" stroke-width="2.48343"/>
<path d="M649.346 756.589H703.14V810.489H649.346V756.589Z" stroke="#94A3B8" stroke-width="2.48343"/>
<path d="M1025.91 756.589H1079.7V810.489H1025.91V756.589Z" stroke="#94A3B8" stroke-width="2.48343"/>
<path d="M1079.7 756.589H1133.49V810.489H1079.7V756.589Z" stroke="#94A3B8" stroke-width="2.48343"/>
<path d="M1133.5 756.589H1187.29V810.489H1133.5V756.589Z" stroke="#94A3B8" stroke-width="2.48343"/>
<path d="M1187.29 756.589H1241.08V810.489H1187.29V756.589Z" stroke="#94A3B8" stroke-width="2.48343"/>
<path d="M1241.08 756.589H1294.88V810.489H1241.08V756.589Z" stroke="#94A3B8" stroke-width="2.48343"/>
<path d="M1294.88 756.589H1348.67V810.489H1294.88V756.589Z" stroke="#94A3B8" stroke-width="2.48343"/>
<path d="M1348.67 756.589H1402.47V810.489H1348.67V756.589Z" stroke="#94A3B8" stroke-width="2.48343"/>
<path d="M1456.26 756.589H1510.06V810.489H1456.26V756.589Z" stroke="#94A3B8" stroke-width="2.48343"/>
<path d="M1563.85 756.589H1617.64V810.489H1563.85V756.589Z" fill="#94A3B8" fill-opacity="0.3" stroke="#94A3B8" stroke-width="2.48343"/>
<path d="M1617.64 756.589H1671.43V810.489H1617.64V756.589Z" stroke="#94A3B8" stroke-width="2.48343"/>
<path d="M1940.41 756.589H1994.21V810.489H1940.41V756.589Z" stroke="#94A3B8" stroke-width="2.48343"/>
<path d="M1994.21 756.589H2048V810.489H1994.21V756.589Z" fill="#94A3B8" fill-opacity="0.3" stroke="#94A3B8" stroke-width="2.48343"/>
<path d="M3.81445 810.488H57.6087V864.387H3.81445V810.488Z" stroke="#94A3B8" stroke-width="2.48343"/>
<path d="M57.6084 810.488H111.403V864.387H57.6084V810.488Z" stroke="#94A3B8" stroke-width="2.48343"/>
<path d="M595.553 810.488H649.347V864.387H595.553V810.488Z" stroke="#94A3B8" stroke-width="2.48343"/>
<path d="M649.346 810.488H703.14V864.387H649.346V810.488Z" stroke="#94A3B8" stroke-width="2.48343"/>
<path d="M703.141 810.488H756.935V864.387H703.141V810.488Z" stroke="#94A3B8" stroke-width="2.48343"/>
<path d="M756.935 810.488H810.729V864.387H756.935V810.488Z" stroke="#94A3B8" stroke-width="2.48343"/>
<path d="M1671.44 810.488H1725.24V864.387H1671.44V810.488Z" stroke="#94A3B8" stroke-width="2.48343"/>
<path d="M1725.24 810.488H1779.03V864.387H1725.24V810.488Z" fill="#94A3B8" fill-opacity="0.3" stroke="#94A3B8" stroke-width="2.48343"/>
<path d="M1779.03 810.488H1832.82V864.387H1779.03V810.488Z" stroke="#94A3B8" stroke-width="2.48343"/>
<path d="M1994.21 810.488H2048V864.387H1994.21V810.488Z" stroke="#94A3B8" stroke-width="2.48343"/>
<path d="M3.81445 864.388H57.6087V918.287H3.81445V864.388Z" stroke="#94A3B8" stroke-width="2.48343"/>
<path d="M57.6084 864.388H111.403V918.287H57.6084V864.388Z" stroke="#94A3B8" stroke-width="2.48343"/>
<path d="M111.402 864.388H165.197V918.287H111.402V864.388Z" stroke="#94A3B8" stroke-width="2.48343"/>
<path d="M165.198 864.388H218.992V918.287H165.198V864.388Z" stroke="#94A3B8" stroke-width="2.48343"/>
<path d="M218.992 864.388H272.786V918.287H218.992V864.388Z" stroke="#94A3B8" stroke-width="2.48343"/>
<path d="M272.786 864.388H326.58V918.287H272.786V864.388Z" stroke="#94A3B8" stroke-width="2.48343"/>
<path d="M326.58 864.388H380.374V918.287H326.58V864.388Z" fill="#94A3B8" fill-opacity="0.3" stroke="#94A3B8" stroke-width="2.48343"/>
<path d="M380.375 864.388H434.169V918.287H380.375V864.388Z" stroke="#94A3B8" stroke-width="2.48343"/>
<path d="M434.172 864.388H487.966V918.287H434.172V864.388Z" stroke="#94A3B8" stroke-width="2.48343"/>
<path d="M487.962 864.388H541.756V918.287H487.962V864.388Z" stroke="#94A3B8" stroke-width="2.48343"/>
<path d="M541.759 864.388H595.553V918.287H541.759V864.388Z" stroke="#94A3B8" stroke-width="2.48343"/>
<path d="M595.553 864.388H649.347V918.287H595.553V864.388Z" stroke="#94A3B8" stroke-width="2.48343"/>
<path d="M649.346 864.388H703.14V918.287H649.346V864.388Z" stroke="#94A3B8" stroke-width="2.48343"/>
<path d="M703.141 864.388H756.935V918.287H703.141V864.388Z" stroke="#94A3B8" stroke-width="2.48343"/>
<path d="M918.318 864.388H972.113V918.287H918.318V864.388Z" stroke="#94A3B8" stroke-width="2.48343"/>
<path d="M972.111 864.388H1025.91V918.287H972.111V864.388Z" stroke="#94A3B8" stroke-width="2.48343"/>
<path d="M1025.91 864.388H1079.7V918.287H1025.91V864.388Z" stroke="#94A3B8" stroke-width="2.48343"/>
<path d="M1079.7 864.388H1133.49V918.287H1079.7V864.388Z" stroke="#94A3B8" stroke-width="2.48343"/>
<path d="M1133.5 864.388H1187.29V918.287H1133.5V864.388Z" stroke="#94A3B8" stroke-width="2.48343"/>
<path d="M1187.29 864.388H1241.08V918.287H1187.29V864.388Z" stroke="#94A3B8" stroke-width="2.48343"/>
<path d="M1241.08 864.388H1294.88V918.287H1241.08V864.388Z" stroke="#94A3B8" stroke-width="2.48343"/>
<path d="M1294.88 864.388H1348.67V918.287H1294.88V864.388Z" stroke="#94A3B8" stroke-width="2.48343"/>
<path d="M1348.67 864.388H1402.47V918.287H1348.67V864.388Z" stroke="#94A3B8" stroke-width="2.48343"/>
<path d="M1402.47 864.388H1456.26V918.287H1402.47V864.388Z" stroke="#94A3B8" stroke-width="2.48343"/>
<path d="M1456.26 864.388H1510.06V918.287H1456.26V864.388Z" stroke="#94A3B8" stroke-width="2.48343"/>
<path d="M1510.05 864.388H1563.85V918.287H1510.05V864.388Z" stroke="#94A3B8" stroke-width="2.48343"/>
<path d="M1563.85 864.388H1617.64V918.287H1563.85V864.388Z" stroke="#94A3B8" stroke-width="2.48343"/>
<path d="M1617.64 864.388H1671.43V918.287H1617.64V864.388Z" stroke="#94A3B8" stroke-width="2.48343"/>
<path d="M1671.44 864.388H1725.24V918.287H1671.44V864.388Z" stroke="#94A3B8" stroke-width="2.48343"/>
<path d="M1940.41 864.388H1994.21V918.287H1940.41V864.388Z" stroke="#94A3B8" stroke-width="2.48343"/>
<path d="M1994.21 864.388H2048V918.287H1994.21V864.388Z" stroke="#94A3B8" stroke-width="2.48343"/>
<path d="M3.81445 918.287H57.6087V972.186H3.81445V918.287Z" stroke="#94A3B8" stroke-width="2.48343"/>
<path d="M57.6084 918.287H111.403V972.186H57.6084V918.287Z" stroke="#94A3B8" stroke-width="2.48343"/>
<path d="M111.402 918.287H165.197V972.186H111.402V918.287Z" fill="#94A3B8" fill-opacity="0.3" stroke="#94A3B8" stroke-width="2.48343"/>
<path d="M165.198 918.287H218.992V972.186H165.198V918.287Z" stroke="#94A3B8" stroke-width="2.48343"/>
<path d="M810.729 918.287H864.524V972.186H810.729V918.287Z" stroke="#94A3B8" stroke-width="2.48343"/>
<path d="M972.111 918.287H1025.91V972.186H972.111V918.287Z" stroke="#94A3B8" stroke-width="2.48343"/>
<path d="M1025.91 918.287H1079.7V972.186H1025.91V918.287Z" stroke="#94A3B8" stroke-width="2.48343"/>
<path d="M1079.7 918.287H1133.49V972.186H1079.7V918.287Z" stroke="#94A3B8" stroke-width="2.48343"/>
<path d="M1133.5 918.287H1187.29V972.186H1133.5V918.287Z" stroke="#94A3B8" stroke-width="2.48343"/>
<path d="M1294.88 918.287H1348.67V972.186H1294.88V918.287Z" stroke="#94A3B8" stroke-width="2.48343"/>
<path d="M1348.67 918.287H1402.47V972.186H1348.67V918.287Z" stroke="#94A3B8" stroke-width="2.48343"/>
<path d="M1402.47 918.287H1456.26V972.186H1402.47V918.287Z" fill="#94A3B8" fill-opacity="0.3" stroke="#94A3B8" stroke-width="2.48343"/>
<path d="M1456.26 918.287H1510.06V972.186H1456.26V918.287Z" stroke="#94A3B8" stroke-width="2.48343"/>
<path d="M1510.05 918.287H1563.85V972.186H1510.05V918.287Z" stroke="#94A3B8" stroke-width="2.48343"/>
<path d="M1779.03 918.287H1832.82V972.186H1779.03V918.287Z" stroke="#94A3B8" stroke-width="2.48343"/>
<path d="M1832.82 918.287H1886.62V972.186H1832.82V918.287Z" stroke="#94A3B8" stroke-width="2.48343"/>
<path d="M1886.62 918.287H1940.41V972.186H1886.62V918.287Z" stroke="#94A3B8" stroke-width="2.48343"/>
<path d="M1940.41 918.287H1994.21V972.186H1940.41V918.287Z" stroke="#94A3B8" stroke-width="2.48343"/>
<path d="M1994.21 918.287H2048V972.186H1994.21V918.287Z" stroke="#94A3B8" stroke-width="2.48343"/>
<path d="M3.81445 972.186H57.6087V1026.08H3.81445V972.186Z" stroke="#94A3B8" stroke-width="2.48343"/>
<path d="M57.6084 972.186H111.403V1026.08H57.6084V972.186Z" stroke="#94A3B8" stroke-width="2.48343"/>
<path d="M111.402 972.186H165.197V1026.08H111.402V972.186Z" stroke="#94A3B8" stroke-width="2.48343"/>
<path d="M165.198 972.186H218.992V1026.08H165.198V972.186Z" stroke="#94A3B8" stroke-width="2.48343"/>
<path d="M218.992 972.186H272.786V1026.08H218.992V972.186Z" stroke="#94A3B8" stroke-width="2.48343"/>
<path d="M272.786 972.186H326.58V1026.08H272.786V972.186Z" stroke="#94A3B8" stroke-width="2.48343"/>
<path d="M380.375 972.186H434.169V1026.08H380.375V972.186Z" stroke="#94A3B8" stroke-width="2.48343"/>
<path d="M649.346 972.186H703.14V1026.08H649.346V972.186Z" stroke="#94A3B8" stroke-width="2.48343"/>
<path d="M703.141 972.186H756.935V1026.08H703.141V972.186Z" stroke="#94A3B8" stroke-width="2.48343"/>
<path d="M756.935 972.186H810.729V1026.08H756.935V972.186Z" stroke="#94A3B8" stroke-width="2.48343"/>
<path d="M810.729 972.186H864.524V1026.08H810.729V972.186Z" stroke="#94A3B8" stroke-width="2.48343"/>
<path d="M1025.91 972.186H1079.7V1026.08H1025.91V972.186Z" stroke="#94A3B8" stroke-width="2.48343"/>
<path d="M1079.7 972.186H1133.49V1026.08H1079.7V972.186Z" stroke="#94A3B8" stroke-width="2.48343"/>
<path d="M1348.67 972.186H1402.47V1026.08H1348.67V972.186Z" stroke="#94A3B8" stroke-width="2.48343"/>
<path d="M1402.47 972.186H1456.26V1026.08H1402.47V972.186Z" stroke="#94A3B8" stroke-width="2.48343"/>
<path d="M1456.26 972.186H1510.06V1026.08H1456.26V972.186Z" stroke="#94A3B8" stroke-width="2.48343"/>
<path d="M1510.05 972.186H1563.85V1026.08H1510.05V972.186Z" stroke="#94A3B8" stroke-width="2.48343"/>
<path d="M1563.85 972.186H1617.64V1026.08H1563.85V972.186Z" stroke="#94A3B8" stroke-width="2.48343"/>
<path d="M1832.82 972.186H1886.62V1026.08H1832.82V972.186Z" stroke="#94A3B8" stroke-width="2.48343"/>
<path d="M1886.62 972.186H1940.41V1026.08H1886.62V972.186Z" fill="#94A3B8" fill-opacity="0.3" stroke="#94A3B8" stroke-width="2.48343"/>
<path d="M1940.41 972.186H1994.21V1026.08H1940.41V972.186Z" stroke="#94A3B8" stroke-width="2.48343"/>
<path d="M1994.21 972.186H2048V1026.08H1994.21V972.186Z" stroke="#94A3B8" stroke-width="2.48343"/>
<path d="M3.81445 1026.08H57.6087V1079.98H3.81445V1026.08Z" stroke="#94A3B8" stroke-width="2.48343"/>
<path d="M57.6084 1026.08H111.403V1079.98H57.6084V1026.08Z" stroke="#94A3B8" stroke-width="2.48343"/>
<path d="M111.402 1026.08H165.197V1079.98H111.402V1026.08Z" stroke="#94A3B8" stroke-width="2.48343"/>
<path d="M165.198 1026.08H218.992V1079.98H165.198V1026.08Z" stroke="#94A3B8" stroke-width="2.48343"/>
<path d="M218.992 1026.08H272.786V1079.98H218.992V1026.08Z" stroke="#94A3B8" stroke-width="2.48343"/>
<path d="M272.786 1026.08H326.58V1079.98H272.786V1026.08Z" stroke="#94A3B8" stroke-width="2.48343"/>
<path d="M326.58 1026.08H380.374V1079.98H326.58V1026.08Z" fill="#94A3B8" fill-opacity="0.3" stroke="#94A3B8" stroke-width="2.48343"/>
<path d="M380.375 1026.08H434.169V1079.98H380.375V1026.08Z" stroke="#94A3B8" stroke-width="2.48343"/>
<path d="M434.172 1026.08H487.966V1079.98H434.172V1026.08Z" stroke="#94A3B8" stroke-width="2.48343"/>
<path d="M487.962 1026.08H541.756V1079.98H487.962V1026.08Z" stroke="#94A3B8" stroke-width="2.48343"/>
<path d="M541.759 1026.08H595.553V1079.98H541.759V1026.08Z" stroke="#94A3B8" stroke-width="2.48343"/>
<path d="M595.553 1026.08H649.347V1079.98H595.553V1026.08Z" stroke="#94A3B8" stroke-width="2.48343"/>
<path d="M649.346 1026.08H703.14V1079.98H649.346V1026.08Z" stroke="#94A3B8" stroke-width="2.48343"/>
<path d="M703.141 1026.08H756.935V1079.98H703.141V1026.08Z" fill="#94A3B8" fill-opacity="0.3" stroke="#94A3B8" stroke-width="2.48343"/>
<path d="M756.935 1026.08H810.729V1079.98H756.935V1026.08Z" stroke="#94A3B8" stroke-width="2.48343"/>
<path d="M810.729 1026.08H864.524V1079.98H810.729V1026.08Z" stroke="#94A3B8" stroke-width="2.48343"/>
<path d="M864.522 1026.08H918.317V1079.98H864.522V1026.08Z" stroke="#94A3B8" stroke-width="2.48343"/>
<path d="M918.318 1026.08H972.113V1079.98H918.318V1026.08Z" stroke="#94A3B8" stroke-width="2.48343"/>
<path d="M972.111 1026.08H1025.91V1079.98H972.111V1026.08Z" stroke="#94A3B8" stroke-width="2.48343"/>
<path d="M1025.91 1026.08H1079.7V1079.98H1025.91V1026.08Z" stroke="#94A3B8" stroke-width="2.48343"/>
<path d="M1079.7 1026.08H1133.49V1079.98H1079.7V1026.08Z" stroke="#94A3B8" stroke-width="2.48343"/>
<path d="M1187.29 1026.08H1241.08V1079.98H1187.29V1026.08Z" stroke="#94A3B8" stroke-width="2.48343"/>
<path d="M1241.08 1026.08H1294.88V1079.98H1241.08V1026.08Z" stroke="#94A3B8" stroke-width="2.48343"/>
<path d="M1294.88 1026.08H1348.67V1079.98H1294.88V1026.08Z" stroke="#94A3B8" stroke-width="2.48343"/>
<path d="M1348.67 1026.08H1402.47V1079.98H1348.67V1026.08Z" fill="#94A3B8" fill-opacity="0.3" stroke="#94A3B8" stroke-width="2.48343"/>
<path d="M1886.62 1026.08H1940.41V1079.98H1886.62V1026.08Z" stroke="#94A3B8" stroke-width="2.48343"/>
<path d="M1940.41 1026.08H1994.21V1079.98H1940.41V1026.08Z" stroke="#94A3B8" stroke-width="2.48343"/>
<path d="M1994.21 1026.08H2048V1079.98H1994.21V1026.08Z" stroke="#94A3B8" stroke-width="2.48343"/>
<path d="M3.81445 1079.98H57.6087V1133.88H3.81445V1079.98Z" stroke="#94A3B8" stroke-width="2.48343"/>
<path d="M57.6084 1079.98H111.403V1133.88H57.6084V1079.98Z" stroke="#94A3B8" stroke-width="2.48343"/>
<path d="M165.198 1079.98H218.992V1133.88H165.198V1079.98Z" stroke="#94A3B8" stroke-width="2.48343"/>
<path d="M218.992 1079.98H272.786V1133.88H218.992V1079.98Z" stroke="#94A3B8" stroke-width="2.48343"/>
<path d="M272.786 1079.98H326.58V1133.88H272.786V1079.98Z" stroke="#94A3B8" stroke-width="2.48343"/>
<path d="M487.962 1079.98H541.756V1133.88H487.962V1079.98Z" stroke="#94A3B8" stroke-width="2.48343"/>
<path d="M541.759 1079.98H595.553V1133.88H541.759V1079.98Z" stroke="#94A3B8" stroke-width="2.48343"/>
<path d="M918.318 1079.98H972.113V1133.88H918.318V1079.98Z" stroke="#94A3B8" stroke-width="2.48343"/>
<path d="M972.111 1079.98H1025.91V1133.88H972.111V1079.98Z" stroke="#94A3B8" stroke-width="2.48343"/>
<path d="M1025.91 1079.98H1079.7V1133.88H1025.91V1079.98Z" stroke="#94A3B8" stroke-width="2.48343"/>
<path d="M1187.29 1079.98H1241.08V1133.88H1187.29V1079.98Z" stroke="#94A3B8" stroke-width="2.48343"/>
<path d="M1241.08 1079.98H1294.88V1133.88H1241.08V1079.98Z" stroke="#94A3B8" stroke-width="2.48343"/>
<path d="M1294.88 1079.98H1348.67V1133.88H1294.88V1079.98Z" stroke="#94A3B8" stroke-width="2.48343"/>
<path d="M1348.67 1079.98H1402.47V1133.88H1348.67V1079.98Z" stroke="#94A3B8" stroke-width="2.48343"/>
<path d="M1402.47 1079.98H1456.26V1133.88H1402.47V1079.98Z" stroke="#94A3B8" stroke-width="2.48343"/>
<path d="M1456.26 1079.98H1510.06V1133.88H1456.26V1079.98Z" stroke="#94A3B8" stroke-width="2.48343"/>
<path d="M1510.05 1079.98H1563.85V1133.88H1510.05V1079.98Z" stroke="#94A3B8" stroke-width="2.48343"/>
<path d="M1779.03 1079.98H1832.82V1133.88H1779.03V1079.98Z" stroke="#94A3B8" stroke-width="2.48343"/>
<path d="M1832.82 1079.98H1886.62V1133.88H1832.82V1079.98Z" stroke="#94A3B8" stroke-width="2.48343"/>
<path d="M1886.62 1079.98H1940.41V1133.88H1886.62V1079.98Z" stroke="#94A3B8" stroke-width="2.48343"/>
<path d="M1940.41 1079.98H1994.21V1133.88H1940.41V1079.98Z" fill="#94A3B8" fill-opacity="0.3" stroke="#94A3B8" stroke-width="2.48343"/>
<path d="M1994.21 1079.98H2048V1133.88H1994.21V1079.98Z" stroke="#94A3B8" stroke-width="2.48343"/>
<path d="M3.81445 1133.88H57.6087V1187.78H3.81445V1133.88Z" stroke="#94A3B8" stroke-width="2.48343"/>
<path d="M57.6084 1133.88H111.403V1187.78H57.6084V1133.88Z" stroke="#94A3B8" stroke-width="2.48343"/>
<path d="M218.992 1133.88H272.786V1187.78H218.992V1133.88Z" stroke="#94A3B8" stroke-width="2.48343"/>
<path d="M272.786 1133.88H326.58V1187.78H272.786V1133.88Z" stroke="#94A3B8" stroke-width="2.48343"/>
<path d="M326.58 1133.88H380.374V1187.78H326.58V1133.88Z" fill="#94A3B8" fill-opacity="0.3" stroke="#94A3B8" stroke-width="2.48343"/>
<path d="M380.375 1133.88H434.169V1187.78H380.375V1133.88Z" stroke="#94A3B8" stroke-width="2.48343"/>
<path d="M434.172 1133.88H487.966V1187.78H434.172V1133.88Z" stroke="#94A3B8" stroke-width="2.48343"/>
<path d="M487.962 1133.88H541.756V1187.78H487.962V1133.88Z" fill="#94A3B8" fill-opacity="0.3" stroke="#94A3B8" stroke-width="2.48343"/>
<path d="M541.759 1133.88H595.553V1187.78H541.759V1133.88Z" stroke="#94A3B8" stroke-width="2.48343"/>
<path d="M756.935 1133.88H810.729V1187.78H756.935V1133.88Z" stroke="#94A3B8" stroke-width="2.48343"/>
<path d="M810.729 1133.88H864.524V1187.78H810.729V1133.88Z" stroke="#94A3B8" stroke-width="2.48343"/>
<path d="M864.522 1133.88H918.317V1187.78H864.522V1133.88Z" stroke="#94A3B8" stroke-width="2.48343"/>
<path d="M918.318 1133.88H972.113V1187.78H918.318V1133.88Z" fill="#94A3B8" fill-opacity="0.3" stroke="#94A3B8" stroke-width="2.48343"/>
<path d="M1241.08 1133.88H1294.88V1187.78H1241.08V1133.88Z" stroke="#94A3B8" stroke-width="2.48343"/>
<path d="M1294.88 1133.88H1348.67V1187.78H1294.88V1133.88Z" stroke="#94A3B8" stroke-width="2.48343"/>
<path d="M1348.67 1133.88H1402.47V1187.78H1348.67V1133.88Z" stroke="#94A3B8" stroke-width="2.48343"/>
<path d="M1402.47 1133.88H1456.26V1187.78H1402.47V1133.88Z" stroke="#94A3B8" stroke-width="2.48343"/>
<path d="M1456.26 1133.88H1510.06V1187.78H1456.26V1133.88Z" stroke="#94A3B8" stroke-width="2.48343"/>
<path d="M1510.05 1133.88H1563.85V1187.78H1510.05V1133.88Z" stroke="#94A3B8" stroke-width="2.48343"/>
<path d="M1563.85 1133.88H1617.64V1187.78H1563.85V1133.88Z" stroke="#94A3B8" stroke-width="2.48343"/>
<path d="M1617.64 1133.88H1671.43V1187.78H1617.64V1133.88Z" stroke="#94A3B8" stroke-width="2.48343"/>
<path d="M1832.82 1133.88H1886.62V1187.78H1832.82V1133.88Z" stroke="#94A3B8" stroke-width="2.48343"/>
<path d="M1886.62 1133.88H1940.41V1187.78H1886.62V1133.88Z" stroke="#94A3B8" stroke-width="2.48343"/>
<path d="M1940.41 1133.88H1994.21V1187.78H1940.41V1133.88Z" stroke="#94A3B8" stroke-width="2.48343"/>
<path d="M1994.21 1133.88H2048V1187.78H1994.21V1133.88Z" stroke="#94A3B8" stroke-width="2.48343"/>
<path d="M2 1187.54H55.7942V1241.44H2V1187.54Z" stroke="#94A3B8" stroke-width="2.48343"/>
<path d="M55.791 1187.54H109.585V1241.44H55.791V1187.54Z" stroke="#94A3B8" stroke-width="2.48343"/>
<path d="M109.585 1187.54H163.379V1241.44H109.585V1187.54Z" fill="#94A3B8" fill-opacity="0.3" stroke="#94A3B8" stroke-width="2.48343"/>
<path d="M163.381 1187.54H217.175V1241.44H163.381V1187.54Z" stroke="#94A3B8" stroke-width="2.48343"/>
<path d="M217.177 1187.54H270.971V1241.44H217.177V1187.54Z" stroke="#94A3B8" stroke-width="2.48343"/>
<path d="M270.971 1187.54H324.765V1241.44H270.971V1187.54Z" stroke="#94A3B8" stroke-width="2.48343"/>
<path d="M324.766 1187.54H378.56V1241.44H324.766V1187.54Z" stroke="#94A3B8" stroke-width="2.48343"/>
<path d="M378.559 1187.54H432.353V1241.44H378.559V1187.54Z" stroke="#94A3B8" stroke-width="2.48343"/>
<path d="M432.354 1187.54H486.148V1241.44H432.354V1187.54Z" fill="#94A3B8" fill-opacity="0.3" stroke="#94A3B8" stroke-width="2.48343"/>
<path d="M486.146 1187.54H539.94V1241.44H486.146V1187.54Z" stroke="#94A3B8" stroke-width="2.48343"/>
<path d="M539.943 1187.54H593.738V1241.44H539.943V1187.54Z" stroke="#94A3B8" stroke-width="2.48343"/>
<path d="M593.737 1187.54H647.532V1241.44H593.737V1187.54Z" stroke="#94A3B8" stroke-width="2.48343"/>
<path d="M1131.68 1187.54H1185.47V1241.44H1131.68V1187.54Z" stroke="#94A3B8" stroke-width="2.48343"/>
<path d="M1185.47 1187.54H1239.27V1241.44H1185.47V1187.54Z" stroke="#94A3B8" stroke-width="2.48343"/>
<path d="M1239.27 1187.54H1293.06V1241.44H1239.27V1187.54Z" stroke="#94A3B8" stroke-width="2.48343"/>
<path d="M1293.06 1187.54H1346.85V1241.44H1293.06V1187.54Z" stroke="#94A3B8" stroke-width="2.48343"/>
<path d="M1346.86 1187.54H1400.65V1241.44H1346.86V1187.54Z" fill="#94A3B8" fill-opacity="0.3" stroke="#94A3B8" stroke-width="2.48343"/>
<path d="M1400.65 1187.54H1454.44V1241.44H1400.65V1187.54Z" stroke="#94A3B8" stroke-width="2.48343"/>
<path d="M1454.44 1187.54H1508.24V1241.44H1454.44V1187.54Z" stroke="#94A3B8" stroke-width="2.48343"/>
<path d="M1508.24 1187.54H1562.03V1241.44H1508.24V1187.54Z" fill="#94A3B8" fill-opacity="0.3" stroke="#94A3B8" stroke-width="2.48343"/>
<path d="M1562.03 1187.54H1615.83V1241.44H1562.03V1187.54Z" stroke="#94A3B8" stroke-width="2.48343"/>
<path d="M1615.83 1187.54H1669.62V1241.44H1615.83V1187.54Z" stroke="#94A3B8" stroke-width="2.48343"/>
<path d="M1669.63 1187.54H1723.42V1241.44H1669.63V1187.54Z" stroke="#94A3B8" stroke-width="2.48343"/>
<path d="M1723.42 1187.54H1777.21V1241.44H1723.42V1187.54Z" stroke="#94A3B8" stroke-width="2.48343"/>
<path d="M1777.21 1187.54H1831.01V1241.44H1777.21V1187.54Z" stroke="#94A3B8" stroke-width="2.48343"/>
<path d="M1831.01 1187.54H1884.8V1241.44H1831.01V1187.54Z" stroke="#94A3B8" stroke-width="2.48343"/>
<path d="M1884.8 1187.54H1938.6V1241.44H1884.8V1187.54Z" stroke="#94A3B8" stroke-width="2.48343"/>
<path d="M1938.6 1187.54H1992.39V1241.44H1938.6V1187.54Z" stroke="#94A3B8" stroke-width="2.48343"/>
<path d="M1992.39 1187.54H2046.18V1241.44H1992.39V1187.54Z" fill="#94A3B8" fill-opacity="0.3" stroke="#94A3B8" stroke-width="2.48343"/>
<path d="M2 1241.44H55.7942V1295.34H2V1241.44Z" stroke="#94A3B8" stroke-width="2.48343"/>
<path d="M55.791 1241.44H109.585V1295.34H55.791V1241.44Z" stroke="#94A3B8" stroke-width="2.48343"/>
<path d="M109.585 1241.44H163.379V1295.34H109.585V1241.44Z" stroke="#94A3B8" stroke-width="2.48343"/>
<path d="M163.381 1241.44H217.175V1295.34H163.381V1241.44Z" stroke="#94A3B8" stroke-width="2.48343"/>
<path d="M217.177 1241.44H270.971V1295.34H217.177V1241.44Z" stroke="#94A3B8" stroke-width="2.48343"/>
<path d="M270.971 1241.44H324.765V1295.34H270.971V1241.44Z" stroke="#94A3B8" stroke-width="2.48343"/>
<path d="M324.766 1241.44H378.56V1295.34H324.766V1241.44Z" fill="#94A3B8" fill-opacity="0.3" stroke="#94A3B8" stroke-width="2.48343"/>
<path d="M378.559 1241.44H432.353V1295.34H378.559V1241.44Z" stroke="#94A3B8" stroke-width="2.48343"/>
<path d="M593.737 1241.44H647.532V1295.34H593.737V1241.44Z" stroke="#94A3B8" stroke-width="2.48343"/>
<path d="M647.531 1241.44H701.325V1295.34H647.531V1241.44Z" stroke="#94A3B8" stroke-width="2.48343"/>
<path d="M701.325 1241.44H755.119V1295.34H701.325V1241.44Z" stroke="#94A3B8" stroke-width="2.48343"/>
<path d="M755.117 1241.44H808.911V1295.34H755.117V1241.44Z" stroke="#94A3B8" stroke-width="2.48343"/>
<path d="M808.914 1241.44H862.708V1295.34H808.914V1241.44Z" stroke="#94A3B8" stroke-width="2.48343"/>
<path d="M862.707 1241.44H916.501V1295.34H862.707V1241.44Z" stroke="#94A3B8" stroke-width="2.48343"/>
<path d="M1669.63 1241.44H1723.42V1295.34H1669.63V1241.44Z" stroke="#94A3B8" stroke-width="2.48343"/>
<path d="M1723.42 1241.44H1777.21V1295.34H1723.42V1241.44Z" fill="#94A3B8" fill-opacity="0.3" stroke="#94A3B8" stroke-width="2.48343"/>
<path d="M1777.21 1241.44H1831.01V1295.34H1777.21V1241.44Z" stroke="#94A3B8" stroke-width="2.48343"/>
<path d="M1831.01 1241.44H1884.8V1295.34H1831.01V1241.44Z" stroke="#94A3B8" stroke-width="2.48343"/>
<path d="M1884.8 1241.44H1938.6V1295.34H1884.8V1241.44Z" stroke="#94A3B8" stroke-width="2.48343"/>
<path d="M1938.6 1241.44H1992.39V1295.34H1938.6V1241.44Z" stroke="#94A3B8" stroke-width="2.48343"/>
<path d="M1992.39 1241.44H2046.18V1295.34H1992.39V1241.44Z" stroke="#94A3B8" stroke-width="2.48343"/>
<path d="M2 1295.34H55.7942V1349.24H2V1295.34Z" stroke="#94A3B8" stroke-width="2.48343"/>
<path d="M55.791 1295.34H109.585V1349.24H55.791V1295.34Z" stroke="#94A3B8" stroke-width="2.48343"/>
<path d="M109.585 1295.34H163.379V1349.24H109.585V1295.34Z" stroke="#94A3B8" stroke-width="2.48343"/>
<path d="M163.381 1295.34H217.175V1349.24H163.381V1295.34Z" stroke="#94A3B8" stroke-width="2.48343"/>
<path d="M217.177 1295.34H270.971V1349.24H217.177V1295.34Z" stroke="#94A3B8" stroke-width="2.48343"/>
<path d="M270.971 1295.34H324.765V1349.24H270.971V1295.34Z" stroke="#94A3B8" stroke-width="2.48343"/>
<path d="M593.737 1295.34H647.532V1349.24H593.737V1295.34Z" stroke="#94A3B8" stroke-width="2.48343"/>
<path d="M1131.68 1295.34H1185.47V1349.24H1131.68V1295.34Z" stroke="#94A3B8" stroke-width="2.48343"/>
<path d="M1185.47 1295.34H1239.27V1349.24H1185.47V1295.34Z" stroke="#94A3B8" stroke-width="2.48343"/>
<path d="M1239.27 1295.34H1293.06V1349.24H1239.27V1295.34Z" stroke="#94A3B8" stroke-width="2.48343"/>
<path d="M1293.06 1295.34H1346.85V1349.24H1293.06V1295.34Z" stroke="#94A3B8" stroke-width="2.48343"/>
<path d="M1346.86 1295.34H1400.65V1349.24H1346.86V1295.34Z" stroke="#94A3B8" stroke-width="2.48343"/>
<path d="M1400.65 1295.34H1454.44V1349.24H1400.65V1295.34Z" stroke="#94A3B8" stroke-width="2.48343"/>
<path d="M1454.44 1295.34H1508.24V1349.24H1454.44V1295.34Z" stroke="#94A3B8" stroke-width="2.48343"/>
<path d="M1777.21 1295.34H1831.01V1349.24H1777.21V1295.34Z" stroke="#94A3B8" stroke-width="2.48343"/>
<path d="M1831.01 1295.34H1884.8V1349.24H1831.01V1295.34Z" stroke="#94A3B8" stroke-width="2.48343"/>
<path d="M1884.8 1295.34H1938.6V1349.24H1884.8V1295.34Z" stroke="#94A3B8" stroke-width="2.48343"/>
<path d="M1938.6 1295.34H1992.39V1349.24H1938.6V1295.34Z" stroke="#94A3B8" stroke-width="2.48343"/>
<path d="M1992.39 1295.34H2046.18V1349.24H1992.39V1295.34Z" stroke="#94A3B8" stroke-width="2.48343"/>
<path d="M5.8125 1349.31H59.6067V1403.21H5.8125V1349.31Z" stroke="#94A3B8" stroke-width="2.48343"/>
<path d="M59.6064 1349.31H113.401V1403.21H59.6064V1349.31Z" stroke="#94A3B8" stroke-width="2.48343"/>
<path d="M113.4 1349.31H167.195V1403.21H113.4V1349.31Z" fill="#94A3B8" fill-opacity="0.3" stroke="#94A3B8" stroke-width="2.48343"/>
<path d="M167.196 1349.31H220.991V1403.21H167.196V1349.31Z" stroke="#94A3B8" stroke-width="2.48343"/>
<path d="M220.99 1349.31H274.784V1403.21H220.99V1349.31Z" stroke="#94A3B8" stroke-width="2.48343"/>
<path d="M274.784 1349.31H328.578V1403.21H274.784V1349.31Z" stroke="#94A3B8" stroke-width="2.48343"/>
<path d="M328.578 1349.31H382.372V1403.21H328.578V1349.31Z" stroke="#94A3B8" stroke-width="2.48343"/>
<path d="M382.373 1349.31H436.167V1403.21H382.373V1349.31Z" stroke="#94A3B8" stroke-width="2.48343"/>
<path d="M436.17 1349.31H489.964V1403.21H436.17V1349.31Z" fill="#94A3B8" fill-opacity="0.3" stroke="#94A3B8" stroke-width="2.48343"/>
<path d="M489.96 1349.31H543.754V1403.21H489.96V1349.31Z" stroke="#94A3B8" stroke-width="2.48343"/>
<path d="M543.757 1349.31H597.551V1403.21H543.757V1349.31Z" stroke="#94A3B8" stroke-width="2.48343"/>
<path d="M597.551 1349.31H651.345V1403.21H597.551V1349.31Z" stroke="#94A3B8" stroke-width="2.48343"/>
<path d="M1135.49 1349.31H1189.29V1403.21H1135.49V1349.31Z" stroke="#94A3B8" stroke-width="2.48343"/>
<path d="M1189.29 1349.31H1243.08V1403.21H1189.29V1349.31Z" stroke="#94A3B8" stroke-width="2.48343"/>
<path d="M1243.08 1349.31H1296.87V1403.21H1243.08V1349.31Z" stroke="#94A3B8" stroke-width="2.48343"/>
<path d="M1296.88 1349.31H1350.67V1403.21H1296.88V1349.31Z" stroke="#94A3B8" stroke-width="2.48343"/>
<path d="M1350.67 1349.31H1404.46V1403.21H1350.67V1349.31Z" fill="#94A3B8" fill-opacity="0.3" stroke="#94A3B8" stroke-width="2.48343"/>
<path d="M1404.46 1349.31H1458.26V1403.21H1404.46V1349.31Z" stroke="#94A3B8" stroke-width="2.48343"/>
<path d="M1458.26 1349.31H1512.05V1403.21H1458.26V1349.31Z" stroke="#94A3B8" stroke-width="2.48343"/>
<path d="M1512.05 1349.31H1565.85V1403.21H1512.05V1349.31Z" fill="#94A3B8" fill-opacity="0.3" stroke="#94A3B8" stroke-width="2.48343"/>
<path d="M1565.85 1349.31H1619.64V1403.21H1565.85V1349.31Z" stroke="#94A3B8" stroke-width="2.48343"/>
<path d="M1619.64 1349.31H1673.43V1403.21H1619.64V1349.31Z" stroke="#94A3B8" stroke-width="2.48343"/>
<path d="M1673.44 1349.31H1727.24V1403.21H1673.44V1349.31Z" stroke="#94A3B8" stroke-width="2.48343"/>
<path d="M1727.23 1349.31H1781.03V1403.21H1727.23V1349.31Z" stroke="#94A3B8" stroke-width="2.48343"/>
<path d="M1781.03 1349.31H1834.82V1403.21H1781.03V1349.31Z" stroke="#94A3B8" stroke-width="2.48343"/>
<path d="M1834.82 1349.31H1888.62V1403.21H1834.82V1349.31Z" stroke="#94A3B8" stroke-width="2.48343"/>
<path d="M1888.62 1349.31H1942.41V1403.21H1888.62V1349.31Z" stroke="#94A3B8" stroke-width="2.48343"/>
<path d="M1942.41 1349.31H1996.2V1403.21H1942.41V1349.31Z" stroke="#94A3B8" stroke-width="2.48343"/>
<path d="M1996.21 1349.31H2050V1403.21H1996.21V1349.31Z" fill="#94A3B8" fill-opacity="0.3" stroke="#94A3B8" stroke-width="2.48343"/>
<path d="M5.8125 1403.21H59.6067V1457.11H5.8125V1403.21Z" stroke="#94A3B8" stroke-width="2.48343"/>
<path d="M59.6064 1403.21H113.401V1457.11H59.6064V1403.21Z" stroke="#94A3B8" stroke-width="2.48343"/>
<path d="M113.4 1403.21H167.195V1457.11H113.4V1403.21Z" stroke="#94A3B8" stroke-width="2.48343"/>
<path d="M167.196 1403.21H220.991V1457.11H167.196V1403.21Z" stroke="#94A3B8" stroke-width="2.48343"/>
<path d="M220.99 1403.21H274.784V1457.11H220.99V1403.21Z" stroke="#94A3B8" stroke-width="2.48343"/>
<path d="M274.784 1403.21H328.578V1457.11H274.784V1403.21Z" stroke="#94A3B8" stroke-width="2.48343"/>
<path d="M328.578 1403.21H382.372V1457.11H328.578V1403.21Z" fill="#94A3B8" fill-opacity="0.3" stroke="#94A3B8" stroke-width="2.48343"/>
<path d="M382.373 1403.21H436.167V1457.11H382.373V1403.21Z" stroke="#94A3B8" stroke-width="2.48343"/>
<path d="M597.551 1403.21H651.345V1457.11H597.551V1403.21Z" stroke="#94A3B8" stroke-width="2.48343"/>
<path d="M651.344 1403.21H705.138V1457.11H651.344V1403.21Z" stroke="#94A3B8" stroke-width="2.48343"/>
<path d="M705.139 1403.21H758.933V1457.11H705.139V1403.21Z" stroke="#94A3B8" stroke-width="2.48343"/>
<path d="M758.933 1403.21H812.727V1457.11H758.933V1403.21Z" stroke="#94A3B8" stroke-width="2.48343"/>
<path d="M812.728 1403.21H866.522V1457.11H812.728V1403.21Z" stroke="#94A3B8" stroke-width="2.48343"/>
<path d="M866.521 1403.21H920.315V1457.11H866.521V1403.21Z" stroke="#94A3B8" stroke-width="2.48343"/>
<path d="M1673.44 1403.21H1727.24V1457.11H1673.44V1403.21Z" stroke="#94A3B8" stroke-width="2.48343"/>
<path d="M1727.23 1403.21H1781.03V1457.11H1727.23V1403.21Z" fill="#94A3B8" fill-opacity="0.3" stroke="#94A3B8" stroke-width="2.48343"/>
<path d="M1781.03 1403.21H1834.82V1457.11H1781.03V1403.21Z" stroke="#94A3B8" stroke-width="2.48343"/>
<path d="M1834.82 1403.21H1888.62V1457.11H1834.82V1403.21Z" stroke="#94A3B8" stroke-width="2.48343"/>
<path d="M1888.62 1403.21H1942.41V1457.11H1888.62V1403.21Z" stroke="#94A3B8" stroke-width="2.48343"/>
<path d="M1942.41 1403.21H1996.2V1457.11H1942.41V1403.21Z" stroke="#94A3B8" stroke-width="2.48343"/>
<path d="M1996.21 1403.21H2050V1457.11H1996.21V1403.21Z" stroke="#94A3B8" stroke-width="2.48343"/>
<path d="M5.8125 1457.11H59.6067V1511.01H5.8125V1457.11Z" stroke="#94A3B8" stroke-width="2.48343"/>
<path d="M59.6064 1457.11H113.401V1511.01H59.6064V1457.11Z" stroke="#94A3B8" stroke-width="2.48343"/>
<path d="M113.4 1457.11H167.195V1511.01H113.4V1457.11Z" stroke="#94A3B8" stroke-width="2.48343"/>
<path d="M167.196 1457.11H220.991V1511.01H167.196V1457.11Z" stroke="#94A3B8" stroke-width="2.48343"/>
<path d="M220.99 1457.11H274.784V1511.01H220.99V1457.11Z" stroke="#94A3B8" stroke-width="2.48343"/>
<path d="M274.784 1457.11H328.578V1511.01H274.784V1457.11Z" stroke="#94A3B8" stroke-width="2.48343"/>
<path d="M597.551 1457.11H651.345V1511.01H597.551V1457.11Z" stroke="#94A3B8" stroke-width="2.48343"/>
<path d="M1135.49 1457.11H1189.29V1511.01H1135.49V1457.11Z" stroke="#94A3B8" stroke-width="2.48343"/>
<path d="M1189.29 1457.11H1243.08V1511.01H1189.29V1457.11Z" stroke="#94A3B8" stroke-width="2.48343"/>
<path d="M1243.08 1457.11H1296.87V1511.01H1243.08V1457.11Z" stroke="#94A3B8" stroke-width="2.48343"/>
<path d="M1296.88 1457.11H1350.67V1511.01H1296.88V1457.11Z" stroke="#94A3B8" stroke-width="2.48343"/>
<path d="M1350.67 1457.11H1404.46V1511.01H1350.67V1457.11Z" stroke="#94A3B8" stroke-width="2.48343"/>
<path d="M1404.46 1457.11H1458.26V1511.01H1404.46V1457.11Z" stroke="#94A3B8" stroke-width="2.48343"/>
<path d="M1458.26 1457.11H1512.05V1511.01H1458.26V1457.11Z" stroke="#94A3B8" stroke-width="2.48343"/>
<path d="M1781.03 1457.11H1834.82V1511.01H1781.03V1457.11Z" stroke="#94A3B8" stroke-width="2.48343"/>
<path d="M1834.82 1457.11H1888.62V1511.01H1834.82V1457.11Z" stroke="#94A3B8" stroke-width="2.48343"/>
<path d="M1888.62 1457.11H1942.41V1511.01H1888.62V1457.11Z" stroke="#94A3B8" stroke-width="2.48343"/>
<path d="M1942.41 1457.11H1996.2V1511.01H1942.41V1457.11Z" stroke="#94A3B8" stroke-width="2.48343"/>
<path d="M1996.21 1457.11H2050V1511.01H1996.21V1457.11Z" stroke="#94A3B8" stroke-width="2.48343"/>
<path d="M5.8125 1511.01H59.6067V1564.91H5.8125V1511.01Z" stroke="#94A3B8" stroke-width="2.48343"/>
<path d="M59.6064 1511.01H113.401V1564.91H59.6064V1511.01Z" stroke="#94A3B8" stroke-width="2.48343"/>
<path d="M113.4 1511.01H167.195V1564.91H113.4V1511.01Z" stroke="#94A3B8" stroke-width="2.48343"/>
<path d="M167.196 1511.01H220.991V1564.91H167.196V1511.01Z" stroke="#94A3B8" stroke-width="2.48343"/>
<path d="M220.99 1511.01H274.784V1564.91H220.99V1511.01Z" stroke="#94A3B8" stroke-width="2.48343"/>
<path d="M274.784 1511.01H328.578V1564.91H274.784V1511.01Z" stroke="#94A3B8" stroke-width="2.48343"/>
<path d="M328.578 1511.01H382.372V1564.91H328.578V1511.01Z" stroke="#94A3B8" stroke-width="2.48343"/>
<path d="M382.373 1511.01H436.167V1564.91H382.373V1511.01Z" stroke="#94A3B8" stroke-width="2.48343"/>
<path d="M1458.26 1511.01H1512.05V1564.91H1458.26V1511.01Z" stroke="#94A3B8" stroke-width="2.48343"/>
<path d="M1565.85 1511.01H1619.64V1564.91H1565.85V1511.01Z" fill="#94A3B8" fill-opacity="0.3" stroke="#94A3B8" stroke-width="2.48343"/>
<path d="M1619.64 1511.01H1673.43V1564.91H1619.64V1511.01Z" stroke="#94A3B8" stroke-width="2.48343"/>
<path d="M1673.44 1511.01H1727.24V1564.91H1673.44V1511.01Z" stroke="#94A3B8" stroke-width="2.48343"/>
<path d="M1727.23 1511.01H1781.03V1564.91H1727.23V1511.01Z" stroke="#94A3B8" stroke-width="2.48343"/>
<path d="M1781.03 1511.01H1834.82V1564.91H1781.03V1511.01Z" stroke="#94A3B8" stroke-width="2.48343"/>
<path d="M1834.82 1511.01H1888.62V1564.91H1834.82V1511.01Z" fill="#94A3B8" fill-opacity="0.3" stroke="#94A3B8" stroke-width="2.48343"/>
<path d="M1888.62 1511.01H1942.41V1564.91H1888.62V1511.01Z" stroke="#94A3B8" stroke-width="2.48343"/>
<path d="M1942.41 1511.01H1996.2V1564.91H1942.41V1511.01Z" stroke="#94A3B8" stroke-width="2.48343"/>
<path d="M1996.21 1511.01H2050V1564.91H1996.21V1511.01Z" fill="#94A3B8" fill-opacity="0.3" stroke="#94A3B8" stroke-width="2.48343"/>
<path d="M5.8125 1564.91H59.6067V1618.81H5.8125V1564.91Z" stroke="#94A3B8" stroke-width="2.48343"/>
<path d="M59.6064 1564.91H113.401V1618.81H59.6064V1564.91Z" fill="#94A3B8" fill-opacity="0.3" stroke="#94A3B8" stroke-width="2.48343"/>
<path d="M113.4 1564.91H167.195V1618.81H113.4V1564.91Z" stroke="#94A3B8" stroke-width="2.48343"/>
<path d="M328.578 1564.91H382.372V1618.81H328.578V1564.91Z" fill="#94A3B8" fill-opacity="0.3" stroke="#94A3B8" stroke-width="2.48343"/>
<path d="M382.373 1564.91H436.167V1618.81H382.373V1564.91Z" stroke="#94A3B8" stroke-width="2.48343"/>
<path d="M489.96 1564.91H543.754V1618.81H489.96V1564.91Z" stroke="#94A3B8" stroke-width="2.48343"/>
<path d="M1458.26 1564.91H1512.05V1618.81H1458.26V1564.91Z" stroke="#94A3B8" stroke-width="2.48343"/>
<path d="M1512.05 1564.91H1565.85V1618.81H1512.05V1564.91Z" stroke="#94A3B8" stroke-width="2.48343"/>
<path d="M1673.44 1564.91H1727.24V1618.81H1673.44V1564.91Z" stroke="#94A3B8" stroke-width="2.48343"/>
<path d="M1727.23 1564.91H1781.03V1618.81H1727.23V1564.91Z" stroke="#94A3B8" stroke-width="2.48343"/>
<path d="M1781.03 1564.91H1834.82V1618.81H1781.03V1564.91Z" stroke="#94A3B8" stroke-width="2.48343"/>
<path d="M1996.21 1564.91H2050V1618.81H1996.21V1564.91Z" stroke="#94A3B8" stroke-width="2.48343"/>
<path d="M5.8125 1618.81H59.6067V1672.71H5.8125V1618.81Z" stroke="#94A3B8" stroke-width="2.48343"/>
<path d="M59.6064 1618.81H113.401V1672.71H59.6064V1618.81Z" stroke="#94A3B8" stroke-width="2.48343"/>
<path d="M113.4 1618.81H167.195V1672.71H113.4V1618.81Z" stroke="#94A3B8" stroke-width="2.48343"/>
<path d="M167.196 1618.81H220.991V1672.71H167.196V1618.81Z" stroke="#94A3B8" stroke-width="2.48343"/>
<path d="M220.99 1618.81H274.784V1672.71H220.99V1618.81Z" stroke="#94A3B8" stroke-width="2.48343"/>
<path d="M274.784 1618.81H328.578V1672.71H274.784V1618.81Z" stroke="#94A3B8" stroke-width="2.48343"/>
<path d="M543.757 1618.81H597.551V1672.71H543.757V1618.81Z" stroke="#94A3B8" stroke-width="2.48343"/>
<path d="M597.551 1618.81H651.345V1672.71H597.551V1618.81Z" stroke="#94A3B8" stroke-width="2.48343"/>
<path d="M1135.49 1618.81H1189.29V1672.71H1135.49V1618.81Z" stroke="#94A3B8" stroke-width="2.48343"/>
<path d="M1189.29 1618.81H1243.08V1672.71H1189.29V1618.81Z" stroke="#94A3B8" stroke-width="2.48343"/>
<path d="M1243.08 1618.81H1296.87V1672.71H1243.08V1618.81Z" stroke="#94A3B8" stroke-width="2.48343"/>
<path d="M1296.88 1618.81H1350.67V1672.71H1296.88V1618.81Z" stroke="#94A3B8" stroke-width="2.48343"/>
<path d="M1350.67 1618.81H1404.46V1672.71H1350.67V1618.81Z" stroke="#94A3B8" stroke-width="2.48343"/>
<path d="M1404.46 1618.81H1458.26V1672.71H1404.46V1618.81Z" stroke="#94A3B8" stroke-width="2.48343"/>
<path d="M1512.05 1618.81H1565.85V1672.71H1512.05V1618.81Z" stroke="#94A3B8" stroke-width="2.48343"/>
<path d="M1565.85 1618.81H1619.64V1672.71H1565.85V1618.81Z" fill="#94A3B8" fill-opacity="0.3" stroke="#94A3B8" stroke-width="2.48343"/>
<path d="M1781.03 1618.81H1834.82V1672.71H1781.03V1618.81Z" stroke="#94A3B8" stroke-width="2.48343"/>
<path d="M1834.82 1618.81H1888.62V1672.71H1834.82V1618.81Z" stroke="#94A3B8" stroke-width="2.48343"/>
<path d="M1888.62 1618.81H1942.41V1672.71H1888.62V1618.81Z" stroke="#94A3B8" stroke-width="2.48343"/>
<path d="M1942.41 1618.81H1996.2V1672.71H1942.41V1618.81Z" stroke="#94A3B8" stroke-width="2.48343"/>
<path d="M1996.21 1618.81H2050V1672.71H1996.21V1618.81Z" stroke="#94A3B8" stroke-width="2.48343"/>
<path d="M5.8125 1672.71H59.6067V1726.61H5.8125V1672.71Z" stroke="#94A3B8" stroke-width="2.48343"/>
<path d="M59.6064 1672.71H113.401V1726.61H59.6064V1672.71Z" stroke="#94A3B8" stroke-width="2.48343"/>
<path d="M113.4 1672.71H167.195V1726.61H113.4V1672.71Z" stroke="#94A3B8" stroke-width="2.48343"/>
<path d="M167.196 1672.71H220.991V1726.61H167.196V1672.71Z" stroke="#94A3B8" stroke-width="2.48343"/>
<path d="M220.99 1672.71H274.784V1726.61H220.99V1672.71Z" stroke="#94A3B8" stroke-width="2.48343"/>
<path d="M274.784 1672.71H328.578V1726.61H274.784V1672.71Z" stroke="#94A3B8" stroke-width="2.48343"/>
<path d="M328.578 1672.71H382.372V1726.61H328.578V1672.71Z" stroke="#94A3B8" stroke-width="2.48343"/>
<path d="M382.373 1672.71H436.167V1726.61H382.373V1672.71Z" stroke="#94A3B8" stroke-width="2.48343"/>
<path d="M1619.64 1672.71H1673.43V1726.61H1619.64V1672.71Z" stroke="#94A3B8" stroke-width="2.48343"/>
<path d="M1673.44 1672.71H1727.24V1726.61H1673.44V1672.71Z" stroke="#94A3B8" stroke-width="2.48343"/>
<path d="M1727.23 1672.71H1781.03V1726.61H1727.23V1672.71Z" stroke="#94A3B8" stroke-width="2.48343"/>
<path d="M1781.03 1672.71H1834.82V1726.61H1781.03V1672.71Z" stroke="#94A3B8" stroke-width="2.48343"/>
<path d="M1834.82 1672.71H1888.62V1726.61H1834.82V1672.71Z" fill="#94A3B8" fill-opacity="0.3" stroke="#94A3B8" stroke-width="2.48343"/>
<path d="M1888.62 1672.71H1942.41V1726.61H1888.62V1672.71Z" stroke="#94A3B8" stroke-width="2.48343"/>
<path d="M1942.41 1672.71H1996.2V1726.61H1942.41V1672.71Z" stroke="#94A3B8" stroke-width="2.48343"/>
<path d="M1996.21 1672.71H2050V1726.61H1996.21V1672.71Z" stroke="#94A3B8" stroke-width="2.48343"/>
<path d="M5.8125 1726.6H59.6067V1780.5H5.8125V1726.6Z" fill="#94A3B8" fill-opacity="0.3" stroke="#94A3B8" stroke-width="2.48343"/>
<path d="M59.6064 1726.6H113.401V1780.5H59.6064V1726.6Z" stroke="#94A3B8" stroke-width="2.48343"/>
<path d="M113.4 1726.6H167.195V1780.5H113.4V1726.6Z" stroke="#94A3B8" stroke-width="2.48343"/>
<path d="M328.578 1726.6H382.372V1780.5H328.578V1726.6Z" fill="#94A3B8" fill-opacity="0.3" stroke="#94A3B8" stroke-width="2.48343"/>
<path d="M382.373 1726.6H436.167V1780.5H382.373V1726.6Z" stroke="#94A3B8" stroke-width="2.48343"/>
<path d="M489.96 1726.6H543.754V1780.5H489.96V1726.6Z" stroke="#94A3B8" stroke-width="2.48343"/>
<path d="M543.757 1726.6H597.551V1780.5H543.757V1726.6Z" stroke="#94A3B8" stroke-width="2.48343"/>
<path d="M1565.85 1726.6H1619.64V1780.5H1565.85V1726.6Z" stroke="#94A3B8" stroke-width="2.48343"/>
<path d="M1619.64 1726.6H1673.43V1780.5H1619.64V1726.6Z" fill="#94A3B8" fill-opacity="0.3" stroke="#94A3B8" stroke-width="2.48343"/>
<path d="M1673.44 1726.6H1727.24V1780.5H1673.44V1726.6Z" stroke="#94A3B8" stroke-width="2.48343"/>
<path d="M1727.23 1726.6H1781.03V1780.5H1727.23V1726.6Z" stroke="#94A3B8" stroke-width="2.48343"/>
<path d="M1781.03 1726.6H1834.82V1780.5H1781.03V1726.6Z" stroke="#94A3B8" stroke-width="2.48343"/>
<path d="M1996.21 1726.6H2050V1780.5H1996.21V1726.6Z" stroke="#94A3B8" stroke-width="2.48343"/>
<path d="M5.8125 1780.5H59.6067V1834.4H5.8125V1780.5Z" stroke="#94A3B8" stroke-width="2.48343"/>
<path d="M59.6064 1780.5H113.401V1834.4H59.6064V1780.5Z" stroke="#94A3B8" stroke-width="2.48343"/>
<path d="M113.4 1780.5H167.195V1834.4H113.4V1780.5Z" stroke="#94A3B8" stroke-width="2.48343"/>
<path d="M167.196 1780.5H220.991V1834.4H167.196V1780.5Z" stroke="#94A3B8" stroke-width="2.48343"/>
<path d="M220.99 1780.5H274.784V1834.4H220.99V1780.5Z" stroke="#94A3B8" stroke-width="2.48343"/>
<path d="M274.784 1780.5H328.578V1834.4H274.784V1780.5Z" fill="#94A3B8" fill-opacity="0.3" stroke="#94A3B8" stroke-width="2.48343"/>
<path d="M543.757 1780.5H597.551V1834.4H543.757V1780.5Z" stroke="#94A3B8" stroke-width="2.48343"/>
<path d="M597.551 1780.5H651.345V1834.4H597.551V1780.5Z" stroke="#94A3B8" stroke-width="2.48343"/>
<path d="M1135.49 1780.5H1189.29V1834.4H1135.49V1780.5Z" stroke="#94A3B8" stroke-width="2.48343"/>
<path d="M1189.29 1780.5H1243.08V1834.4H1189.29V1780.5Z" stroke="#94A3B8" stroke-width="2.48343"/>
<path d="M1243.08 1780.5H1296.87V1834.4H1243.08V1780.5Z" stroke="#94A3B8" stroke-width="2.48343"/>
<path d="M1296.88 1780.5H1350.67V1834.4H1296.88V1780.5Z" stroke="#94A3B8" stroke-width="2.48343"/>
<path d="M1350.67 1780.5H1404.46V1834.4H1350.67V1780.5Z" stroke="#94A3B8" stroke-width="2.48343"/>
<path d="M1404.46 1780.5H1458.26V1834.4H1404.46V1780.5Z" stroke="#94A3B8" stroke-width="2.48343"/>
<path d="M1458.26 1780.5H1512.05V1834.4H1458.26V1780.5Z" stroke="#94A3B8" stroke-width="2.48343"/>
<path d="M1512.05 1780.5H1565.85V1834.4H1512.05V1780.5Z" stroke="#94A3B8" stroke-width="2.48343"/>
<path d="M1834.82 1780.5H1888.62V1834.4H1834.82V1780.5Z" stroke="#94A3B8" stroke-width="2.48343"/>
<path d="M1888.62 1780.5H1942.41V1834.4H1888.62V1780.5Z" stroke="#94A3B8" stroke-width="2.48343"/>
<path d="M1942.41 1780.5H1996.2V1834.4H1942.41V1780.5Z" stroke="#94A3B8" stroke-width="2.48343"/>
<path d="M1996.21 1780.5H2050V1834.4H1996.21V1780.5Z" stroke="#94A3B8" stroke-width="2.48343"/>
<path d="M5.8125 1834.4H59.6067V1888.3H5.8125V1834.4Z" stroke="#94A3B8" stroke-width="2.48343"/>
<path d="M59.6064 1834.4H113.401V1888.3H59.6064V1834.4Z" stroke="#94A3B8" stroke-width="2.48343"/>
<path d="M113.4 1834.4H167.195V1888.3H113.4V1834.4Z" stroke="#94A3B8" stroke-width="2.48343"/>
<path d="M167.196 1834.4H220.991V1888.3H167.196V1834.4Z" fill="#94A3B8" fill-opacity="0.3" stroke="#94A3B8" stroke-width="2.48343"/>
<path d="M220.99 1834.4H274.784V1888.3H220.99V1834.4Z" stroke="#94A3B8" stroke-width="2.48343"/>
<path d="M274.784 1834.4H328.578V1888.3H274.784V1834.4Z" stroke="#94A3B8" stroke-width="2.48343"/>
<path d="M328.578 1834.4H382.372V1888.3H328.578V1834.4Z" stroke="#94A3B8" stroke-width="2.48343"/>
<path d="M382.373 1834.4H436.167V1888.3H382.373V1834.4Z" stroke="#94A3B8" stroke-width="2.48343"/>
<path d="M543.757 1834.4H597.551V1888.3H543.757V1834.4Z" stroke="#94A3B8" stroke-width="2.48343"/>
<path d="M1512.05 1834.4H1565.85V1888.3H1512.05V1834.4Z" stroke="#94A3B8" stroke-width="2.48343"/>
<path d="M1565.85 1834.4H1619.64V1888.3H1565.85V1834.4Z" stroke="#94A3B8" stroke-width="2.48343"/>
<path d="M1834.82 1834.4H1888.62V1888.3H1834.82V1834.4Z" stroke="#94A3B8" stroke-width="2.48343"/>
<path d="M1888.62 1834.4H1942.41V1888.3H1888.62V1834.4Z" stroke="#94A3B8" stroke-width="2.48343"/>
<path d="M1942.41 1834.4H1996.2V1888.3H1942.41V1834.4Z" fill="#94A3B8" fill-opacity="0.3" stroke="#94A3B8" stroke-width="2.48343"/>
<path d="M1996.21 1834.4H2050V1888.3H1996.21V1834.4Z" stroke="#94A3B8" stroke-width="2.48343"/>
<path d="M5.8125 1888.3H59.6067V1942.2H5.8125V1888.3Z" stroke="#94A3B8" stroke-width="2.48343"/>
<path d="M167.196 1888.3H220.991V1942.2H167.196V1888.3Z" stroke="#94A3B8" stroke-width="2.48343"/>
<path d="M328.578 1888.3H382.372V1942.2H328.578V1888.3Z" stroke="#94A3B8" stroke-width="2.48343"/>
<path d="M382.373 1888.3H436.167V1942.2H382.373V1888.3Z" fill="#94A3B8" fill-opacity="0.3" stroke="#94A3B8" stroke-width="2.48343"/>
<path d="M597.551 1888.3H651.345V1942.2H597.551V1888.3Z" stroke="#94A3B8" stroke-width="2.48343"/>
<path d="M651.344 1888.3H705.138V1942.2H651.344V1888.3Z" stroke="#94A3B8" stroke-width="2.48343"/>
<path d="M705.139 1888.3H758.933V1942.2H705.139V1888.3Z" stroke="#94A3B8" stroke-width="2.48343"/>
<path d="M758.933 1888.3H812.727V1942.2H758.933V1888.3Z" fill="#94A3B8" fill-opacity="0.3" stroke="#94A3B8" stroke-width="2.48343"/>
<path d="M812.728 1888.3H866.522V1942.2H812.728V1888.3Z" stroke="#94A3B8" stroke-width="2.48343"/>
<path d="M866.521 1888.3H920.315V1942.2H866.521V1888.3Z" stroke="#94A3B8" stroke-width="2.48343"/>
<path d="M1458.26 1888.3H1512.05V1942.2H1458.26V1888.3Z" stroke="#94A3B8" stroke-width="2.48343"/>
<path opacity="0.99" d="M1512.05 1888.3H1565.85V1942.2H1512.05V1888.3Z" stroke="#94A3B8" stroke-width="2.48343"/>
<path d="M1673.44 1888.3H1727.24V1942.2H1673.44V1888.3Z" stroke="#94A3B8" stroke-width="2.48343"/>
<path d="M1727.23 1888.3H1781.03V1942.2H1727.23V1888.3Z" stroke="#94A3B8" stroke-width="2.48343"/>
<path d="M1781.03 1888.3H1834.82V1942.2H1781.03V1888.3Z" stroke="#94A3B8" stroke-width="2.48343"/>
<path d="M1996.21 1888.3H2050V1942.2H1996.21V1888.3Z" stroke="#94A3B8" stroke-width="2.48343"/>
<path d="M5.8125 1942.2H59.6067V1996.1H5.8125V1942.2Z" stroke="#94A3B8" stroke-width="2.48343"/>
<path d="M59.6064 1942.2H113.401V1996.1H59.6064V1942.2Z" stroke="#94A3B8" stroke-width="2.48343"/>
<path d="M113.4 1942.2H167.195V1996.1H113.4V1942.2Z" stroke="#94A3B8" stroke-width="2.48343"/>
<path d="M167.196 1942.2H220.991V1996.1H167.196V1942.2Z" stroke="#94A3B8" stroke-width="2.48343"/>
<path d="M220.99 1942.2H274.784V1996.1H220.99V1942.2Z" stroke="#94A3B8" stroke-width="2.48343"/>
<path d="M758.933 1942.2H812.727V1996.1H758.933V1942.2Z" stroke="#94A3B8" stroke-width="2.48343"/>
<path d="M812.728 1942.2H866.522V1996.1H812.728V1942.2Z" stroke="#94A3B8" stroke-width="2.48343"/>
<path d="M866.521 1942.2H920.315V1996.1H866.521V1942.2Z" stroke="#94A3B8" stroke-width="2.48343"/>
<path d="M1243.08 1942.2H1296.87V1996.1H1243.08V1942.2Z" stroke="#94A3B8" stroke-width="2.48343"/>
<path d="M1296.88 1942.2H1350.67V1996.1H1296.88V1942.2Z" stroke="#94A3B8" stroke-width="2.48343"/>
<path d="M1350.67 1942.2H1404.46V1996.1H1350.67V1942.2Z" stroke="#94A3B8" stroke-width="2.48343"/>
<path d="M1404.46 1942.2H1458.26V1996.1H1404.46V1942.2Z" stroke="#94A3B8" stroke-width="2.48343"/>
<path d="M1458.26 1942.2H1512.05V1996.1H1458.26V1942.2Z" fill="#94A3B8" fill-opacity="0.3" stroke="#94A3B8" stroke-width="2.48343"/>
<path d="M1512.05 1942.2H1565.85V1996.1H1512.05V1942.2Z" stroke="#94A3B8" stroke-width="2.48343"/>
<path d="M1565.85 1942.2H1619.64V1996.1H1565.85V1942.2Z" stroke="#94A3B8" stroke-width="2.48343"/>
<path d="M1673.44 1942.2H1727.24V1996.1H1673.44V1942.2Z" stroke="#94A3B8" stroke-width="2.48343"/>
<path d="M1727.23 1942.2H1781.03V1996.1H1727.23V1942.2Z" stroke="#94A3B8" stroke-width="2.48343"/>
<path d="M1781.03 1942.2H1834.82V1996.1H1781.03V1942.2Z" stroke="#94A3B8" stroke-width="2.48343"/>
<path d="M1834.82 1942.2H1888.62V1996.1H1834.82V1942.2Z" fill="#94A3B8" fill-opacity="0.3" stroke="#94A3B8" stroke-width="2.48343"/>
<path d="M1888.62 1942.2H1942.41V1996.1H1888.62V1942.2Z" stroke="#94A3B8" stroke-width="2.48343"/>
<path d="M1942.41 1942.2H1996.2V1996.1H1942.41V1942.2Z" stroke="#94A3B8" stroke-width="2.48343"/>
<path d="M1996.21 1942.2H2050V1996.1H1996.21V1942.2Z" stroke="#94A3B8" stroke-width="2.48343"/>
<path d="M5.8125 1996.1H59.6067V2050H5.8125V1996.1Z" stroke="#94A3B8" stroke-width="2.48343"/>
<path d="M59.6064 1996.1H113.401V2050H59.6064V1996.1Z" stroke="#94A3B8" stroke-width="2.48343"/>
<path d="M113.4 1996.1H167.195V2050H113.4V1996.1Z" fill="#94A3B8" fill-opacity="0.3" stroke="#94A3B8" stroke-width="2.48343"/>
<path d="M167.196 1996.1H220.991V2050H167.196V1996.1Z" stroke="#94A3B8" stroke-width="2.48343"/>
<path d="M220.99 1996.1H274.784V2050H220.99V1996.1Z" stroke="#94A3B8" stroke-width="2.48343"/>
<path d="M274.784 1996.1H328.578V2050H274.784V1996.1Z" stroke="#94A3B8" stroke-width="2.48343"/>
<path d="M328.578 1996.1H382.372V2050H328.578V1996.1Z" stroke="#94A3B8" stroke-width="2.48343"/>
<path d="M382.373 1996.1H436.167V2050H382.373V1996.1Z" stroke="#94A3B8" stroke-width="2.48343"/>
<path d="M436.17 1996.1H489.964V2050H436.17V1996.1Z" stroke="#94A3B8" stroke-width="2.48343"/>
<path d="M489.96 1996.1H543.754V2050H489.96V1996.1Z" stroke="#94A3B8" stroke-width="2.48343"/>
<path d="M543.757 1996.1H597.551V2050H543.757V1996.1Z" stroke="#94A3B8" stroke-width="2.48343"/>
<path d="M597.551 1996.1H651.345V2050H597.551V1996.1Z" stroke="#94A3B8" stroke-width="2.48343"/>
<path d="M651.344 1996.1H705.138V2050H651.344V1996.1Z" fill="#94A3B8" fill-opacity="0.3" stroke="#94A3B8" stroke-width="2.48343"/>
<path d="M1135.49 1996.1H1189.29V2050H1135.49V1996.1Z" stroke="#94A3B8" stroke-width="2.48343"/>
<path d="M1189.29 1996.1H1243.08V2050H1189.29V1996.1Z" stroke="#94A3B8" stroke-width="2.48343"/>
<path d="M1243.08 1996.1H1296.87V2050H1243.08V1996.1Z" stroke="#94A3B8" stroke-width="2.48343"/>
<path d="M1296.88 1996.1H1350.67V2050H1296.88V1996.1Z" stroke="#94A3B8" stroke-width="2.48343"/>
<path d="M1350.67 1996.1H1404.46V2050H1350.67V1996.1Z" fill="#94A3B8" fill-opacity="0.3" stroke="#94A3B8" stroke-width="2.48343"/>
<path d="M1404.46 1996.1H1458.26V2050H1404.46V1996.1Z" stroke="#94A3B8" stroke-width="2.48343"/>
<path d="M1458.26 1996.1H1512.05V2050H1458.26V1996.1Z" stroke="#94A3B8" stroke-width="2.48343"/>
<path d="M1512.05 1996.1H1565.85V2050H1512.05V1996.1Z" stroke="#94A3B8" stroke-width="2.48343"/>
<path d="M1565.85 1996.1H1619.64V2050H1565.85V1996.1Z" stroke="#94A3B8" stroke-width="2.48343"/>
<path d="M1619.64 1996.1H1673.43V2050H1619.64V1996.1Z" stroke="#94A3B8" stroke-width="2.48343"/>
<path d="M1673.44 1996.1H1727.24V2050H1673.44V1996.1Z" stroke="#94A3B8" stroke-width="2.48343"/>
<path d="M1727.23 1996.1H1781.03V2050H1727.23V1996.1Z" stroke="#94A3B8" stroke-width="2.48343"/>
<path d="M1781.03 1996.1H1834.82V2050H1781.03V1996.1Z" stroke="#94A3B8" stroke-width="2.48343"/>
<path d="M1834.82 1996.1H1888.62V2050H1834.82V1996.1Z" stroke="#94A3B8" stroke-width="2.48343"/>
<path d="M1888.62 1996.1H1942.41V2050H1888.62V1996.1Z" stroke="#94A3B8" stroke-width="2.48343"/>
<path d="M1942.41 1996.1H1996.2V2050H1942.41V1996.1Z" stroke="#94A3B8" stroke-width="2.48343"/>
<path d="M1996.21 1996.1H2050V2050H1996.21V1996.1Z" stroke="#94A3B8" stroke-width="2.48343"/>
</g>
</svg>
