<svg xmlns="http://www.w3.org/2000/svg" width="1202" height="802" fill="none"><path fill="#fff" d="M1 1h1200v800H1z"/><path stroke="#F1F5F9" stroke-width="1.455" d="M2.065 1h31.55v32.006H2.066V1ZM33.615 1h31.551v32.006h-31.55V1Z"/><path fill="#F1F5F9" fill-opacity=".3" stroke="#F1F5F9" stroke-width="1.455" d="M65.166 1h31.55v32.006h-31.55V1Z"/><path stroke="#F1F5F9" stroke-width="1.455" d="M96.717 1h31.551v32.006h-31.55V1ZM128.268 1h31.551v32.006h-31.551V1Z"/><path stroke="#F1F5F9" stroke-width="1.455" d="M159.818 1h31.551v32.006h-31.551V1ZM191.37 1h31.551v32.006H191.37V1ZM222.921 1h31.551v32.006h-31.551V1Z"/><path fill="#F1F5F9" fill-opacity=".3" stroke="#F1F5F9" stroke-width="1.455" d="M254.473 1h31.551v32.006h-31.551V1Z"/><path stroke="#F1F5F9" stroke-width="1.455" d="M286.021 1h31.551v32.006h-31.551V1ZM317.574 1h31.551v32.006h-31.551V1Z"/><path stroke="#F1F5F9" stroke-width="1.455" d="M349.124 1h31.551v32.006h-31.551V1ZM664.633 1h31.551v32.006h-31.551V1Z"/><path stroke="#F1F5F9" stroke-width="1.455" d="M696.184 1h31.55v32.006h-31.55V1ZM727.734 1h31.551v32.006h-31.551V1Z"/><path stroke="#F1F5F9" stroke-width="1.455" d="M759.285 1h31.551v32.006h-31.551V1Z"/><path fill="#F1F5F9" fill-opacity=".3" stroke="#F1F5F9" stroke-width="1.455" d="M790.837 1h31.551v32.006h-31.551V1Z"/><path stroke="#F1F5F9" stroke-width="1.455" d="M822.388 1h31.551v32.006h-31.551V1Z"/><path stroke="#F1F5F9" stroke-width="1.455" d="M853.938 1h31.551v32.006h-31.551V1Z"/><path fill="#F1F5F9" fill-opacity=".3" stroke="#F1F5F9" stroke-width="1.455" d="M885.489 1h31.551v32.006h-31.551V1Z"/><path stroke="#F1F5F9" stroke-width="1.455" d="M917.04 1h31.55v32.006h-31.55V1ZM948.59 1h31.551v32.006H948.59V1ZM980.145 1h31.555v32.006h-31.555V1ZM1011.7 1h31.55v32.006h-31.55V1ZM1043.25 1h31.55v32.006h-31.55V1ZM1074.8 1h31.55v32.006h-31.55V1ZM1106.35 1h31.55v32.006h-31.55V1ZM1137.9 1h31.55v32.006h-31.55V1Z"/><path fill="#F1F5F9" fill-opacity=".3" stroke="#F1F5F9" stroke-width="1.455" d="M1169.45 1H1201v32.006h-31.55V1Z"/><path stroke="#F1F5F9" stroke-width="1.455" d="M2.065 33.006h31.55V65.01H2.066V33.006ZM33.615 33.006h31.551V65.01h-31.55V33.006ZM65.166 33.006h31.55V65.01h-31.55V33.006ZM96.717 33.006h31.551V65.01h-31.55V33.006ZM128.268 33.006h31.551V65.01h-31.551V33.006Z"/><path stroke="#F1F5F9" stroke-width="1.455" d="M159.818 33.006h31.551V65.01h-31.551V33.006Z"/><path fill="#F1F5F9" fill-opacity=".3" stroke="#F1F5F9" stroke-width="1.455" d="M191.37 33.006h31.551V65.01H191.37V33.006Z"/><path stroke="#F1F5F9" stroke-width="1.455" d="M222.921 33.006h31.551V65.01h-31.551V33.006ZM349.124 33.006h31.551V65.01h-31.551V33.006ZM380.675 33.006h31.551V65.01h-31.551V33.006ZM412.227 33.006h31.55V65.01h-31.55V33.006ZM443.777 33.006h31.551V65.01h-31.551V33.006ZM475.329 33.006h31.55V65.01h-31.55V33.006Z"/><path stroke="#F1F5F9" stroke-width="1.455" d="M506.878 33.006h31.551V65.01h-31.551V33.006ZM980.145 33.006h31.555V65.01h-31.555V33.006Z"/><path fill="#F1F5F9" fill-opacity=".3" stroke="#F1F5F9" stroke-width="1.455" d="M1011.7 33.006h31.55V65.01h-31.55V33.006Z"/><path stroke="#F1F5F9" stroke-width="1.455" d="M1043.25 33.006h31.55V65.01h-31.55V33.006ZM1074.8 33.006h31.55V65.01h-31.55V33.006ZM1106.35 33.006h31.55V65.01h-31.55V33.006ZM1137.9 33.006h31.55V65.01h-31.55V33.006ZM1169.45 33.006H1201V65.01h-31.55V33.006ZM2.065 65.011h31.55v32.006H2.066V65.012ZM33.615 65.011h31.551v32.006h-31.55V65.012ZM65.166 65.011h31.55v32.006h-31.55V65.012ZM96.717 65.011h31.551v32.006h-31.55V65.012ZM128.268 65.011h31.551v32.006h-31.551V65.012Z"/><path stroke="#F1F5F9" stroke-width="1.455" d="M159.818 65.011h31.551v32.006h-31.551V65.012ZM349.124 65.011h31.551v32.006h-31.551V65.012ZM664.633 65.011h31.551v32.006h-31.551V65.012Z"/><path stroke="#F1F5F9" stroke-width="1.455" d="M696.184 65.011h31.55v32.006h-31.55V65.012ZM727.734 65.011h31.551v32.006h-31.551V65.012Z"/><path stroke="#F1F5F9" stroke-width="1.455" d="M759.285 65.011h31.551v32.006h-31.551V65.012ZM790.837 65.011h31.551v32.006h-31.551V65.012ZM822.388 65.011h31.551v32.006h-31.551V65.012Z"/><path stroke="#F1F5F9" stroke-width="1.455" d="M853.938 65.011h31.551v32.006h-31.551V65.012ZM1043.25 65.011h31.55v32.006h-31.55V65.012ZM1074.8 65.011h31.55v32.006h-31.55V65.012ZM1106.35 65.011h31.55v32.006h-31.55V65.012ZM1137.9 65.011h31.55v32.006h-31.55V65.012ZM1169.45 65.011H1201v32.006h-31.55V65.012ZM2.065 97.017h31.55v32.006H2.066V97.017ZM33.615 97.017h31.551v32.006h-31.55V97.017ZM65.166 97.017h31.55v32.006h-31.55V97.017ZM96.717 97.017h31.551v32.006h-31.55V97.017ZM128.268 97.017h31.551v32.006h-31.551V97.017Z"/><path stroke="#F1F5F9" stroke-width="1.455" d="M159.818 97.017h31.551v32.006h-31.551V97.017ZM191.37 97.017h31.551v32.006H191.37V97.017ZM222.921 97.017h31.551v32.006h-31.551V97.017ZM853.938 97.017h31.551v32.006h-31.551V97.017Z"/><path fill="#F1F5F9" fill-opacity=".3" stroke="#F1F5F9" stroke-width="1.455" d="M917.04 97.017h31.55v32.006h-31.55V97.017Z"/><path stroke="#F1F5F9" stroke-width="1.455" d="M948.59 97.017h31.551v32.006H948.59V97.017ZM980.145 97.017h31.555v32.006h-31.555V97.017ZM1011.7 97.017h31.55v32.006h-31.55V97.017ZM1043.25 97.017h31.55v32.006h-31.55V97.017Z"/><path fill="#F1F5F9" fill-opacity=".3" stroke="#F1F5F9" stroke-width="1.455" d="M1074.8 97.017h31.55v32.006h-31.55V97.017Z"/><path stroke="#F1F5F9" stroke-width="1.455" d="M1106.35 97.017h31.55v32.006h-31.55V97.017ZM1137.9 97.017h31.55v32.006h-31.55V97.017Z"/><path fill="#F1F5F9" fill-opacity=".3" stroke="#F1F5F9" stroke-width="1.455" d="M1169.45 97.017H1201v32.006h-31.55V97.017Z"/><path stroke="#F1F5F9" stroke-width="1.455" d="M2.065 129.023h31.55v32.006H2.066v-32.006Z"/><path fill="#F1F5F9" fill-opacity=".3" stroke="#F1F5F9" stroke-width="1.455" d="M33.615 129.023h31.551v32.006h-31.55v-32.006Z"/><path stroke="#F1F5F9" stroke-width="1.455" d="M65.166 129.023h31.55v32.006h-31.55v-32.006Z"/><path fill="#F1F5F9" fill-opacity=".3" stroke="#F1F5F9" stroke-width="1.455" d="M191.37 129.023h31.551v32.006H191.37v-32.006Z"/><path stroke="#F1F5F9" stroke-width="1.455" d="M222.921 129.023h31.551v32.006h-31.551v-32.006ZM286.021 129.023h31.551v32.006h-31.551v-32.006ZM853.938 129.023h31.551v32.006h-31.551v-32.006ZM885.489 129.023h31.551v32.006h-31.551v-32.006ZM980.145 129.023h31.555v32.006h-31.555v-32.006ZM1011.7 129.023h31.55v32.006h-31.55v-32.006ZM1043.25 129.023h31.55v32.006h-31.55v-32.006ZM1169.45 129.023H1201v32.006h-31.55v-32.006ZM2.065 161.028h31.55v32.006H2.066v-32.006ZM33.615 161.028h31.551v32.006h-31.55v-32.006ZM65.166 161.028h31.55v32.006h-31.55v-32.006ZM96.717 161.028h31.551v32.006h-31.55v-32.006ZM128.268 161.028h31.551v32.006h-31.551v-32.006Z"/><path stroke="#F1F5F9" stroke-width="1.455" d="M159.818 161.028h31.551v32.006h-31.551v-32.006ZM317.574 161.028h31.551v32.006h-31.551v-32.006Z"/><path stroke="#F1F5F9" stroke-width="1.455" d="M349.124 161.028h31.551v32.006h-31.551v-32.006ZM664.633 161.028h31.551v32.006h-31.551v-32.006Z"/><path stroke="#F1F5F9" stroke-width="1.455" d="M696.184 161.028h31.55v32.006h-31.55v-32.006ZM727.734 161.028h31.551v32.006h-31.551v-32.006Z"/><path stroke="#F1F5F9" stroke-width="1.455" d="M759.285 161.028h31.551v32.006h-31.551v-32.006ZM790.837 161.028h31.551v32.006h-31.551v-32.006ZM822.388 161.028h31.551v32.006h-31.551v-32.006ZM885.489 161.028h31.551v32.006h-31.551v-32.006Z"/><path fill="#F1F5F9" fill-opacity=".3" stroke="#F1F5F9" stroke-width="1.455" d="M917.04 161.028h31.55v32.006h-31.55v-32.006Z"/><path stroke="#F1F5F9" stroke-width="1.455" d="M1043.25 161.028h31.55v32.006h-31.55v-32.006ZM1074.8 161.028h31.55v32.006h-31.55v-32.006ZM1106.35 161.028h31.55v32.006h-31.55v-32.006ZM1137.9 161.028h31.55v32.006h-31.55v-32.006ZM1169.45 161.028H1201v32.006h-31.55v-32.006ZM2.065 193.034h31.55v32.006H2.066v-32.006ZM33.615 193.034h31.551v32.006h-31.55v-32.006ZM65.166 193.034h31.55v32.006h-31.55v-32.006ZM96.717 193.034h31.551v32.006h-31.55v-32.006ZM128.268 193.034h31.551v32.006h-31.551v-32.006Z"/><path stroke="#F1F5F9" stroke-width="1.455" d="M159.818 193.034h31.551v32.006h-31.551v-32.006ZM191.37 193.034h31.551v32.006H191.37v-32.006ZM222.921 193.034h31.551v32.006h-31.551v-32.006ZM948.59 193.034h31.551v32.006H948.59v-32.006ZM980.145 193.034h31.555v32.006h-31.555v-32.006ZM1011.7 193.034h31.55v32.006h-31.55v-32.006ZM1043.25 193.034h31.55v32.006h-31.55v-32.006Z"/><path fill="#F1F5F9" fill-opacity=".3" stroke="#F1F5F9" stroke-width="1.455" d="M1074.8 193.034h31.55v32.006h-31.55v-32.006Z"/><path stroke="#F1F5F9" stroke-width="1.455" d="M1106.35 193.034h31.55v32.006h-31.55v-32.006ZM1137.9 193.034h31.55v32.006h-31.55v-32.006ZM1169.45 193.034H1201v32.006h-31.55v-32.006Z"/><path fill="#F1F5F9" fill-opacity=".3" stroke="#F1F5F9" stroke-width="1.455" d="M2.065 225.04h31.55v32.006H2.066V225.04Z"/><path stroke="#F1F5F9" stroke-width="1.455" d="M33.615 225.04h31.551v32.006h-31.55V225.04ZM65.166 225.04h31.55v32.006h-31.55V225.04Z"/><path fill="#F1F5F9" fill-opacity=".3" stroke="#F1F5F9" stroke-width="1.455" d="M191.37 225.04h31.551v32.006H191.37V225.04Z"/><path stroke="#F1F5F9" stroke-width="1.455" d="M222.921 225.04h31.551v32.006h-31.551V225.04ZM286.021 225.04h31.551v32.006h-31.551V225.04ZM317.574 225.04h31.551v32.006h-31.551V225.04ZM917.04 225.04h31.55v32.006h-31.55V225.04Z"/><path fill="#F1F5F9" fill-opacity=".3" stroke="#F1F5F9" stroke-width="1.455" d="M948.59 225.04h31.551v32.006H948.59V225.04Z"/><path stroke="#F1F5F9" stroke-width="1.455" d="M980.145 225.04h31.555v32.006h-31.555V225.04ZM1011.7 225.04h31.55v32.006h-31.55V225.04ZM1043.25 225.04h31.55v32.006h-31.55V225.04ZM1169.45 225.04H1201v32.006h-31.55V225.04ZM2.065 257.046h31.55v32.006H2.066v-32.006ZM33.615 257.046h31.551v32.006h-31.55v-32.006ZM65.166 257.046h31.55v32.006h-31.55v-32.006ZM96.717 257.046h31.551v32.006h-31.55v-32.006ZM128.268 257.046h31.551v32.006h-31.551v-32.006Z"/><path fill="#F1F5F9" fill-opacity=".3" stroke="#F1F5F9" stroke-width="1.455" d="M159.818 257.046h31.551v32.006h-31.551v-32.006Z"/><path stroke="#F1F5F9" stroke-width="1.455" d="M317.574 257.046h31.551v32.006h-31.551v-32.006Z"/><path stroke="#F1F5F9" stroke-width="1.455" d="M349.124 257.046h31.551v32.006h-31.551v-32.006ZM664.633 257.046h31.551v32.006h-31.551v-32.006Z"/><path stroke="#F1F5F9" stroke-width="1.455" d="M696.184 257.046h31.55v32.006h-31.55v-32.006ZM727.734 257.046h31.551v32.006h-31.551v-32.006Z"/><path stroke="#F1F5F9" stroke-width="1.455" d="M759.285 257.046h31.551v32.006h-31.551v-32.006ZM790.837 257.046h31.551v32.006h-31.551v-32.006ZM822.388 257.046h31.551v32.006h-31.551v-32.006Z"/><path stroke="#F1F5F9" stroke-width="1.455" d="M853.938 257.046h31.551v32.006h-31.551v-32.006ZM885.489 257.046h31.551v32.006h-31.551v-32.006ZM1074.8 257.046h31.55v32.006h-31.55v-32.006ZM1106.35 257.046h31.55v32.006h-31.55v-32.006ZM1137.9 257.046h31.55v32.006h-31.55v-32.006ZM1169.45 257.046H1201v32.006h-31.55v-32.006ZM2.065 289.052h31.55v32.005H2.066v-32.005ZM33.615 289.052h31.551v32.005h-31.55v-32.005ZM65.166 289.052h31.55v32.005h-31.55v-32.005Z"/><path fill="#F1F5F9" fill-opacity=".3" stroke="#F1F5F9" stroke-width="1.455" d="M96.717 289.052h31.551v32.005h-31.55v-32.005Z"/><path stroke="#F1F5F9" stroke-width="1.455" d="M128.268 289.052h31.551v32.005h-31.551v-32.005Z"/><path stroke="#F1F5F9" stroke-width="1.455" d="M159.818 289.052h31.551v32.005h-31.551v-32.005ZM191.37 289.052h31.551v32.005H191.37v-32.005ZM222.921 289.052h31.551v32.005h-31.551v-32.005ZM317.574 289.052h31.551v32.005h-31.551v-32.005ZM885.489 289.052h31.551v32.005h-31.551v-32.005Z"/><path stroke="#F1F5F9" stroke-width="1.455" d="M917.04 289.052h31.55v32.005h-31.55v-32.005ZM1074.8 289.052h31.55v32.005h-31.55v-32.005ZM1106.35 289.052h31.55v32.005h-31.55v-32.005Z"/><path fill="#F1F5F9" fill-opacity=".3" stroke="#F1F5F9" stroke-width="1.455" d="M1137.9 289.052h31.55v32.005h-31.55v-32.005Z"/><path stroke="#F1F5F9" stroke-width="1.455" d="M1169.45 289.052H1201v32.005h-31.55v-32.005ZM2.065 321.057h31.55v32.006H2.066v-32.006ZM96.717 321.057h31.551v32.006h-31.55v-32.006ZM191.37 321.057h31.551v32.006H191.37v-32.006Z"/><path fill="#F1F5F9" fill-opacity=".3" stroke="#F1F5F9" stroke-width="1.455" d="M222.921 321.057h31.551v32.006h-31.551v-32.006Z"/><path stroke="#F1F5F9" stroke-width="1.455" d="M349.124 321.057h31.551v32.006h-31.551v-32.006ZM380.675 321.057h31.551v32.006h-31.551v-32.006ZM412.227 321.057h31.55v32.006h-31.55v-32.006Z"/><path fill="#F1F5F9" fill-opacity=".3" stroke="#F1F5F9" stroke-width="1.455" d="M443.777 321.057h31.551v32.006h-31.551v-32.006Z"/><path stroke="#F1F5F9" stroke-width="1.455" d="M475.329 321.057h31.55v32.006h-31.55v-32.006Z"/><path stroke="#F1F5F9" stroke-width="1.455" d="M506.878 321.057h31.551v32.006h-31.551v-32.006ZM853.938 321.057h31.551v32.006h-31.551v-32.006Z"/><path stroke="#F1F5F9" stroke-width="1.455" d="M885.489 321.057h31.551v32.006h-31.551v-32.006Z" opacity=".99"/><path stroke="#F1F5F9" stroke-width="1.455" d="M980.145 321.057h31.555v32.006h-31.555v-32.006ZM1011.7 321.057h31.55v32.006h-31.55v-32.006ZM1043.25 321.057h31.55v32.006h-31.55v-32.006ZM1169.45 321.057H1201v32.006h-31.55v-32.006ZM2.065 353.063h31.55v32.005H2.066v-32.005ZM33.615 353.063h31.551v32.005h-31.55v-32.005ZM65.166 353.063h31.55v32.005h-31.55v-32.005ZM96.717 353.063h31.551v32.005h-31.55v-32.005ZM128.268 353.063h31.551v32.005h-31.551v-32.005ZM443.777 353.063h31.551v32.005h-31.551v-32.005ZM475.329 353.063h31.55v32.005h-31.55v-32.005Z"/><path stroke="#F1F5F9" stroke-width="1.455" d="M506.878 353.063h31.551v32.005h-31.551v-32.005ZM727.734 353.063h31.551v32.005h-31.551v-32.005Z"/><path stroke="#F1F5F9" stroke-width="1.455" d="M759.285 353.063h31.551v32.005h-31.551v-32.005ZM790.837 353.063h31.551v32.005h-31.551v-32.005ZM822.388 353.063h31.551v32.005h-31.551v-32.005Z"/><path fill="#F1F5F9" fill-opacity=".3" stroke="#F1F5F9" stroke-width="1.455" d="M853.938 353.063h31.551v32.005h-31.551v-32.005Z"/><path stroke="#F1F5F9" stroke-width="1.455" d="M885.489 353.063h31.551v32.005h-31.551v-32.005Z"/><path stroke="#F1F5F9" stroke-width="1.455" d="M917.04 353.063h31.55v32.005h-31.55v-32.005ZM980.145 353.063h31.555v32.005h-31.555v-32.005ZM1011.7 353.063h31.55v32.005h-31.55v-32.005ZM1043.25 353.063h31.55v32.005h-31.55v-32.005Z"/><path fill="#F1F5F9" fill-opacity=".3" stroke="#F1F5F9" stroke-width="1.455" d="M1074.8 353.063h31.55v32.005h-31.55v-32.005Z"/><path stroke="#F1F5F9" stroke-width="1.455" d="M1106.35 353.063h31.55v32.005h-31.55v-32.005ZM1137.9 353.063h31.55v32.005h-31.55v-32.005ZM1169.45 353.063H1201v32.005h-31.55v-32.005ZM2.065 385.069h31.55v32.006H2.066v-32.006ZM33.615 385.069h31.551v32.006h-31.55v-32.006Z"/><path fill="#F1F5F9" fill-opacity=".3" stroke="#F1F5F9" stroke-width="1.455" d="M65.166 385.069h31.55v32.006h-31.55v-32.006Z"/><path stroke="#F1F5F9" stroke-width="1.455" d="M96.717 385.069h31.551v32.006h-31.55v-32.006ZM128.268 385.069h31.551v32.006h-31.551v-32.006Z"/><path stroke="#F1F5F9" stroke-width="1.455" d="M159.818 385.069h31.551v32.006h-31.551v-32.006ZM191.37 385.069h31.551v32.006H191.37v-32.006ZM222.921 385.069h31.551v32.006h-31.551v-32.006ZM254.473 385.069h31.551v32.006h-31.551v-32.006Z"/><path stroke="#F1F5F9" stroke-width="1.455" d="M286.021 385.069h31.551v32.006h-31.551v-32.006ZM317.574 385.069h31.551v32.006h-31.551v-32.006Z"/><path stroke="#F1F5F9" stroke-width="1.455" d="M349.124 385.069h31.551v32.006h-31.551v-32.006Z"/><path fill="#F1F5F9" fill-opacity=".3" stroke="#F1F5F9" stroke-width="1.455" d="M380.675 385.069h31.551v32.006h-31.551v-32.006Z"/><path stroke="#F1F5F9" stroke-width="1.455" d="M664.633 385.069h31.551v32.006h-31.551v-32.006Z"/><path stroke="#F1F5F9" stroke-width="1.455" d="M696.184 385.069h31.55v32.006h-31.55v-32.006ZM727.734 385.069h31.551v32.006h-31.551v-32.006Z"/><path stroke="#F1F5F9" stroke-width="1.455" d="M759.285 385.069h31.551v32.006h-31.551v-32.006Z"/><path fill="#F1F5F9" fill-opacity=".3" stroke="#F1F5F9" stroke-width="1.455" d="M790.837 385.069h31.551v32.006h-31.551v-32.006Z"/><path stroke="#F1F5F9" stroke-width="1.455" d="M822.388 385.069h31.551v32.006h-31.551v-32.006Z"/><path stroke="#F1F5F9" stroke-width="1.455" d="M853.938 385.069h31.551v32.006h-31.551v-32.006ZM885.489 385.069h31.551v32.006h-31.551v-32.006Z"/><path stroke="#F1F5F9" stroke-width="1.455" d="M917.04 385.069h31.55v32.006h-31.55v-32.006ZM948.59 385.069h31.551v32.006H948.59v-32.006ZM980.145 385.069h31.555v32.006h-31.555v-32.006ZM1011.7 385.069h31.55v32.006h-31.55v-32.006ZM1043.25 385.069h31.55v32.006h-31.55v-32.006ZM1074.8 385.069h31.55v32.006h-31.55v-32.006ZM1106.35 385.069h31.55v32.006h-31.55v-32.006ZM1137.9 385.069h31.55v32.006h-31.55v-32.006ZM1169.45 385.069H1201v32.006h-31.55v-32.006ZM2.065 417.074h31.55v32.006H2.066v-32.006ZM33.615 417.074h31.551v32.006h-31.55v-32.006ZM65.166 417.074h31.55v32.006h-31.55v-32.006ZM96.717 417.074h31.551v32.006h-31.55v-32.006ZM128.268 417.074h31.551v32.006h-31.551v-32.006Z"/><path fill="#F1F5F9" fill-opacity=".3" stroke="#F1F5F9" stroke-width="1.455" d="M159.818 417.074h31.551v32.006h-31.551v-32.006Z"/><path stroke="#F1F5F9" stroke-width="1.455" d="M317.574 417.074h31.551v32.006h-31.551v-32.006Z"/><path stroke="#F1F5F9" stroke-width="1.455" d="M349.124 417.074h31.551v32.006h-31.551v-32.006ZM664.633 417.074h31.551v32.006h-31.551v-32.006Z"/><path stroke="#F1F5F9" stroke-width="1.455" d="M696.184 417.074h31.55v32.006h-31.55v-32.006ZM727.734 417.074h31.551v32.006h-31.551v-32.006Z"/><path stroke="#F1F5F9" stroke-width="1.455" d="M759.285 417.074h31.551v32.006h-31.551v-32.006ZM790.837 417.074h31.551v32.006h-31.551v-32.006ZM822.388 417.074h31.551v32.006h-31.551v-32.006Z"/><path stroke="#F1F5F9" stroke-width="1.455" d="M853.938 417.074h31.551v32.006h-31.551v-32.006ZM885.489 417.074h31.551v32.006h-31.551v-32.006ZM1074.8 417.074h31.55v32.006h-31.55v-32.006ZM1106.35 417.074h31.55v32.006h-31.55v-32.006ZM1137.9 417.074h31.55v32.006h-31.55v-32.006ZM1169.45 417.074H1201v32.006h-31.55v-32.006ZM2.065 449.08h31.55v32.006H2.066V449.08ZM33.615 449.08h31.551v32.006h-31.55V449.08ZM96.717 449.08h31.551v32.006h-31.55V449.08ZM128.268 449.08h31.551v32.006h-31.551V449.08Z"/><path stroke="#F1F5F9" stroke-width="1.455" d="M159.818 449.08h31.551v32.006h-31.551V449.08ZM191.37 449.08h31.551v32.006H191.37V449.08ZM222.921 449.08h31.551v32.006h-31.551V449.08ZM286.021 449.08h31.551v32.006h-31.551V449.08ZM317.574 449.08h31.551v32.006h-31.551V449.08Z"/><path stroke="#F1F5F9" stroke-width="1.455" d="M349.124 449.08h31.551v32.006h-31.551V449.08ZM380.675 449.08h31.551v32.006h-31.551V449.08ZM601.532 449.08h31.551v32.006h-31.551V449.08Z"/><path stroke="#F1F5F9" stroke-width="1.455" d="M633.082 449.08h31.551v32.006h-31.551V449.08ZM664.633 449.08h31.551v32.006h-31.551V449.08Z"/><path stroke="#F1F5F9" stroke-width="1.455" d="M696.184 449.08h31.55v32.006h-31.55V449.08ZM727.734 449.08h31.551v32.006h-31.551V449.08Z"/><path stroke="#F1F5F9" stroke-width="1.455" d="M759.285 449.08h31.551v32.006h-31.551V449.08ZM790.837 449.08h31.551v32.006h-31.551V449.08ZM853.938 449.08h31.551v32.006h-31.551V449.08Z"/><path fill="#F1F5F9" fill-opacity=".3" stroke="#F1F5F9" stroke-width="1.455" d="M917.04 449.08h31.55v32.006h-31.55V449.08Z"/><path stroke="#F1F5F9" stroke-width="1.455" d="M948.59 449.08h31.551v32.006H948.59V449.08ZM1137.9 449.08h31.55v32.006h-31.55V449.08Z"/><path fill="#F1F5F9" fill-opacity=".3" stroke="#F1F5F9" stroke-width="1.455" d="M1169.45 449.08H1201v32.006h-31.55V449.08Z"/><path stroke="#F1F5F9" stroke-width="1.455" d="M2.065 481.085h31.55v32.006H2.066v-32.006ZM33.615 481.085h31.551v32.006h-31.55v-32.006ZM349.124 481.085h31.551v32.006h-31.551v-32.006ZM380.675 481.085h31.551v32.006h-31.551v-32.006ZM412.227 481.085h31.55v32.006h-31.55v-32.006ZM443.777 481.085h31.551v32.006h-31.551v-32.006ZM980.145 481.085h31.555v32.006h-31.555v-32.006Z"/><path fill="#F1F5F9" fill-opacity=".3" stroke="#F1F5F9" stroke-width="1.455" d="M1011.7 481.085h31.55v32.006h-31.55v-32.006Z"/><path stroke="#F1F5F9" stroke-width="1.455" d="M1043.25 481.085h31.55v32.006h-31.55v-32.006ZM1169.45 481.085H1201v32.006h-31.55v-32.006ZM2.065 513.092h31.55v32.006H2.066v-32.006ZM33.615 513.092h31.551v32.006h-31.55v-32.006ZM65.166 513.092h31.55v32.006h-31.55v-32.006ZM96.717 513.092h31.551v32.006h-31.55v-32.006ZM128.268 513.092h31.551v32.006h-31.551v-32.006Z"/><path stroke="#F1F5F9" stroke-width="1.455" d="M159.818 513.092h31.551v32.006h-31.551v-32.006Z"/><path fill="#F1F5F9" fill-opacity=".3" stroke="#F1F5F9" stroke-width="1.455" d="M191.37 513.092h31.551v32.006H191.37v-32.006Z"/><path stroke="#F1F5F9" stroke-width="1.455" d="M222.921 513.092h31.551v32.006h-31.551v-32.006ZM254.473 513.092h31.551v32.006h-31.551v-32.006Z"/><path stroke="#F1F5F9" stroke-width="1.455" d="M286.021 513.092h31.551v32.006h-31.551v-32.006ZM317.574 513.092h31.551v32.006h-31.551v-32.006Z"/><path stroke="#F1F5F9" stroke-width="1.455" d="M349.124 513.092h31.551v32.006h-31.551v-32.006ZM380.675 513.092h31.551v32.006h-31.551v-32.006ZM412.227 513.092h31.55v32.006h-31.55v-32.006ZM538.43 513.092h31.551v32.006H538.43v-32.006Z"/><path stroke="#F1F5F9" stroke-width="1.455" d="M569.98 513.092h31.551v32.006H569.98v-32.006ZM601.532 513.092h31.551v32.006h-31.551v-32.006Z"/><path stroke="#F1F5F9" stroke-width="1.455" d="M633.082 513.092h31.551v32.006h-31.551v-32.006ZM664.633 513.092h31.551v32.006h-31.551v-32.006Z"/><path stroke="#F1F5F9" stroke-width="1.455" d="M696.184 513.092h31.55v32.006h-31.55v-32.006ZM727.734 513.092h31.551v32.006h-31.551v-32.006Z"/><path stroke="#F1F5F9" stroke-width="1.455" d="M759.285 513.092h31.551v32.006h-31.551v-32.006ZM790.837 513.092h31.551v32.006h-31.551v-32.006ZM822.388 513.092h31.551v32.006h-31.551v-32.006Z"/><path stroke="#F1F5F9" stroke-width="1.455" d="M853.938 513.092h31.551v32.006h-31.551v-32.006ZM885.489 513.092h31.551v32.006h-31.551v-32.006Z"/><path stroke="#F1F5F9" stroke-width="1.455" d="M917.04 513.092h31.55v32.006h-31.55v-32.006ZM948.59 513.092h31.551v32.006H948.59v-32.006ZM980.145 513.092h31.555v32.006h-31.555v-32.006ZM1137.9 513.092h31.55v32.006h-31.55v-32.006ZM1169.45 513.092H1201v32.006h-31.55v-32.006ZM2.065 545.097h31.55v32.006H2.066v-32.006ZM33.615 545.097h31.551v32.006h-31.55v-32.006Z"/><path fill="#F1F5F9" fill-opacity=".3" stroke="#F1F5F9" stroke-width="1.455" d="M65.166 545.097h31.55v32.006h-31.55v-32.006Z"/><path stroke="#F1F5F9" stroke-width="1.455" d="M96.717 545.097h31.551v32.006h-31.55v-32.006ZM475.329 545.097h31.55v32.006h-31.55v-32.006ZM569.98 545.097h31.551v32.006H569.98v-32.006ZM601.532 545.097h31.551v32.006h-31.551v-32.006Z"/><path stroke="#F1F5F9" stroke-width="1.455" d="M633.082 545.097h31.551v32.006h-31.551v-32.006ZM664.633 545.097h31.551v32.006h-31.551v-32.006ZM759.285 545.097h31.551v32.006h-31.551v-32.006ZM790.837 545.097h31.551v32.006h-31.551v-32.006Z"/><path fill="#F1F5F9" fill-opacity=".3" stroke="#F1F5F9" stroke-width="1.455" d="M822.388 545.097h31.551v32.006h-31.551v-32.006Z"/><path stroke="#F1F5F9" stroke-width="1.455" d="M853.938 545.097h31.551v32.006h-31.551v-32.006ZM885.489 545.097h31.551v32.006h-31.551v-32.006ZM1043.25 545.097h31.55v32.006h-31.55v-32.006ZM1074.8 545.097h31.55v32.006h-31.55v-32.006ZM1106.35 545.097h31.55v32.006h-31.55v-32.006ZM1137.9 545.097h31.55v32.006h-31.55v-32.006ZM1169.45 545.097H1201v32.006h-31.55v-32.006ZM2.065 577.103h31.55v32.006H2.066v-32.006ZM33.615 577.103h31.551v32.006h-31.55v-32.006ZM65.166 577.103h31.55v32.006h-31.55v-32.006ZM96.717 577.103h31.551v32.006h-31.55v-32.006ZM128.268 577.103h31.551v32.006h-31.551v-32.006Z"/><path stroke="#F1F5F9" stroke-width="1.455" d="M159.818 577.103h31.551v32.006h-31.551v-32.006ZM222.921 577.103h31.551v32.006h-31.551v-32.006ZM380.675 577.103h31.551v32.006h-31.551v-32.006ZM412.227 577.103h31.55v32.006h-31.55v-32.006ZM443.777 577.103h31.551v32.006h-31.551v-32.006ZM475.329 577.103h31.55v32.006h-31.55v-32.006ZM601.532 577.103h31.551v32.006h-31.551v-32.006Z"/><path stroke="#F1F5F9" stroke-width="1.455" d="M633.082 577.103h31.551v32.006h-31.551v-32.006ZM790.837 577.103h31.551v32.006h-31.551v-32.006ZM822.388 577.103h31.551v32.006h-31.551v-32.006Z"/><path stroke="#F1F5F9" stroke-width="1.455" d="M853.938 577.103h31.551v32.006h-31.551v-32.006ZM885.489 577.103h31.551v32.006h-31.551v-32.006Z"/><path stroke="#F1F5F9" stroke-width="1.455" d="M917.04 577.103h31.55v32.006h-31.55v-32.006ZM1074.8 577.103h31.55v32.006h-31.55v-32.006Z"/><path fill="#F1F5F9" fill-opacity=".3" stroke="#F1F5F9" stroke-width="1.455" d="M1106.35 577.103h31.55v32.006h-31.55v-32.006Z"/><path stroke="#F1F5F9" stroke-width="1.455" d="M1137.9 577.103h31.55v32.006h-31.55v-32.006ZM1169.45 577.103H1201v32.006h-31.55v-32.006ZM2.065 609.109h31.55v32.006H2.066v-32.006ZM33.615 609.109h31.551v32.006h-31.55v-32.006ZM65.166 609.109h31.55v32.006h-31.55v-32.006ZM96.717 609.109h31.551v32.006h-31.55v-32.006ZM128.268 609.109h31.551v32.006h-31.551v-32.006Z"/><path stroke="#F1F5F9" stroke-width="1.455" d="M159.818 609.109h31.551v32.006h-31.551v-32.006Z"/><path fill="#F1F5F9" fill-opacity=".3" stroke="#F1F5F9" stroke-width="1.455" d="M191.37 609.109h31.551v32.006H191.37v-32.006Z"/><path stroke="#F1F5F9" stroke-width="1.455" d="M222.921 609.109h31.551v32.006h-31.551v-32.006ZM254.473 609.109h31.551v32.006h-31.551v-32.006Z"/><path stroke="#F1F5F9" stroke-width="1.455" d="M286.021 609.109h31.551v32.006h-31.551v-32.006ZM317.574 609.109h31.551v32.006h-31.551v-32.006Z"/><path stroke="#F1F5F9" stroke-width="1.455" d="M349.124 609.109h31.551v32.006h-31.551v-32.006ZM380.675 609.109h31.551v32.006h-31.551v-32.006Z"/><path fill="#F1F5F9" fill-opacity=".3" stroke="#F1F5F9" stroke-width="1.455" d="M412.227 609.109h31.55v32.006h-31.55v-32.006Z"/><path stroke="#F1F5F9" stroke-width="1.455" d="M443.777 609.109h31.551v32.006h-31.551v-32.006ZM475.329 609.109h31.55v32.006h-31.55v-32.006Z"/><path stroke="#F1F5F9" stroke-width="1.455" d="M506.878 609.109h31.551v32.006h-31.551v-32.006ZM538.43 609.109h31.551v32.006H538.43v-32.006Z"/><path stroke="#F1F5F9" stroke-width="1.455" d="M569.98 609.109h31.551v32.006H569.98v-32.006ZM601.532 609.109h31.551v32.006h-31.551v-32.006Z"/><path stroke="#F1F5F9" stroke-width="1.455" d="M633.082 609.109h31.551v32.006h-31.551v-32.006ZM696.184 609.109h31.55v32.006h-31.55v-32.006ZM727.734 609.109h31.551v32.006h-31.551v-32.006Z"/><path stroke="#F1F5F9" stroke-width="1.455" d="M759.285 609.109h31.551v32.006h-31.551v-32.006Z"/><path fill="#F1F5F9" fill-opacity=".3" stroke="#F1F5F9" stroke-width="1.455" d="M790.837 609.109h31.551v32.006h-31.551v-32.006Z"/><path stroke="#F1F5F9" stroke-width="1.455" d="M1106.35 609.109h31.55v32.006h-31.55v-32.006ZM1137.9 609.109h31.55v32.006h-31.55v-32.006ZM1169.45 609.109H1201v32.006h-31.55v-32.006ZM2.065 641.115h31.55v32.005H2.066v-32.005ZM33.615 641.115h31.551v32.005h-31.55v-32.005ZM96.717 641.115h31.551v32.005h-31.55v-32.005ZM128.268 641.115h31.551v32.005h-31.551v-32.005Z"/><path stroke="#F1F5F9" stroke-width="1.455" d="M159.818 641.115h31.551v32.005h-31.551v-32.005ZM286.021 641.115h31.551v32.005h-31.551v-32.005ZM317.574 641.115h31.551v32.005h-31.551v-32.005ZM538.43 641.115h31.551v32.005H538.43v-32.005Z"/><path stroke="#F1F5F9" stroke-width="1.455" d="M569.98 641.115h31.551v32.005H569.98v-32.005ZM601.532 641.115h31.551v32.005h-31.551v-32.005ZM696.184 641.115h31.55v32.005h-31.55v-32.005ZM727.734 641.115h31.551v32.005h-31.551v-32.005Z"/><path stroke="#F1F5F9" stroke-width="1.455" d="M759.285 641.115h31.551v32.005h-31.551v-32.005ZM790.837 641.115h31.551v32.005h-31.551v-32.005ZM822.388 641.115h31.551v32.005h-31.551v-32.005Z"/><path stroke="#F1F5F9" stroke-width="1.455" d="M853.938 641.115h31.551v32.005h-31.551v-32.005ZM885.489 641.115h31.551v32.005h-31.551v-32.005ZM1043.25 641.115h31.55v32.005h-31.55v-32.005ZM1074.8 641.115h31.55v32.005h-31.55v-32.005ZM1106.35 641.115h31.55v32.005h-31.55v-32.005Z"/><path fill="#F1F5F9" fill-opacity=".3" stroke="#F1F5F9" stroke-width="1.455" d="M1137.9 641.115h31.55v32.005h-31.55v-32.005Z"/><path stroke="#F1F5F9" stroke-width="1.455" d="M1169.45 641.115H1201v32.005h-31.55v-32.005ZM2.065 673.121h31.55v32.005H2.066v-32.005ZM33.615 673.121h31.551v32.005h-31.55v-32.005ZM128.268 673.121h31.551v32.005h-31.551v-32.005Z"/><path stroke="#F1F5F9" stroke-width="1.455" d="M159.818 673.121h31.551v32.005h-31.551v-32.005Z"/><path fill="#F1F5F9" fill-opacity=".3" stroke="#F1F5F9" stroke-width="1.455" d="M191.37 673.121h31.551v32.005H191.37v-32.005Z"/><path stroke="#F1F5F9" stroke-width="1.455" d="M222.921 673.121h31.551v32.005h-31.551v-32.005ZM254.473 673.121h31.551v32.005h-31.551v-32.005Z"/><path fill="#F1F5F9" fill-opacity=".3" stroke="#F1F5F9" stroke-width="1.455" d="M286.021 673.121h31.551v32.005h-31.551v-32.005Z"/><path stroke="#F1F5F9" stroke-width="1.455" d="M317.574 673.121h31.551v32.005h-31.551v-32.005ZM443.777 673.121h31.551v32.005h-31.551v-32.005ZM475.329 673.121h31.55v32.005h-31.55v-32.005Z"/><path stroke="#F1F5F9" stroke-width="1.455" d="M506.878 673.121h31.551v32.005h-31.551v-32.005Z"/><path fill="#F1F5F9" fill-opacity=".3" stroke="#F1F5F9" stroke-width="1.455" d="M538.43 673.121h31.551v32.005H538.43v-32.005Z"/><path stroke="#F1F5F9" stroke-width="1.455" d="M727.734 673.121h31.551v32.005h-31.551v-32.005Z"/><path stroke="#F1F5F9" stroke-width="1.455" d="M759.285 673.121h31.551v32.005h-31.551v-32.005ZM790.837 673.121h31.551v32.005h-31.551v-32.005ZM822.388 673.121h31.551v32.005h-31.551v-32.005Z"/><path stroke="#F1F5F9" stroke-width="1.455" d="M853.938 673.121h31.551v32.005h-31.551v-32.005ZM885.489 673.121h31.551v32.005h-31.551v-32.005Z"/><path stroke="#F1F5F9" stroke-width="1.455" d="M917.04 673.121h31.55v32.005h-31.55v-32.005ZM948.59 673.121h31.551v32.005H948.59v-32.005ZM1074.8 673.121h31.55v32.005h-31.55v-32.005ZM1106.35 673.121h31.55v32.005h-31.55v-32.005ZM1137.9 673.121h31.55v32.005h-31.55v-32.005ZM1169.45 673.121H1201v32.005h-31.55v-32.005ZM1 704.983h31.55v32.006H1v-32.006ZM32.55 704.983H64.1v32.006H32.55v-32.006Z"/><path fill="#F1F5F9" fill-opacity=".3" stroke="#F1F5F9" stroke-width="1.455" d="M64.1 704.983h31.55v32.006H64.1v-32.006Z"/><path stroke="#F1F5F9" stroke-width="1.455" d="M95.652 704.983h31.551v32.006H95.652v-32.006ZM127.203 704.983h31.55v32.006h-31.55v-32.006Z"/><path stroke="#F1F5F9" stroke-width="1.455" d="M158.753 704.983h31.551v32.006h-31.551v-32.006ZM190.305 704.983h31.551v32.006h-31.551v-32.006Z"/><path stroke="#F1F5F9" stroke-width="1.455" d="M221.855 704.983h31.551v32.006h-31.551v-32.006Z"/><path fill="#F1F5F9" fill-opacity=".3" stroke="#F1F5F9" stroke-width="1.455" d="M253.407 704.983h31.551v32.006h-31.551v-32.006Z"/><path stroke="#F1F5F9" stroke-width="1.455" d="M284.956 704.983h31.551v32.006h-31.551v-32.006ZM316.509 704.983h31.551v32.006h-31.551v-32.006ZM348.06 704.983h31.55v32.006h-31.55v-32.006ZM663.568 704.983h31.551v32.006h-31.551v-32.006ZM695.119 704.983h31.551v32.006h-31.551v-32.006Z"/><path stroke="#F1F5F9" stroke-width="1.455" d="M726.669 704.983h31.551v32.006h-31.551v-32.006ZM758.22 704.983h31.551v32.006H758.22v-32.006Z"/><path fill="#F1F5F9" fill-opacity=".3" stroke="#F1F5F9" stroke-width="1.455" d="M789.771 704.983h31.551v32.006h-31.551v-32.006Z"/><path stroke="#F1F5F9" stroke-width="1.455" d="M821.322 704.983h31.551v32.006h-31.551v-32.006ZM852.873 704.983h31.551v32.006h-31.551v-32.006Z"/><path fill="#F1F5F9" fill-opacity=".3" stroke="#F1F5F9" stroke-width="1.455" d="M884.424 704.983h31.551v32.006h-31.551v-32.006Z"/><path stroke="#F1F5F9" stroke-width="1.455" d="M915.975 704.983h31.55v32.006h-31.55v-32.006ZM947.525 704.983h31.551v32.006h-31.551v-32.006ZM979.08 704.983h31.55v32.006h-31.55v-32.006ZM1010.63 704.983h31.55v32.006h-31.55v-32.006ZM1042.18 704.983h31.55v32.006h-31.55v-32.006ZM1073.73 704.983h31.55v32.006h-31.55v-32.006ZM1105.28 704.983h31.55v32.006h-31.55v-32.006ZM1136.83 704.983h31.55v32.006h-31.55v-32.006Z"/><path fill="#F1F5F9" fill-opacity=".3" stroke="#F1F5F9" stroke-width="1.455" d="M1168.38 704.983h31.55v32.006h-31.55v-32.006Z"/><path stroke="#F1F5F9" stroke-width="1.455" d="M1 736.988h31.55v32.006H1v-32.006ZM32.55 736.988H64.1v32.006H32.55v-32.006ZM64.1 736.988h31.55v32.006H64.1v-32.006ZM95.652 736.988h31.551v32.006H95.652v-32.006ZM127.203 736.988h31.55v32.006h-31.55v-32.006Z"/><path stroke="#F1F5F9" stroke-width="1.455" d="M158.753 736.988h31.551v32.006h-31.551v-32.006Z"/><path fill="#F1F5F9" fill-opacity=".3" stroke="#F1F5F9" stroke-width="1.455" d="M190.305 736.988h31.551v32.006h-31.551v-32.006Z"/><path stroke="#F1F5F9" stroke-width="1.455" d="M221.855 736.988h31.551v32.006h-31.551v-32.006ZM348.06 736.988h31.55v32.006h-31.55v-32.006ZM379.61 736.988h31.551v32.006H379.61v-32.006ZM411.161 736.988h31.551v32.006h-31.551v-32.006Z"/><path stroke="#F1F5F9" stroke-width="1.455" d="M442.711 736.988h31.551v32.006h-31.551v-32.006ZM474.263 736.988h31.551v32.006h-31.551v-32.006Z"/><path stroke="#F1F5F9" stroke-width="1.455" d="M505.813 736.988h31.551v32.006h-31.551v-32.006ZM979.08 736.988h31.55v32.006h-31.55v-32.006Z"/><path fill="#F1F5F9" fill-opacity=".3" stroke="#F1F5F9" stroke-width="1.455" d="M1010.63 736.988h31.55v32.006h-31.55v-32.006Z"/><path stroke="#F1F5F9" stroke-width="1.455" d="M1042.18 736.988h31.55v32.006h-31.55v-32.006ZM1073.73 736.988h31.55v32.006h-31.55v-32.006ZM1105.28 736.988h31.55v32.006h-31.55v-32.006ZM1136.83 736.988h31.55v32.006h-31.55v-32.006ZM1168.38 736.988h31.55v32.006h-31.55v-32.006ZM1 768.994h31.55V801H1v-32.006ZM32.55 768.994H64.1V801H32.55v-32.006ZM64.1 768.994h31.55V801H64.1v-32.006ZM95.652 768.994h31.551V801H95.652v-32.006ZM127.203 768.994h31.55V801h-31.55v-32.006Z"/><path stroke="#F1F5F9" stroke-width="1.455" d="M158.753 768.994h31.551V801h-31.551v-32.006ZM348.06 768.994h31.55V801h-31.55v-32.006ZM663.568 768.994h31.551V801h-31.551v-32.006ZM695.119 768.994h31.551V801h-31.551v-32.006Z"/><path stroke="#F1F5F9" stroke-width="1.455" d="M726.669 768.994h31.551V801h-31.551v-32.006ZM758.22 768.994h31.551V801H758.22v-32.006Z"/><path stroke="#F1F5F9" stroke-width="1.455" d="M789.771 768.994h31.551V801h-31.551v-32.006ZM821.322 768.994h31.551V801h-31.551v-32.006ZM852.873 768.994h31.551V801h-31.551v-32.006ZM1042.18 768.994h31.55V801h-31.55v-32.006ZM1073.73 768.994h31.55V801h-31.55v-32.006ZM1105.28 768.994h31.55V801h-31.55v-32.006ZM1136.83 768.994h31.55V801h-31.55v-32.006ZM1168.38 768.994h31.55V801h-31.55v-32.006Z"/></svg>