<svg xmlns="http://www.w3.org/2000/svg" width="1082" height="712" fill="none"><path stroke="#F1F5F9" stroke-width="1.31" d="M1.959.873h28.396v28.396H1.959V.873Z"/><path stroke="#F1F5F9" stroke-width="1.31" d="M30.354.873h28.395v28.396H30.353V.873Z"/><path fill="#F1F5F9" fill-opacity=".3" stroke="#F1F5F9" stroke-width="1.31" d="M58.749.873h28.396v28.396H58.749V.873Z"/><path stroke="#F1F5F9" stroke-width="1.31" d="M87.145.873h28.396v28.396H87.146V.873ZM115.541.873h28.396v28.396h-28.396V.873ZM143.937.873h28.395v28.396h-28.395V.873ZM172.333.873h28.396v28.396h-28.396V.873ZM200.729.873h28.395v28.396h-28.395V.873Z"/><path fill="#F1F5F9" fill-opacity=".3" stroke="#F1F5F9" stroke-width="1.31" d="M229.125.873h28.396v28.396h-28.396V.873Z"/><path stroke="#F1F5F9" stroke-width="1.31" d="M257.519.873h28.395v28.396h-28.395V.873ZM285.917.873h28.396v28.396h-28.396V.873Z"/><path stroke="#F1F5F9" stroke-width="1.31" d="M314.312.873h28.396v28.396h-28.396V.873ZM598.27.873h28.396v28.396H598.27V.873ZM626.666.873h28.395v28.396h-28.395V.873ZM655.061.873h28.396v28.396h-28.396V.873ZM683.457.873h28.395v28.396h-28.395V.873Z"/><path fill="#F1F5F9" fill-opacity=".3" stroke="#F1F5F9" stroke-width="1.31" d="M711.853.873h28.396v28.396h-28.396V.873Z"/><path stroke="#F1F5F9" stroke-width="1.31" d="M740.249.873h28.395v28.396h-28.395V.873ZM768.645.873h28.395v28.396h-28.395V.873Z"/><path fill="#F1F5F9" fill-opacity=".3" stroke="#F1F5F9" stroke-width="1.31" d="M797.04.873h28.396v28.396H797.04V.873Z"/><path stroke="#F1F5F9" stroke-width="1.31" d="M825.436.873h28.395v28.396h-28.395V.873ZM853.831.873h28.396v28.396h-28.396V.873ZM882.23.873h28.396v28.396H882.23V.873ZM910.626.873h28.396v28.396h-28.396V.873Z"/><path stroke="#F1F5F9" stroke-width="1.31" d="M939.021.873h28.396v28.396h-28.396V.873ZM967.417.873h28.396v28.396h-28.396V.873ZM995.813.873h28.397v28.396h-28.397V.873ZM1024.21.873h28.39v28.396h-28.39V.873Z"/><path fill="#F1F5F9" fill-opacity=".3" stroke="#F1F5F9" stroke-width="1.31" d="M1052.6.873h28.4v28.396h-28.4V.873Z"/><path stroke="#F1F5F9" stroke-width="1.31" d="M1.959 29.269h28.396v28.396H1.959V29.269Z"/><path stroke="#F1F5F9" stroke-width="1.31" d="M30.354 29.269h28.395v28.396H30.353V29.269ZM58.749 29.269h28.396v28.396H58.749V29.269Z"/><path stroke="#F1F5F9" stroke-width="1.31" d="M87.145 29.269h28.396v28.396H87.146V29.269ZM115.541 29.269h28.396v28.396h-28.396V29.269ZM143.937 29.269h28.395v28.396h-28.395V29.269Z"/><path fill="#F1F5F9" fill-opacity=".3" stroke="#F1F5F9" stroke-width="1.31" d="M172.333 29.269h28.396v28.396h-28.396V29.269Z"/><path stroke="#F1F5F9" stroke-width="1.31" d="M200.729 29.269h28.395v28.396h-28.395V29.269ZM314.312 29.269h28.396v28.396h-28.396V29.269ZM342.708 29.269h28.396v28.396h-28.396V29.269Z"/><path stroke="#F1F5F9" stroke-width="1.31" d="M371.104 29.269H399.5v28.396h-28.396V29.269Z"/><path stroke="#F1F5F9" stroke-width="1.31" d="M399.499 29.269h28.396v28.396h-28.396V29.269ZM427.896 29.269h28.395v28.396h-28.395V29.269ZM456.291 29.269h28.395v28.396h-28.395V29.269ZM882.23 29.269h28.396v28.396H882.23V29.269Z"/><path fill="#F1F5F9" fill-opacity=".3" stroke="#F1F5F9" stroke-width="1.31" d="M910.626 29.269h28.396v28.396h-28.396V29.269Z"/><path stroke="#F1F5F9" stroke-width="1.31" d="M939.021 29.269h28.396v28.396h-28.396V29.269ZM967.417 29.269h28.396v28.396h-28.396V29.269ZM995.813 29.269h28.397v28.396h-28.397V29.269ZM1024.21 29.269h28.39v28.396h-28.39V29.269Z"/><path stroke="#F1F5F9" stroke-width="1.31" d="M1052.6 29.269h28.4v28.396h-28.4V29.269ZM1.959 57.665h28.396V86.06H1.959V57.665Z"/><path stroke="#F1F5F9" stroke-width="1.31" d="M30.354 57.665h28.395V86.06H30.353V57.665ZM58.749 57.665h28.396V86.06H58.749V57.665Z"/><path stroke="#F1F5F9" stroke-width="1.31" d="M87.145 57.665h28.396V86.06H87.146V57.665ZM115.541 57.665h28.396V86.06h-28.396V57.665ZM143.937 57.665h28.395V86.06h-28.395V57.665ZM314.312 57.665h28.396V86.06h-28.396V57.665ZM598.27 57.665h28.396V86.06H598.27V57.665ZM626.666 57.665h28.395V86.06h-28.395V57.665ZM655.061 57.665h28.396V86.06h-28.396V57.665ZM683.457 57.665h28.395V86.06h-28.395V57.665ZM711.853 57.665h28.396V86.06h-28.396V57.665ZM740.249 57.665h28.395V86.06h-28.395V57.665ZM768.645 57.665h28.395V86.06h-28.395V57.665ZM939.021 57.665h28.396V86.06h-28.396V57.665ZM967.417 57.665h28.396V86.06h-28.396V57.665ZM995.813 57.665h28.397V86.06h-28.397V57.665ZM1024.21 57.665h28.39V86.06h-28.39V57.665Z"/><path stroke="#F1F5F9" stroke-width="1.31" d="M1052.6 57.665h28.4V86.06h-28.4V57.665ZM1.959 86.06h28.396v28.396H1.959V86.06Z"/><path stroke="#F1F5F9" stroke-width="1.31" d="M30.354 86.06h28.395v28.396H30.353V86.06ZM58.749 86.06h28.396v28.396H58.749V86.06Z"/><path stroke="#F1F5F9" stroke-width="1.31" d="M87.145 86.06h28.396v28.396H87.146V86.06ZM115.541 86.06h28.396v28.396h-28.396V86.06ZM143.937 86.06h28.395v28.396h-28.395V86.06ZM172.333 86.06h28.396v28.396h-28.396V86.06ZM200.729 86.06h28.395v28.396h-28.395V86.06ZM768.645 86.06h28.395v28.396h-28.395V86.06Z"/><path fill="#F1F5F9" fill-opacity=".3" stroke="#F1F5F9" stroke-width="1.31" d="M825.436 86.06h28.395v28.396h-28.395V86.06Z"/><path stroke="#F1F5F9" stroke-width="1.31" d="M853.831 86.06h28.396v28.396h-28.396V86.06ZM882.23 86.06h28.396v28.396H882.23V86.06ZM910.626 86.06h28.396v28.396h-28.396V86.06Z"/><path stroke="#F1F5F9" stroke-width="1.31" d="M939.021 86.06h28.396v28.396h-28.396V86.06Z"/><path fill="#F1F5F9" fill-opacity=".3" stroke="#F1F5F9" stroke-width="1.31" d="M967.417 86.06h28.396v28.396h-28.396V86.06Z"/><path stroke="#F1F5F9" stroke-width="1.31" d="M995.813 86.06h28.397v28.396h-28.397V86.06ZM1024.21 86.06h28.39v28.396h-28.39V86.06Z"/><path fill="#F1F5F9" fill-opacity=".3" stroke="#F1F5F9" stroke-width="1.31" d="M1052.6 86.06h28.4v28.396h-28.4V86.06Z"/><path stroke="#F1F5F9" stroke-width="1.31" d="M1.959 114.456h28.396v28.396H1.959v-28.396Z"/><path fill="#F1F5F9" fill-opacity=".3" stroke="#F1F5F9" stroke-width="1.31" d="M30.354 114.456h28.395v28.396H30.353v-28.396Z"/><path stroke="#F1F5F9" stroke-width="1.31" d="M58.749 114.456h28.396v28.396H58.749v-28.396Z"/><path fill="#F1F5F9" fill-opacity=".3" stroke="#F1F5F9" stroke-width="1.31" d="M172.333 114.456h28.396v28.396h-28.396v-28.396Z"/><path stroke="#F1F5F9" stroke-width="1.31" d="M200.729 114.456h28.395v28.396h-28.395v-28.396ZM257.519 114.456h28.395v28.396h-28.395v-28.396ZM768.645 114.456h28.395v28.396h-28.395v-28.396ZM797.04 114.456h28.396v28.396H797.04v-28.396ZM882.23 114.456h28.396v28.396H882.23v-28.396ZM910.626 114.456h28.396v28.396h-28.396v-28.396Z"/><path stroke="#F1F5F9" stroke-width="1.31" d="M939.021 114.456h28.396v28.396h-28.396v-28.396ZM1052.6 114.456h28.4v28.396h-28.4v-28.396ZM1.959 142.852h28.396v28.396H1.959v-28.396Z"/><path stroke="#F1F5F9" stroke-width="1.31" d="M30.354 142.852h28.395v28.396H30.353v-28.396ZM58.749 142.852h28.396v28.396H58.749v-28.396Z"/><path stroke="#F1F5F9" stroke-width="1.31" d="M87.145 142.852h28.396v28.396H87.146v-28.396ZM115.541 142.852h28.396v28.396h-28.396v-28.396ZM143.937 142.852h28.395v28.396h-28.395v-28.396ZM285.917 142.852h28.396v28.396h-28.396v-28.396Z"/><path stroke="#F1F5F9" stroke-width="1.31" d="M314.312 142.852h28.396v28.396h-28.396v-28.396ZM598.27 142.852h28.396v28.396H598.27v-28.396ZM626.666 142.852h28.395v28.396h-28.395v-28.396ZM655.061 142.852h28.396v28.396h-28.396v-28.396ZM683.457 142.852h28.395v28.396h-28.395v-28.396ZM711.853 142.852h28.396v28.396h-28.396v-28.396ZM740.249 142.852h28.395v28.396h-28.395v-28.396ZM797.04 142.852h28.396v28.396H797.04v-28.396Z"/><path fill="#F1F5F9" fill-opacity=".3" stroke="#F1F5F9" stroke-width="1.31" d="M825.436 142.852h28.395v28.396h-28.395v-28.396Z"/><path stroke="#F1F5F9" stroke-width="1.31" d="M939.021 142.852h28.396v28.396h-28.396v-28.396ZM967.417 142.852h28.396v28.396h-28.396v-28.396ZM995.813 142.852h28.397v28.396h-28.397v-28.396ZM1024.21 142.852h28.39v28.396h-28.39v-28.396Z"/><path stroke="#F1F5F9" stroke-width="1.31" d="M1052.6 142.852h28.4v28.396h-28.4v-28.396ZM1.959 171.248h28.396v28.396H1.959v-28.396Z"/><path stroke="#F1F5F9" stroke-width="1.31" d="M30.354 171.248h28.395v28.396H30.353v-28.396ZM58.749 171.248h28.396v28.396H58.749v-28.396Z"/><path stroke="#F1F5F9" stroke-width="1.31" d="M87.145 171.248h28.396v28.396H87.146v-28.396ZM115.541 171.248h28.396v28.396h-28.396v-28.396ZM143.937 171.248h28.395v28.396h-28.395v-28.396ZM172.333 171.248h28.396v28.396h-28.396v-28.396ZM200.729 171.248h28.395v28.396h-28.395v-28.396ZM853.831 171.248h28.396v28.396h-28.396v-28.396ZM882.23 171.248h28.396v28.396H882.23v-28.396ZM910.626 171.248h28.396v28.396h-28.396v-28.396Z"/><path stroke="#F1F5F9" stroke-width="1.31" d="M939.021 171.248h28.396v28.396h-28.396v-28.396Z"/><path fill="#F1F5F9" fill-opacity=".3" stroke="#F1F5F9" stroke-width="1.31" d="M967.417 171.248h28.396v28.396h-28.396v-28.396Z"/><path stroke="#F1F5F9" stroke-width="1.31" d="M995.813 171.248h28.397v28.396h-28.397v-28.396ZM1024.21 171.248h28.39v28.396h-28.39v-28.396Z"/><path stroke="#F1F5F9" stroke-width="1.31" d="M1052.6 171.248h28.4v28.396h-28.4v-28.396Z"/><path fill="#F1F5F9" fill-opacity=".3" stroke="#F1F5F9" stroke-width="1.31" d="M1.959 199.643h28.396v28.396H1.959v-28.396Z"/><path stroke="#F1F5F9" stroke-width="1.31" d="M30.354 199.643h28.395v28.396H30.353v-28.396ZM58.749 199.643h28.396v28.396H58.749v-28.396Z"/><path fill="#F1F5F9" fill-opacity=".3" stroke="#F1F5F9" stroke-width="1.31" d="M172.333 199.643h28.396v28.396h-28.396v-28.396Z"/><path stroke="#F1F5F9" stroke-width="1.31" d="M200.729 199.643h28.395v28.396h-28.395v-28.396ZM257.519 199.643h28.395v28.396h-28.395v-28.396ZM285.917 199.643h28.396v28.396h-28.396v-28.396ZM825.436 199.643h28.395v28.396h-28.395v-28.396Z"/><path fill="#F1F5F9" fill-opacity=".3" stroke="#F1F5F9" stroke-width="1.31" d="M853.831 199.643h28.396v28.396h-28.396v-28.396Z"/><path stroke="#F1F5F9" stroke-width="1.31" d="M882.23 199.643h28.396v28.396H882.23v-28.396ZM910.626 199.643h28.396v28.396h-28.396v-28.396Z"/><path stroke="#F1F5F9" stroke-width="1.31" d="M939.021 199.643h28.396v28.396h-28.396v-28.396ZM1052.6 199.643h28.4v28.396h-28.4v-28.396ZM1.959 228.039h28.396v28.396H1.959v-28.396Z"/><path stroke="#F1F5F9" stroke-width="1.31" d="M30.354 228.039h28.395v28.396H30.353v-28.396ZM58.749 228.039h28.396v28.396H58.749v-28.396Z"/><path stroke="#F1F5F9" stroke-width="1.31" d="M87.145 228.039h28.396v28.396H87.146v-28.396ZM115.541 228.039h28.396v28.396h-28.396v-28.396Z"/><path fill="#F1F5F9" fill-opacity=".3" stroke="#F1F5F9" stroke-width="1.31" d="M143.937 228.039h28.395v28.396h-28.395v-28.396Z"/><path stroke="#F1F5F9" stroke-width="1.31" d="M285.917 228.039h28.396v28.396h-28.396v-28.396Z"/><path stroke="#F1F5F9" stroke-width="1.31" d="M314.312 228.039h28.396v28.396h-28.396v-28.396ZM598.27 228.039h28.396v28.396H598.27v-28.396ZM626.666 228.039h28.395v28.396h-28.395v-28.396ZM655.061 228.039h28.396v28.396h-28.396v-28.396ZM683.457 228.039h28.395v28.396h-28.395v-28.396ZM711.853 228.039h28.396v28.396h-28.396v-28.396ZM740.249 228.039h28.395v28.396h-28.395v-28.396ZM768.645 228.039h28.395v28.396h-28.395v-28.396ZM797.04 228.039h28.396v28.396H797.04v-28.396ZM967.417 228.039h28.396v28.396h-28.396v-28.396ZM995.813 228.039h28.397v28.396h-28.397v-28.396ZM1024.21 228.039h28.39v28.396h-28.39v-28.396Z"/><path stroke="#F1F5F9" stroke-width="1.31" d="M1052.6 228.039h28.4v28.396h-28.4v-28.396ZM1.959 256.435h28.396v28.396H1.959v-28.396Z"/><path stroke="#F1F5F9" stroke-width="1.31" d="M30.354 256.435h28.395v28.396H30.353v-28.396ZM58.749 256.435h28.396v28.396H58.749v-28.396Z"/><path fill="#F1F5F9" fill-opacity=".3" stroke="#F1F5F9" stroke-width="1.31" d="M87.145 256.435h28.396v28.396H87.146v-28.396Z"/><path stroke="#F1F5F9" stroke-width="1.31" d="M115.541 256.435h28.396v28.396h-28.396v-28.396ZM143.937 256.435h28.395v28.396h-28.395v-28.396ZM172.333 256.435h28.396v28.396h-28.396v-28.396ZM200.729 256.435h28.395v28.396h-28.395v-28.396ZM285.917 256.435h28.396v28.396h-28.396v-28.396ZM797.04 256.435h28.396v28.396H797.04v-28.396ZM825.436 256.435h28.395v28.396h-28.395v-28.396ZM967.417 256.435h28.396v28.396h-28.396v-28.396ZM995.813 256.435h28.397v28.396h-28.397v-28.396Z"/><path fill="#F1F5F9" fill-opacity=".3" stroke="#F1F5F9" stroke-width="1.31" d="M1024.21 256.435h28.39v28.396h-28.39v-28.396Z"/><path stroke="#F1F5F9" stroke-width="1.31" d="M1052.6 256.435h28.4v28.396h-28.4v-28.396ZM1.959 284.831h28.396v28.396H1.959v-28.396ZM87.145 284.831h28.396v28.396H87.146v-28.396ZM172.333 284.831h28.396v28.396h-28.396v-28.396Z"/><path fill="#F1F5F9" fill-opacity=".3" stroke="#F1F5F9" stroke-width="1.31" d="M200.729 284.831h28.395v28.396h-28.395v-28.396Z"/><path stroke="#F1F5F9" stroke-width="1.31" d="M314.312 284.831h28.396v28.396h-28.396v-28.396ZM342.708 284.831h28.396v28.396h-28.396v-28.396Z"/><path stroke="#F1F5F9" stroke-width="1.31" d="M371.104 284.831H399.5v28.396h-28.396v-28.396Z"/><path fill="#F1F5F9" fill-opacity=".3" stroke="#F1F5F9" stroke-width="1.31" d="M399.499 284.831h28.396v28.396h-28.396v-28.396Z"/><path stroke="#F1F5F9" stroke-width="1.31" d="M427.896 284.831h28.395v28.396h-28.395v-28.396ZM456.291 284.831h28.395v28.396h-28.395v-28.396ZM768.645 284.831h28.395v28.396h-28.395v-28.396Z"/><path stroke="#F1F5F9" stroke-width="1.31" d="M797.04 284.831h28.396v28.396H797.04v-28.396Z" opacity=".99"/><path stroke="#F1F5F9" stroke-width="1.31" d="M882.23 284.831h28.396v28.396H882.23v-28.396ZM910.626 284.831h28.396v28.396h-28.396v-28.396Z"/><path stroke="#F1F5F9" stroke-width="1.31" d="M939.021 284.831h28.396v28.396h-28.396v-28.396ZM1052.6 284.831h28.4v28.396h-28.4v-28.396ZM1.959 313.227h28.396v28.395H1.959v-28.395Z"/><path stroke="#F1F5F9" stroke-width="1.31" d="M30.354 313.227h28.395v28.395H30.353v-28.395ZM58.749 313.227h28.396v28.395H58.749v-28.395Z"/><path stroke="#F1F5F9" stroke-width="1.31" d="M87.145 313.227h28.396v28.395H87.146v-28.395ZM115.541 313.227h28.396v28.395h-28.396v-28.395ZM399.499 313.227h28.396v28.395h-28.396v-28.395ZM427.896 313.227h28.395v28.395h-28.395v-28.395ZM456.291 313.227h28.395v28.395h-28.395v-28.395ZM655.061 313.227h28.396v28.395h-28.396v-28.395ZM683.457 313.227h28.395v28.395h-28.395v-28.395ZM711.853 313.227h28.396v28.395h-28.396v-28.395ZM740.249 313.227h28.395v28.395h-28.395v-28.395Z"/><path fill="#F1F5F9" fill-opacity=".3" stroke="#F1F5F9" stroke-width="1.31" d="M768.645 313.227h28.395v28.395h-28.395v-28.395Z"/><path stroke="#F1F5F9" stroke-width="1.31" d="M797.04 313.227h28.396v28.395H797.04v-28.395ZM825.436 313.227h28.395v28.395h-28.395v-28.395ZM882.23 313.227h28.396v28.395H882.23v-28.395ZM910.626 313.227h28.396v28.395h-28.396v-28.395Z"/><path stroke="#F1F5F9" stroke-width="1.31" d="M939.021 313.227h28.396v28.395h-28.396v-28.395Z"/><path fill="#F1F5F9" fill-opacity=".3" stroke="#F1F5F9" stroke-width="1.31" d="M967.417 313.227h28.396v28.395h-28.396v-28.395Z"/><path stroke="#F1F5F9" stroke-width="1.31" d="M995.813 313.227h28.397v28.395h-28.397v-28.395ZM1024.21 313.227h28.39v28.395h-28.39v-28.395Z"/><path stroke="#F1F5F9" stroke-width="1.31" d="M1052.6 313.227h28.4v28.395h-28.4v-28.395ZM1.959 341.622h28.396v28.396H1.959v-28.396Z"/><path stroke="#F1F5F9" stroke-width="1.31" d="M30.354 341.622h28.395v28.396H30.353v-28.396Z"/><path fill="#F1F5F9" fill-opacity=".3" stroke="#F1F5F9" stroke-width="1.31" d="M58.749 341.622h28.396v28.396H58.749v-28.396Z"/><path stroke="#F1F5F9" stroke-width="1.31" d="M87.145 341.622h28.396v28.396H87.146v-28.396ZM115.541 341.622h28.396v28.396h-28.396v-28.396ZM143.937 341.622h28.395v28.396h-28.395v-28.396ZM172.333 341.622h28.396v28.396h-28.396v-28.396ZM200.729 341.622h28.395v28.396h-28.395v-28.396ZM229.125 341.622h28.396v28.396h-28.396v-28.396Z"/><path stroke="#F1F5F9" stroke-width="1.31" d="M257.519 341.622h28.395v28.396h-28.395v-28.396ZM285.917 341.622h28.396v28.396h-28.396v-28.396Z"/><path stroke="#F1F5F9" stroke-width="1.31" d="M314.312 341.622h28.396v28.396h-28.396v-28.396Z"/><path fill="#F1F5F9" fill-opacity=".3" stroke="#F1F5F9" stroke-width="1.31" d="M342.708 341.622h28.396v28.396h-28.396v-28.396Z"/><path stroke="#F1F5F9" stroke-width="1.31" d="M598.27 341.622h28.396v28.396H598.27v-28.396ZM626.666 341.622h28.395v28.396h-28.395v-28.396ZM655.061 341.622h28.396v28.396h-28.396v-28.396ZM683.457 341.622h28.395v28.396h-28.395v-28.396Z"/><path fill="#F1F5F9" fill-opacity=".3" stroke="#F1F5F9" stroke-width="1.31" d="M711.853 341.622h28.396v28.396h-28.396v-28.396Z"/><path stroke="#F1F5F9" stroke-width="1.31" d="M740.249 341.622h28.395v28.396h-28.395v-28.396ZM768.645 341.622h28.395v28.396h-28.395v-28.396ZM797.04 341.622h28.396v28.396H797.04v-28.396ZM825.436 341.622h28.395v28.396h-28.395v-28.396ZM853.831 341.622h28.396v28.396h-28.396v-28.396ZM882.23 341.622h28.396v28.396H882.23v-28.396ZM910.626 341.622h28.396v28.396h-28.396v-28.396Z"/><path stroke="#F1F5F9" stroke-width="1.31" d="M939.021 341.622h28.396v28.396h-28.396v-28.396ZM967.417 341.622h28.396v28.396h-28.396v-28.396ZM995.813 341.622h28.397v28.396h-28.397v-28.396ZM1024.21 341.622h28.39v28.396h-28.39v-28.396Z"/><path stroke="#F1F5F9" stroke-width="1.31" d="M1052.6 341.622h28.4v28.396h-28.4v-28.396ZM1.959 370.018h28.396v28.396H1.959v-28.396Z"/><path stroke="#F1F5F9" stroke-width="1.31" d="M30.354 370.018h28.395v28.396H30.353v-28.396ZM58.749 370.018h28.396v28.396H58.749v-28.396Z"/><path stroke="#F1F5F9" stroke-width="1.31" d="M87.145 370.018h28.396v28.396H87.146v-28.396ZM115.541 370.018h28.396v28.396h-28.396v-28.396Z"/><path fill="#F1F5F9" fill-opacity=".3" stroke="#F1F5F9" stroke-width="1.31" d="M143.937 370.018h28.395v28.396h-28.395v-28.396Z"/><path stroke="#F1F5F9" stroke-width="1.31" d="M285.917 370.018h28.396v28.396h-28.396v-28.396Z"/><path stroke="#F1F5F9" stroke-width="1.31" d="M314.312 370.018h28.396v28.396h-28.396v-28.396ZM598.27 370.018h28.396v28.396H598.27v-28.396ZM626.666 370.018h28.395v28.396h-28.395v-28.396ZM655.061 370.018h28.396v28.396h-28.396v-28.396ZM683.457 370.018h28.395v28.396h-28.395v-28.396ZM711.853 370.018h28.396v28.396h-28.396v-28.396ZM740.249 370.018h28.395v28.396h-28.395v-28.396ZM768.645 370.018h28.395v28.396h-28.395v-28.396ZM797.04 370.018h28.396v28.396H797.04v-28.396ZM967.417 370.018h28.396v28.396h-28.396v-28.396ZM995.813 370.018h28.397v28.396h-28.397v-28.396ZM1024.21 370.018h28.39v28.396h-28.39v-28.396Z"/><path stroke="#F1F5F9" stroke-width="1.31" d="M1052.6 370.018h28.4v28.396h-28.4v-28.396ZM1.959 398.414h28.396v28.396H1.959v-28.396Z"/><path stroke="#F1F5F9" stroke-width="1.31" d="M30.354 398.414h28.395v28.396H30.353v-28.396ZM87.145 398.414h28.396v28.396H87.146v-28.396ZM115.541 398.414h28.396v28.396h-28.396v-28.396ZM143.937 398.414h28.395v28.396h-28.395v-28.396ZM172.333 398.414h28.396v28.396h-28.396v-28.396ZM200.729 398.414h28.395v28.396h-28.395v-28.396ZM257.519 398.414h28.395v28.396h-28.395v-28.396ZM285.917 398.414h28.396v28.396h-28.396v-28.396Z"/><path stroke="#F1F5F9" stroke-width="1.31" d="M314.312 398.414h28.396v28.396h-28.396v-28.396ZM342.708 398.414h28.396v28.396h-28.396v-28.396ZM541.479 398.414h28.395v28.396h-28.395v-28.396ZM569.874 398.414h28.396v28.396h-28.396v-28.396ZM598.27 398.414h28.396v28.396H598.27v-28.396ZM626.666 398.414h28.395v28.396h-28.395v-28.396ZM655.061 398.414h28.396v28.396h-28.396v-28.396ZM683.457 398.414h28.395v28.396h-28.395v-28.396ZM711.853 398.414h28.396v28.396h-28.396v-28.396ZM768.645 398.414h28.395v28.396h-28.395v-28.396Z"/><path fill="#F1F5F9" fill-opacity=".3" stroke="#F1F5F9" stroke-width="1.31" d="M825.436 398.414h28.395v28.396h-28.395v-28.396Z"/><path stroke="#F1F5F9" stroke-width="1.31" d="M853.831 398.414h28.396v28.396h-28.396v-28.396ZM1024.21 398.414h28.39v28.396h-28.39v-28.396Z"/><path fill="#F1F5F9" fill-opacity=".3" stroke="#F1F5F9" stroke-width="1.31" d="M1052.6 398.414h28.4v28.396h-28.4v-28.396Z"/><path stroke="#F1F5F9" stroke-width="1.31" d="M1.959 426.81h28.396v28.395H1.959V426.81Z"/><path stroke="#F1F5F9" stroke-width="1.31" d="M30.354 426.81h28.395v28.395H30.353V426.81ZM314.312 426.81h28.396v28.395h-28.396V426.81ZM342.708 426.81h28.396v28.395h-28.396V426.81Z"/><path stroke="#F1F5F9" stroke-width="1.31" d="M371.104 426.81H399.5v28.395h-28.396V426.81Z"/><path stroke="#F1F5F9" stroke-width="1.31" d="M399.499 426.81h28.396v28.395h-28.396V426.81ZM882.23 426.81h28.396v28.395H882.23V426.81Z"/><path fill="#F1F5F9" fill-opacity=".3" stroke="#F1F5F9" stroke-width="1.31" d="M910.626 426.81h28.396v28.395h-28.396V426.81Z"/><path stroke="#F1F5F9" stroke-width="1.31" d="M939.021 426.81h28.396v28.395h-28.396V426.81ZM1052.6 426.81h28.4v28.395h-28.4V426.81ZM1.959 455.205h28.396v28.396H1.959v-28.396Z"/><path stroke="#F1F5F9" stroke-width="1.31" d="M30.354 455.205h28.395v28.396H30.353v-28.396ZM58.749 455.205h28.396v28.396H58.749v-28.396Z"/><path stroke="#F1F5F9" stroke-width="1.31" d="M87.145 455.205h28.396v28.396H87.146v-28.396ZM115.541 455.205h28.396v28.396h-28.396v-28.396ZM143.937 455.205h28.395v28.396h-28.395v-28.396Z"/><path fill="#F1F5F9" fill-opacity=".3" stroke="#F1F5F9" stroke-width="1.31" d="M172.333 455.205h28.396v28.396h-28.396v-28.396Z"/><path stroke="#F1F5F9" stroke-width="1.31" d="M200.729 455.205h28.395v28.396h-28.395v-28.396ZM229.125 455.205h28.396v28.396h-28.396v-28.396Z"/><path stroke="#F1F5F9" stroke-width="1.31" d="M257.519 455.205h28.395v28.396h-28.395v-28.396ZM285.917 455.205h28.396v28.396h-28.396v-28.396Z"/><path stroke="#F1F5F9" stroke-width="1.31" d="M314.312 455.205h28.396v28.396h-28.396v-28.396ZM342.708 455.205h28.396v28.396h-28.396v-28.396Z"/><path stroke="#F1F5F9" stroke-width="1.31" d="M371.104 455.205H399.5v28.396h-28.396v-28.396ZM484.687 455.205h28.395v28.396h-28.395v-28.396ZM513.082 455.205h28.396v28.396h-28.396v-28.396ZM541.479 455.205h28.395v28.396h-28.395v-28.396ZM569.874 455.205h28.396v28.396h-28.396v-28.396ZM598.27 455.205h28.396v28.396H598.27v-28.396ZM626.666 455.205h28.395v28.396h-28.395v-28.396ZM655.061 455.205h28.396v28.396h-28.396v-28.396ZM683.457 455.205h28.395v28.396h-28.395v-28.396ZM711.853 455.205h28.396v28.396h-28.396v-28.396ZM740.249 455.205h28.395v28.396h-28.395v-28.396ZM768.645 455.205h28.395v28.396h-28.395v-28.396ZM797.04 455.205h28.396v28.396H797.04v-28.396ZM825.436 455.205h28.395v28.396h-28.395v-28.396ZM853.831 455.205h28.396v28.396h-28.396v-28.396ZM882.23 455.205h28.396v28.396H882.23v-28.396ZM1024.21 455.205h28.39v28.396h-28.39v-28.396Z"/><path stroke="#F1F5F9" stroke-width="1.31" d="M1052.6 455.205h28.4v28.396h-28.4v-28.396ZM1.959 483.601h28.396v28.396H1.959v-28.396Z"/><path stroke="#F1F5F9" stroke-width="1.31" d="M30.354 483.601h28.395v28.396H30.353v-28.396Z"/><path fill="#F1F5F9" fill-opacity=".3" stroke="#F1F5F9" stroke-width="1.31" d="M58.749 483.601h28.396v28.396H58.749v-28.396Z"/><path stroke="#F1F5F9" stroke-width="1.31" d="M87.145 483.601h28.396v28.396H87.146v-28.396ZM427.896 483.601h28.395v28.396h-28.395v-28.396ZM513.082 483.601h28.396v28.396h-28.396v-28.396ZM541.479 483.601h28.395v28.396h-28.395v-28.396ZM569.874 483.601h28.396v28.396h-28.396v-28.396ZM598.27 483.601h28.396v28.396H598.27v-28.396ZM683.457 483.601h28.395v28.396h-28.395v-28.396ZM711.853 483.601h28.396v28.396h-28.396v-28.396Z"/><path fill="#F1F5F9" fill-opacity=".3" stroke="#F1F5F9" stroke-width="1.31" d="M740.249 483.601h28.395v28.396h-28.395v-28.396Z"/><path stroke="#F1F5F9" stroke-width="1.31" d="M768.645 483.601h28.395v28.396h-28.395v-28.396ZM797.04 483.601h28.396v28.396H797.04v-28.396ZM939.021 483.601h28.396v28.396h-28.396v-28.396ZM967.417 483.601h28.396v28.396h-28.396v-28.396ZM995.813 483.601h28.397v28.396h-28.397v-28.396ZM1024.21 483.601h28.39v28.396h-28.39v-28.396Z"/><path stroke="#F1F5F9" stroke-width="1.31" d="M1052.6 483.601h28.4v28.396h-28.4v-28.396ZM1.959 511.997h28.396v28.396H1.959v-28.396Z"/><path stroke="#F1F5F9" stroke-width="1.31" d="M30.354 511.997h28.395v28.396H30.353v-28.396ZM58.749 511.997h28.396v28.396H58.749v-28.396Z"/><path stroke="#F1F5F9" stroke-width="1.31" d="M87.145 511.997h28.396v28.396H87.146v-28.396ZM115.541 511.997h28.396v28.396h-28.396v-28.396ZM143.937 511.997h28.395v28.396h-28.395v-28.396ZM200.729 511.997h28.395v28.396h-28.395v-28.396ZM342.708 511.997h28.396v28.396h-28.396v-28.396Z"/><path stroke="#F1F5F9" stroke-width="1.31" d="M371.104 511.997H399.5v28.396h-28.396v-28.396Z"/><path stroke="#F1F5F9" stroke-width="1.31" d="M399.499 511.997h28.396v28.396h-28.396v-28.396ZM427.896 511.997h28.395v28.396h-28.395v-28.396ZM541.479 511.997h28.395v28.396h-28.395v-28.396ZM569.874 511.997h28.396v28.396h-28.396v-28.396ZM711.853 511.997h28.396v28.396h-28.396v-28.396ZM740.249 511.997h28.395v28.396h-28.395v-28.396ZM768.645 511.997h28.395v28.396h-28.395v-28.396ZM797.04 511.997h28.396v28.396H797.04v-28.396ZM825.436 511.997h28.395v28.396h-28.395v-28.396ZM967.417 511.997h28.396v28.396h-28.396v-28.396Z"/><path fill="#F1F5F9" fill-opacity=".3" stroke="#F1F5F9" stroke-width="1.31" d="M995.813 511.997h28.397v28.396h-28.397v-28.396Z"/><path stroke="#F1F5F9" stroke-width="1.31" d="M1024.21 511.997h28.39v28.396h-28.39v-28.396Z"/><path stroke="#F1F5F9" stroke-width="1.31" d="M1052.6 511.997h28.4v28.396h-28.4v-28.396ZM1.959 540.393h28.396v28.395H1.959v-28.395Z"/><path stroke="#F1F5F9" stroke-width="1.31" d="M30.354 540.393h28.395v28.395H30.353v-28.395ZM58.749 540.393h28.396v28.395H58.749v-28.395Z"/><path stroke="#F1F5F9" stroke-width="1.31" d="M87.145 540.393h28.396v28.395H87.146v-28.395ZM115.541 540.393h28.396v28.395h-28.396v-28.395ZM143.937 540.393h28.395v28.395h-28.395v-28.395Z"/><path fill="#F1F5F9" fill-opacity=".3" stroke="#F1F5F9" stroke-width="1.31" d="M172.333 540.393h28.396v28.395h-28.396v-28.395Z"/><path stroke="#F1F5F9" stroke-width="1.31" d="M200.729 540.393h28.395v28.395h-28.395v-28.395ZM229.125 540.393h28.396v28.395h-28.396v-28.395Z"/><path stroke="#F1F5F9" stroke-width="1.31" d="M257.519 540.393h28.395v28.395h-28.395v-28.395ZM285.917 540.393h28.396v28.395h-28.396v-28.395Z"/><path stroke="#F1F5F9" stroke-width="1.31" d="M314.312 540.393h28.396v28.395h-28.396v-28.395ZM342.708 540.393h28.396v28.395h-28.396v-28.395Z"/><path fill="#F1F5F9" fill-opacity=".3" stroke="#F1F5F9" stroke-width="1.31" d="M371.104 540.393H399.5v28.395h-28.396v-28.395Z"/><path stroke="#F1F5F9" stroke-width="1.31" d="M399.499 540.393h28.396v28.395h-28.396v-28.395ZM427.896 540.393h28.395v28.395h-28.395v-28.395ZM456.291 540.393h28.395v28.395h-28.395v-28.395ZM484.687 540.393h28.395v28.395h-28.395v-28.395ZM513.082 540.393h28.396v28.395h-28.396v-28.395ZM541.479 540.393h28.395v28.395h-28.395v-28.395ZM569.874 540.393h28.396v28.395h-28.396v-28.395ZM626.666 540.393h28.395v28.395h-28.395v-28.395ZM655.061 540.393h28.396v28.395h-28.396v-28.395ZM683.457 540.393h28.395v28.395h-28.395v-28.395Z"/><path fill="#F1F5F9" fill-opacity=".3" stroke="#F1F5F9" stroke-width="1.31" d="M711.853 540.393h28.396v28.395h-28.396v-28.395Z"/><path stroke="#F1F5F9" stroke-width="1.31" d="M995.813 540.393h28.397v28.395h-28.397v-28.395ZM1024.21 540.393h28.39v28.395h-28.39v-28.395Z"/><path stroke="#F1F5F9" stroke-width="1.31" d="M1052.6 540.393h28.4v28.395h-28.4v-28.395ZM1.959 568.789h28.396v28.395H1.959v-28.395Z"/><path stroke="#F1F5F9" stroke-width="1.31" d="M30.354 568.789h28.395v28.395H30.353v-28.395ZM87.145 568.789h28.396v28.395H87.146v-28.395ZM115.541 568.789h28.396v28.395h-28.396v-28.395ZM143.937 568.789h28.395v28.395h-28.395v-28.395ZM257.519 568.789h28.395v28.395h-28.395v-28.395ZM285.917 568.789h28.396v28.395h-28.396v-28.395ZM484.687 568.789h28.395v28.395h-28.395v-28.395ZM513.082 568.789h28.396v28.395h-28.396v-28.395ZM541.479 568.789h28.395v28.395h-28.395v-28.395ZM626.666 568.789h28.395v28.395h-28.395v-28.395ZM655.061 568.789h28.396v28.395h-28.396v-28.395ZM683.457 568.789h28.395v28.395h-28.395v-28.395ZM711.853 568.789h28.396v28.395h-28.396v-28.395ZM740.249 568.789h28.395v28.395h-28.395v-28.395ZM768.645 568.789h28.395v28.395h-28.395v-28.395ZM797.04 568.789h28.396v28.395H797.04v-28.395ZM939.021 568.789h28.396v28.395h-28.396v-28.395ZM967.417 568.789h28.396v28.395h-28.396v-28.395ZM995.813 568.789h28.397v28.395h-28.397v-28.395Z"/><path fill="#F1F5F9" fill-opacity=".3" stroke="#F1F5F9" stroke-width="1.31" d="M1024.21 568.789h28.39v28.395h-28.39v-28.395Z"/><path stroke="#F1F5F9" stroke-width="1.31" d="M1052.6 568.789h28.4v28.395h-28.4v-28.395ZM1.959 597.184h28.396v28.396H1.959v-28.396Z"/><path stroke="#F1F5F9" stroke-width="1.31" d="M30.354 597.184h28.395v28.396H30.353v-28.396ZM115.541 597.184h28.396v28.396h-28.396v-28.396ZM143.937 597.184h28.395v28.396h-28.395v-28.396Z"/><path fill="#F1F5F9" fill-opacity=".3" stroke="#F1F5F9" stroke-width="1.31" d="M172.333 597.184h28.396v28.396h-28.396v-28.396Z"/><path stroke="#F1F5F9" stroke-width="1.31" d="M200.729 597.184h28.395v28.396h-28.395v-28.396ZM229.125 597.184h28.396v28.396h-28.396v-28.396Z"/><path fill="#F1F5F9" fill-opacity=".3" stroke="#F1F5F9" stroke-width="1.31" d="M257.519 597.184h28.395v28.396h-28.395v-28.396Z"/><path stroke="#F1F5F9" stroke-width="1.31" d="M285.917 597.184h28.396v28.396h-28.396v-28.396ZM399.499 597.184h28.396v28.396h-28.396v-28.396ZM427.896 597.184h28.395v28.396h-28.395v-28.396ZM456.291 597.184h28.395v28.396h-28.395v-28.396Z"/><path fill="#F1F5F9" fill-opacity=".3" stroke="#F1F5F9" stroke-width="1.31" d="M484.687 597.184h28.395v28.396h-28.395v-28.396Z"/><path stroke="#F1F5F9" stroke-width="1.31" d="M655.061 597.184h28.396v28.396h-28.396v-28.396ZM683.457 597.184h28.395v28.396h-28.395v-28.396ZM711.853 597.184h28.396v28.396h-28.396v-28.396ZM740.249 597.184h28.395v28.396h-28.395v-28.396ZM768.645 597.184h28.395v28.396h-28.395v-28.396ZM797.04 597.184h28.396v28.396H797.04v-28.396ZM825.436 597.184h28.395v28.396h-28.395v-28.396ZM853.831 597.184h28.396v28.396h-28.396v-28.396ZM967.417 597.184h28.396v28.396h-28.396v-28.396ZM995.813 597.184h28.397v28.396h-28.397v-28.396ZM1024.21 597.184h28.39v28.396h-28.39v-28.396Z"/><path stroke="#F1F5F9" stroke-width="1.31" d="M1052.6 597.184h28.4v28.396h-28.4v-28.396ZM1 625.453h28.396v28.396H1v-28.396Z"/><path stroke="#F1F5F9" stroke-width="1.31" d="M29.395 625.453H57.79v28.396H29.395v-28.396Z"/><path fill="#F1F5F9" fill-opacity=".3" stroke="#F1F5F9" stroke-width="1.31" d="M57.79 625.453h28.396v28.396H57.79v-28.396Z"/><path stroke="#F1F5F9" stroke-width="1.31" d="M86.186 625.453h28.396v28.396H86.187v-28.396Z"/><path stroke="#F1F5F9" stroke-width="1.31" d="M114.582 625.453h28.396v28.396h-28.396v-28.396ZM142.978 625.453h28.395v28.396h-28.395v-28.396ZM171.375 625.453h28.396v28.396h-28.396v-28.396Z"/><path stroke="#F1F5F9" stroke-width="1.31" d="M199.771 625.453h28.395v28.396h-28.395v-28.396Z"/><path fill="#F1F5F9" fill-opacity=".3" stroke="#F1F5F9" stroke-width="1.31" d="M228.167 625.453h28.396v28.396h-28.396v-28.396Z"/><path stroke="#F1F5F9" stroke-width="1.31" d="M256.561 625.453h28.395v28.396h-28.395v-28.396ZM284.958 625.453h28.396v28.396h-28.396v-28.396Z"/><path stroke="#F1F5F9" stroke-width="1.31" d="M313.354 625.453h28.395v28.396h-28.395v-28.396ZM597.312 625.453h28.395v28.396h-28.395v-28.396ZM625.707 625.453h28.396v28.396h-28.396v-28.396ZM654.103 625.453h28.395v28.396h-28.395v-28.396ZM682.498 625.453h28.396v28.396h-28.396v-28.396Z"/><path fill="#F1F5F9" fill-opacity=".3" stroke="#F1F5F9" stroke-width="1.31" d="M710.894 625.453h28.396v28.396h-28.396v-28.396Z"/><path stroke="#F1F5F9" stroke-width="1.31" d="M739.29 625.453h28.395v28.396H739.29v-28.396ZM767.686 625.453h28.395v28.396h-28.395v-28.396Z"/><path fill="#F1F5F9" fill-opacity=".3" stroke="#F1F5F9" stroke-width="1.31" d="M796.082 625.453h28.395v28.396h-28.395v-28.396Z"/><path stroke="#F1F5F9" stroke-width="1.31" d="M824.477 625.453h28.396v28.396h-28.396v-28.396ZM852.873 625.453h28.395v28.396h-28.395v-28.396ZM881.271 625.453h28.396v28.396h-28.396v-28.396ZM909.667 625.453h28.396v28.396h-28.396v-28.396Z"/><path stroke="#F1F5F9" stroke-width="1.31" d="M938.062 625.453h28.396v28.396h-28.396v-28.396ZM966.458 625.453h28.396v28.396h-28.396v-28.396ZM994.854 625.453h28.396v28.396h-28.396v-28.396ZM1023.25 625.453h28.4v28.396h-28.4v-28.396Z"/><path fill="#F1F5F9" fill-opacity=".3" stroke="#F1F5F9" stroke-width="1.31" d="M1051.65 625.453h28.39v28.396h-28.39v-28.396Z"/><path stroke="#F1F5F9" stroke-width="1.31" d="M1 653.849h28.396v28.395H1v-28.395Z"/><path stroke="#F1F5F9" stroke-width="1.31" d="M29.395 653.849H57.79v28.395H29.395v-28.395ZM57.79 653.849h28.396v28.395H57.79v-28.395ZM86.186 653.849h28.396v28.395H86.187v-28.395Z"/><path stroke="#F1F5F9" stroke-width="1.31" d="M114.582 653.849h28.396v28.395h-28.396v-28.395ZM142.978 653.849h28.395v28.395h-28.395v-28.395Z"/><path fill="#F1F5F9" fill-opacity=".3" stroke="#F1F5F9" stroke-width="1.31" d="M171.375 653.849h28.396v28.395h-28.396v-28.395Z"/><path stroke="#F1F5F9" stroke-width="1.31" d="M199.771 653.849h28.395v28.395h-28.395v-28.395ZM313.354 653.849h28.395v28.395h-28.395v-28.395ZM341.749 653.849h28.396v28.395h-28.396v-28.395Z"/><path stroke="#F1F5F9" stroke-width="1.31" d="M370.145 653.849h28.396v28.395h-28.396v-28.395Z"/><path stroke="#F1F5F9" stroke-width="1.31" d="M398.54 653.849h28.396v28.395H398.54v-28.395ZM426.937 653.849h28.395v28.395h-28.395v-28.395ZM455.332 653.849h28.396v28.395h-28.396v-28.395ZM881.271 653.849h28.396v28.395h-28.396v-28.395Z"/><path fill="#F1F5F9" fill-opacity=".3" stroke="#F1F5F9" stroke-width="1.31" d="M909.667 653.849h28.396v28.395h-28.396v-28.395Z"/><path stroke="#F1F5F9" stroke-width="1.31" d="M938.062 653.849h28.396v28.395h-28.396v-28.395ZM966.458 653.849h28.396v28.395h-28.396v-28.395ZM994.854 653.849h28.396v28.395h-28.396v-28.395ZM1023.25 653.849h28.4v28.395h-28.4v-28.395ZM1051.65 653.849h28.39v28.395h-28.39v-28.395ZM1 682.245h28.396v28.395H1v-28.395Z"/><path stroke="#F1F5F9" stroke-width="1.31" d="M29.395 682.245H57.79v28.395H29.395v-28.395ZM57.79 682.245h28.396v28.395H57.79v-28.395ZM86.186 682.245h28.396v28.395H86.187v-28.395Z"/><path stroke="#F1F5F9" stroke-width="1.31" d="M114.582 682.245h28.396v28.395h-28.396v-28.395ZM142.978 682.245h28.395v28.395h-28.395v-28.395ZM313.354 682.245h28.395v28.395h-28.395v-28.395ZM597.312 682.245h28.395v28.395h-28.395v-28.395ZM625.707 682.245h28.396v28.395h-28.396v-28.395ZM654.103 682.245h28.395v28.395h-28.395v-28.395ZM682.498 682.245h28.396v28.395h-28.396v-28.395ZM710.894 682.245h28.396v28.395h-28.396v-28.395ZM739.29 682.245h28.395v28.395H739.29v-28.395ZM767.686 682.245h28.395v28.395h-28.395v-28.395ZM938.062 682.245h28.396v28.395h-28.396v-28.395ZM966.458 682.245h28.396v28.395h-28.396v-28.395ZM994.854 682.245h28.396v28.395h-28.396v-28.395ZM1023.25 682.245h28.4v28.395h-28.4v-28.395ZM1051.65 682.245h28.39v28.395h-28.39v-28.395Z"/></svg>