<svg xmlns="http://www.w3.org/2000/svg" width="24" height="24" fill="none"><path stroke="#94A3B8" stroke-linecap="round" stroke-linejoin="round" stroke-width="1.5" d="M4.75 6.75a2 2 0 0 1 2-2h10.5a2 2 0 0 1 2 2v7.5a2 2 0 0 1-2 2h-2.625l-2.625 3-2.625-3H6.75a2 2 0 0 1-2-2v-7.5Z"/><path stroke="#94A3B8" stroke-linecap="round" stroke-linejoin="round" stroke-width="2" d="M12 8v2"/><path stroke="#94A3B8" stroke-linecap="round" stroke-linejoin="round" d="M12.5 13a.5.5 0 1 1-1 0 .5.5 0 0 1 1 0Z"/></svg>