<svg width="250" height="62" viewBox="0 0 250 62" fill="none" xmlns="http://www.w3.org/2000/svg">
<path d="M104.262 51.215L101.81 42.2496H102.913L104.787 49.5515H104.874L106.783 42.2496H108.009L109.918 49.5515H110.005L111.879 42.2496H112.982L110.53 51.215H109.41L107.431 44.0707H107.361L105.382 51.215H104.262ZM119.882 51.215V42.2496H120.968V46.242H125.748V42.2496H126.834V51.215H125.748V47.2051H120.968V51.215H119.882ZM142.119 46.7323C142.119 47.6778 141.948 48.495 141.607 49.1837C141.265 49.8725 140.797 50.4036 140.202 50.7772C139.606 51.1508 138.926 51.3375 138.162 51.3375C137.397 51.3375 136.717 51.1508 136.122 50.7772C135.526 50.4036 135.058 49.8725 134.716 49.1837C134.375 48.495 134.204 47.6778 134.204 46.7323C134.204 45.7867 134.375 44.9695 134.716 44.2808C135.058 43.592 135.526 43.0609 136.122 42.6873C136.717 42.3138 137.397 42.127 138.162 42.127C138.926 42.127 139.606 42.3138 140.202 42.6873C140.797 43.0609 141.265 43.592 141.607 44.2808C141.948 44.9695 142.119 45.7867 142.119 46.7323ZM141.068 46.7323C141.068 45.956 140.938 45.3008 140.679 44.7667C140.422 44.2326 140.073 43.8284 139.632 43.5541C139.195 43.2798 138.704 43.1426 138.162 43.1426C137.619 43.1426 137.127 43.2798 136.686 43.5541C136.249 43.8284 135.9 44.2326 135.64 44.7667C135.383 45.3008 135.255 45.956 135.255 46.7323C135.255 47.5086 135.383 48.1638 135.64 48.6978C135.9 49.2319 136.249 49.6361 136.686 49.9104C137.127 50.1848 137.619 50.3219 138.162 50.3219C138.704 50.3219 139.195 50.1848 139.632 49.9104C140.073 49.6361 140.422 49.2319 140.679 48.6978C140.938 48.1638 141.068 47.5086 141.068 46.7323ZM149.492 51.215V42.2496H150.577V50.2519H154.745V51.215H149.492ZM161.973 51.215V42.2496H167.384V43.2127H163.059V46.242H167.104V47.2051H163.059V50.2519H167.454V51.215H161.973ZM179.791 44.4909C179.739 44.0473 179.526 43.7029 179.152 43.4578C178.778 43.2127 178.32 43.0901 177.777 43.0901C177.38 43.0901 177.033 43.1543 176.736 43.2827C176.441 43.4111 176.21 43.5877 176.044 43.8124C175.88 44.0371 175.799 44.2925 175.799 44.5785C175.799 44.8178 175.856 45.0235 175.969 45.1957C176.086 45.365 176.235 45.5065 176.416 45.6203C176.597 45.7312 176.787 45.8232 176.985 45.8961C177.183 45.9662 177.366 46.0231 177.532 46.0669L178.443 46.312C178.676 46.3733 178.936 46.4579 179.222 46.5659C179.511 46.6739 179.787 46.8213 180.049 47.0081C180.315 47.1919 180.534 47.4283 180.706 47.7172C180.878 48.0062 180.964 48.3607 180.964 48.781C180.964 49.2655 180.837 49.7032 180.583 50.0943C180.332 50.4854 179.965 50.7962 179.48 51.0267C178.999 51.2573 178.414 51.3726 177.725 51.3726C177.083 51.3726 176.527 51.269 176.057 51.0617C175.59 50.8545 175.222 50.5656 174.954 50.195C174.688 49.8243 174.538 49.3939 174.503 48.9036H175.624C175.653 49.2421 175.767 49.5223 175.965 49.7441C176.166 49.963 176.42 50.1264 176.727 50.2344C177.036 50.3394 177.369 50.392 177.725 50.392C178.139 50.392 178.511 50.3248 178.841 50.1906C179.171 50.0534 179.432 49.8637 179.625 49.6215C179.817 49.3764 179.914 49.0904 179.914 48.7635C179.914 48.4658 179.831 48.2236 179.664 48.0368C179.498 47.85 179.279 47.6983 179.008 47.5815C178.736 47.4648 178.443 47.3626 178.128 47.2751L177.024 46.9599C176.324 46.7585 175.77 46.4711 175.361 46.0975C174.952 45.724 174.748 45.2351 174.748 44.631C174.748 44.129 174.884 43.6913 175.155 43.3177C175.43 42.9412 175.797 42.6494 176.258 42.4422C176.722 42.2321 177.24 42.127 177.812 42.127C178.39 42.127 178.904 42.2306 179.353 42.4378C179.803 42.6421 180.159 42.9223 180.421 43.2783C180.687 43.6344 180.827 44.0386 180.842 44.4909H179.791ZM188.664 51.215H187.526L190.818 42.2496H191.939L195.231 51.215H194.093L191.414 43.6679H191.343L188.664 51.215ZM189.085 47.7129H193.672V48.6759H189.085V47.7129ZM202.175 51.215V42.2496H203.26V50.2519H207.428V51.215H202.175ZM214.656 51.215V42.2496H220.067V43.2127H215.742V46.242H219.787V47.2051H215.742V50.2519H220.137V51.215H214.656Z" fill="white"/>
<path d="M98.5843 7.16405H104.081V24.0486C104.081 25.9444 103.629 27.6032 102.723 29.0251C101.826 30.4469 100.569 31.5556 98.9525 32.3512C97.336 33.1383 95.4528 33.5319 93.3031 33.5319C91.145 33.5319 89.2576 33.1383 87.6411 32.3512C86.0246 31.5556 84.7678 30.4469 83.8706 29.0251C82.9735 27.6032 82.525 25.9444 82.525 24.0486V7.16405H88.022V23.5789C88.022 24.5691 88.2378 25.4493 88.6694 26.2195C89.1095 26.9896 89.7273 27.5948 90.5229 28.0349C91.3185 28.475 92.2452 28.695 93.3031 28.695C94.3695 28.695 95.2963 28.475 96.0834 28.0349C96.8789 27.5948 97.4925 26.9896 97.9242 26.2195C98.3643 25.4493 98.5843 24.5691 98.5843 23.5789V7.16405ZM117.541 33.1637V7.16405H127.799C129.763 7.16405 131.438 7.51529 132.826 8.21775C134.223 8.91175 135.285 9.89774 136.013 11.1757C136.749 12.4452 137.117 13.939 137.117 15.6571C137.117 17.3836 136.745 18.869 136 20.1131C135.255 21.3488 134.176 22.2967 132.763 22.9568C131.358 23.617 129.657 23.947 127.659 23.947H120.791V19.5291H126.771C127.82 19.5291 128.692 19.3852 129.386 19.0975C130.08 18.8097 130.596 18.3781 130.935 17.8026C131.282 17.2271 131.455 16.5119 131.455 15.6571C131.455 14.7938 131.282 14.066 130.935 13.4735C130.596 12.8811 130.076 12.4325 129.373 12.1279C128.679 11.8147 127.803 11.6581 126.745 11.6581H123.038V33.1637H117.541ZM131.582 21.3318L138.044 33.1637H131.976L125.654 21.3318H131.582ZM149.939 33.1637V7.16405H160.349C162.262 7.16405 163.857 7.44758 165.135 8.01463C166.413 8.58168 167.374 9.36878 168.017 10.3759C168.66 11.3746 168.982 12.5256 168.982 13.829C168.982 14.8446 168.779 15.7375 168.373 16.5077C167.966 17.2694 167.408 17.8957 166.697 18.3866C165.994 18.869 165.19 19.2117 164.285 19.4149V19.6688C165.275 19.7111 166.202 19.9904 167.065 20.5066C167.937 21.0229 168.643 21.7465 169.185 22.6775C169.727 23.6 169.998 24.7003 169.998 25.9782C169.998 27.3578 169.655 28.5892 168.969 29.6725C168.292 30.7474 167.289 31.598 165.961 32.2243C164.632 32.8505 162.994 33.1637 161.048 33.1637H149.939ZM155.436 28.6696H159.918C161.45 28.6696 162.567 28.3776 163.269 27.7937C163.972 27.2012 164.323 26.4141 164.323 25.4324C164.323 24.713 164.149 24.0782 163.802 23.5281C163.455 22.978 162.96 22.5463 162.317 22.2332C161.682 21.92 160.925 21.7635 160.045 21.7635H155.436V28.6696ZM155.436 18.0438H159.511C160.265 18.0438 160.933 17.9126 161.517 17.6502C162.11 17.3794 162.575 16.9986 162.914 16.5077C163.261 16.0168 163.434 15.4286 163.434 14.7431C163.434 13.8036 163.1 13.0461 162.431 12.4706C161.771 11.8951 160.832 11.6074 159.613 11.6074H155.436V18.0438ZM186.993 33.1637H181.103L190.078 7.16405H197.162L206.125 33.1637H200.234L193.722 13.1054H193.519L186.993 33.1637ZM186.625 22.9441H200.539V27.2351H186.625V22.9441ZM239.938 7.16405V33.1637H235.19L223.879 16.7997H223.689V33.1637H218.192V7.16405H223.016L234.238 23.5154H234.467V7.16405H239.938Z" fill="white"/>
<circle cx="30.82" cy="30.82" r="30.82" fill="#FEF2F2"/>
<path fill-rule="evenodd" clip-rule="evenodd" d="M0 30.8185C0 47.8396 13.7975 61.6371 30.8185 61.6371C47.8396 61.6371 61.6371 47.8396 61.6371 30.8185C61.6371 13.7975 47.8396 0 30.8185 0C13.7975 0 0 13.7975 0 30.8185ZM30.8185 55.4734C19.6252 55.4734 10.2919 47.5176 8.16075 36.9514C7.65841 34.452 9.7741 32.3595 12.3274 32.3595H49.3097C51.863 32.3595 53.9802 34.4505 53.4763 36.9514C51.3437 47.5191 42.0118 55.4734 30.8185 55.4734Z" fill="#DC2626"/>
<mask id="path-5-outside-1_110_230" maskUnits="userSpaceOnUse" x="14.2856" y="38.2012" width="33" height="13" fill="black">
<rect fill="white" x="14.2856" y="38.2012" width="33" height="13"/>
<path d="M36.935 42.7036C36.9069 42.7999 36.9462 42.9032 37.0313 42.9563C37.6372 43.3349 38.2456 43.7151 38.8886 44.1168C39.1931 44.3071 39.1961 44.77 38.8759 44.9325C31.6371 48.6058 22.8041 46.2281 18.3852 39.4228C18.2964 39.2862 18.1478 39.2012 17.9849 39.2012H16.5389C16.1304 39.2012 15.9262 39.2012 15.7963 39.2959C15.6876 39.3752 15.6097 39.5112 15.5963 39.645C15.5802 39.8049 15.6782 39.9721 15.8742 40.3065C18.2502 44.3601 22.8869 48.1231 28.8077 49.0453C34.8423 49.9851 41.9369 47.4713 45.2501 43.3603C45.5122 43.0352 45.6432 42.8726 45.6406 42.6946C45.6385 42.5506 45.5553 42.3893 45.4391 42.3041C45.2955 42.1988 45.0692 42.2125 44.6166 42.2398C42.0396 42.3954 39.4874 42.5495 36.9351 42.7036"/>
</mask>
<path d="M36.935 42.7036C36.9069 42.7999 36.9462 42.9032 37.0313 42.9563C37.6372 43.3349 38.2456 43.7151 38.8886 44.1168C39.1931 44.3071 39.1961 44.77 38.8759 44.9325C31.6371 48.6058 22.8041 46.2281 18.3852 39.4228C18.2964 39.2862 18.1478 39.2012 17.9849 39.2012H16.5389C16.1304 39.2012 15.9262 39.2012 15.7963 39.2959C15.6876 39.3752 15.6097 39.5112 15.5963 39.645C15.5802 39.8049 15.6782 39.9721 15.8742 40.3065C18.2502 44.3601 22.8869 48.1231 28.8077 49.0453C34.8423 49.9851 41.9369 47.4713 45.2501 43.3603C45.5122 43.0352 45.6432 42.8726 45.6406 42.6946C45.6385 42.5506 45.5553 42.3893 45.4391 42.3041C45.2955 42.1988 45.0692 42.2125 44.6166 42.2398C42.0396 42.3954 39.4874 42.5495 36.9351 42.7036" fill="#DC2626"/>
<path d="M28.8077 49.0453L28.656 50.0197L28.656 50.0197L28.8077 49.0453ZM36.8757 41.7192C36.332 41.752 35.9179 42.2193 35.9507 42.763C35.9836 43.3067 36.4509 43.7208 36.9946 43.688L36.8757 41.7192ZM45.2501 43.3603L46.018 43.9791L45.2501 43.3603ZM45.6406 42.6946L44.6545 42.7089L45.6406 42.6946ZM44.6166 42.2398L44.5572 41.2554L44.6166 42.2398ZM45.4391 42.3041L46.0221 41.5087L45.4391 42.3041ZM38.8886 44.1168L38.366 44.9532L38.8886 44.1168ZM15.5963 39.645L14.615 39.5464L15.5963 39.645ZM37.0313 42.9563L37.5539 42.12L37.0313 42.9563ZM36.5087 43.7927C37.1146 44.1713 37.723 44.5514 38.366 44.9532L39.4112 43.2805C38.7682 42.8788 38.1597 42.4985 37.5539 42.12L36.5087 43.7927ZM38.4296 44.0531C31.6406 47.4981 23.3568 45.2684 19.2123 38.8857L17.558 39.9599C22.2515 47.1879 31.6337 49.7135 39.3221 45.812L38.4296 44.0531ZM17.9849 38.215H16.5389V40.1874H17.9849V38.215ZM15.0234 40.8052C17.5334 45.0876 22.4131 49.0475 28.656 50.0197L28.9595 48.0708C23.3606 47.1988 18.9669 43.6327 16.725 39.8078L15.0234 40.8052ZM28.656 50.0197C31.8544 50.5178 35.3006 50.0987 38.3738 49.0281C41.4408 47.9598 44.2168 46.214 46.018 43.9791L44.4823 42.7414C42.9703 44.6175 40.5424 46.1841 37.725 47.1655C34.914 48.1447 31.7957 48.5125 28.9595 48.0708L28.656 50.0197ZM44.5572 41.2554C41.9801 41.411 39.4279 41.5651 36.8757 41.7192L36.9946 43.688C39.5468 43.5339 42.099 43.3798 44.676 43.2242L44.5572 41.2554ZM46.018 43.9791C46.1339 43.8353 46.2761 43.6614 46.3791 43.4977C46.4926 43.3174 46.6319 43.0402 46.6267 42.6804L44.6545 42.7089C44.6533 42.6241 44.6692 42.5516 44.6876 42.4996C44.7037 42.4539 44.7184 42.4335 44.71 42.4468C44.7015 42.4604 44.682 42.4888 44.6407 42.5424C44.5996 42.5957 44.5498 42.6576 44.4823 42.7414L46.018 43.9791ZM44.676 43.2242C44.7921 43.2172 44.8802 43.2119 44.9552 43.209C45.0307 43.2059 45.0729 43.2062 45.0962 43.2073C45.12 43.2084 45.0999 43.2096 45.0565 43.1979C45.0067 43.1844 44.9329 43.1558 44.856 43.0995L46.0221 41.5087C45.7203 41.2875 45.3972 41.2471 45.1912 41.2372C44.9939 41.2277 44.7607 41.2431 44.5572 41.2554L44.676 43.2242ZM46.6267 42.6804C46.6201 42.2271 46.3877 41.7767 46.0221 41.5087L44.856 43.0995C44.772 43.0378 44.7288 42.9732 44.7062 42.9295C44.6836 42.8858 44.656 42.8131 44.6545 42.7089L46.6267 42.6804ZM19.2122 38.8856C18.9516 38.4844 18.4997 38.215 17.9849 38.215V40.1874C17.7959 40.1874 17.6413 40.088 17.5581 39.96L19.2122 38.8856ZM38.366 44.9532C38.203 44.8513 38.1292 44.6805 38.1303 44.5276C38.1316 44.3668 38.2201 44.1594 38.4295 44.0531L39.3222 45.8119C40.4136 45.258 40.2824 43.8248 39.4112 43.2805L38.366 44.9532ZM16.5389 38.215C16.3554 38.215 16.1439 38.2138 15.9649 38.2317C15.7785 38.2504 15.4885 38.2997 15.2151 38.4992L16.3775 40.0926C16.3067 40.1443 16.2404 40.1714 16.1967 40.1846C16.1583 40.1963 16.1403 40.1964 16.1613 40.1943C16.1819 40.1922 16.2196 40.1899 16.2874 40.1887C16.3548 40.1874 16.4341 40.1874 16.5389 40.1874V38.215ZM16.725 39.8078C16.6746 39.7217 16.6371 39.6577 16.6064 39.6028C16.5755 39.5477 16.5607 39.518 16.5538 39.5029C16.5471 39.488 16.5569 39.5063 16.5664 39.5475C16.5772 39.5941 16.5857 39.6624 16.5775 39.7436L14.615 39.5464C14.582 39.8752 14.6786 40.1436 14.7576 40.3177C14.8309 40.4793 14.9363 40.6565 15.0234 40.8052L16.725 39.8078ZM15.2151 38.4992C14.8799 38.7437 14.6565 39.1336 14.615 39.5464L16.5775 39.7436C16.5691 39.8281 16.5434 39.893 16.5163 39.9403C16.4892 39.9876 16.4462 40.0425 16.3775 40.0926L15.2151 38.4992ZM35.9885 42.4267C35.8363 42.9471 36.0488 43.5053 36.5087 43.7927L37.5539 42.12C37.8436 42.301 37.9775 42.6527 37.8816 42.9804L35.9885 42.4267Z" fill="#DC2626" mask="url(#path-5-outside-1_110_230)"/>
<path d="M43.2306 22.8204L43.2306 22.8204C43.1164 22.7252 43.0584 22.636 43.0116 22.5642L43.0057 22.5551C42.9917 22.5336 42.9751 22.5078 42.9611 22.4862L43.2306 22.8204ZM43.2306 22.8204C43.3219 22.8966 43.4591 22.9709 43.5727 23.0058C43.7162 23.0498 43.8421 23.0495 43.9393 23.0493C43.9464 23.0493 43.9533 23.0492 43.9601 23.0492H45.2814L45.3025 23.0492C45.4873 23.0493 45.6608 23.0493 45.8033 23.0351C45.9548 23.02 46.1406 22.9839 46.3092 22.8617C46.5306 22.7013 46.6817 22.441 46.7111 22.1692C46.7331 21.966 46.6765 21.7912 46.6153 21.6524C46.5591 21.525 46.4762 21.38 46.3896 21.2284L46.379 21.2101C43.6985 16.519 38.2935 12.3739 31.4587 11.8864C27.4003 11.597 23.6156 12.5133 20.1397 14.6248C18.4438 15.6549 16.9468 16.91 15.6495 18.4568L15.6344 18.4747C15.4912 18.6454 15.36 18.8019 15.2674 18.939C15.1715 19.0809 15.0657 19.2736 15.0659 19.5124C15.0663 19.8181 15.2193 20.1216 15.4649 20.3037C15.6599 20.4482 15.8843 20.4756 16.0563 20.4822C16.2262 20.4888 16.4377 20.4758 16.6718 20.4615L16.6948 20.4601L24.2047 20.0004L24.1746 19.5082M43.2306 22.8204L24.1746 19.5082M24.1746 19.5082L24.2047 20.0004C24.4627 19.9846 24.6818 19.8051 24.7477 19.5547M24.1746 19.5082L24.7477 19.5547M24.7477 19.5547C24.8144 19.301 24.7084 19.0331 24.4856 18.8939L24.2243 19.3121L24.4856 18.8939L22.5295 17.6717C22.4224 17.6048 22.3586 17.5647 22.3138 17.5333C22.3096 17.5304 22.3059 17.5278 22.3026 17.5254C22.3043 17.5243 22.3061 17.5231 22.308 17.5219L24.7477 19.5547ZM22.5032 17.4091C29.61 13.4243 38.508 15.6271 42.9469 22.4643L22.5032 17.4091Z" fill="#FEF2F2" stroke="#FEF2F2" stroke-width="0.986193" stroke-linecap="round" stroke-linejoin="round"/>
</svg>
