<svg width="250" height="62" viewBox="0 0 250 62" fill="none" xmlns="http://www.w3.org/2000/svg">
<path d="M104.262 51.5365L101.81 42.5711H102.914L104.787 49.873H104.875L106.783 42.5711H108.009L109.918 49.873H110.005L111.879 42.5711H112.982L110.531 51.5365H109.41L107.431 44.3922H107.361L105.383 51.5365H104.262ZM119.882 51.5365V42.5711H120.968V46.5635H125.748V42.5711H126.834V51.5365H125.748V47.5266H120.968V51.5365H119.882ZM142.119 47.0538C142.119 47.9994 141.948 48.8165 141.607 49.5053C141.266 50.194 140.797 50.7252 140.202 51.0987C139.606 51.4723 138.926 51.6591 138.162 51.6591C137.397 51.6591 136.717 51.4723 136.122 51.0987C135.526 50.7252 135.058 50.194 134.717 49.5053C134.375 48.8165 134.204 47.9994 134.204 47.0538C134.204 46.1082 134.375 45.2911 134.717 44.6023C135.058 43.9136 135.526 43.3824 136.122 43.0089C136.717 42.6353 137.397 42.4485 138.162 42.4485C138.926 42.4485 139.606 42.6353 140.202 43.0089C140.797 43.3824 141.266 43.9136 141.607 44.6023C141.948 45.2911 142.119 46.1082 142.119 47.0538ZM141.069 47.0538C141.069 46.2775 140.939 45.6223 140.679 45.0882C140.422 44.5542 140.073 44.15 139.633 43.8756C139.195 43.6013 138.705 43.4641 138.162 43.4641C137.619 43.4641 137.127 43.6013 136.687 43.8756C136.249 44.15 135.9 44.5542 135.64 45.0882C135.383 45.6223 135.255 46.2775 135.255 47.0538C135.255 47.8301 135.383 48.4853 135.64 49.0194C135.9 49.5534 136.249 49.9576 136.687 50.232C137.127 50.5063 137.619 50.6435 138.162 50.6435C138.705 50.6435 139.195 50.5063 139.633 50.232C140.073 49.9576 140.422 49.5534 140.679 49.0194C140.939 48.4853 141.069 47.8301 141.069 47.0538ZM149.492 51.5365V42.5711H150.578V50.5734H154.745V51.5365H149.492ZM161.974 51.5365V42.5711H167.384V43.5342H163.059V46.5635H167.104V47.5266H163.059V50.5734H167.454V51.5365H161.974ZM179.791 44.8125C179.739 44.3689 179.526 44.0245 179.152 43.7793C178.779 43.5342 178.32 43.4116 177.778 43.4116C177.381 43.4116 177.033 43.4758 176.736 43.6042C176.441 43.7326 176.21 43.9092 176.044 44.1339C175.881 44.3586 175.799 44.614 175.799 44.9C175.799 45.1393 175.856 45.3451 175.97 45.5173C176.086 45.6865 176.235 45.8281 176.416 45.9419C176.597 46.0528 176.787 46.1447 176.985 46.2177C177.184 46.2877 177.366 46.3446 177.532 46.3884L178.443 46.6335C178.677 46.6948 178.936 46.7795 179.222 46.8875C179.511 46.9954 179.787 47.1428 180.05 47.3296C180.315 47.5135 180.534 47.7498 180.706 48.0388C180.878 48.3277 180.965 48.6823 180.965 49.1025C180.965 49.587 180.838 50.0248 180.584 50.4158C180.333 50.8069 179.965 51.1177 179.481 51.3483C178.999 51.5788 178.414 51.6941 177.725 51.6941C177.083 51.6941 176.527 51.5905 176.057 51.3833C175.59 51.1761 175.223 50.8872 174.954 50.5165C174.688 50.1459 174.538 49.7154 174.503 49.2251H175.624C175.653 49.5636 175.767 49.8438 175.965 50.0656C176.167 50.2845 176.421 50.4479 176.727 50.5559C177.036 50.661 177.369 50.7135 177.725 50.7135C178.14 50.7135 178.512 50.6464 178.841 50.5121C179.171 50.375 179.432 50.1853 179.625 49.943C179.818 49.6979 179.914 49.4119 179.914 49.085C179.914 48.7873 179.831 48.5451 179.664 48.3583C179.498 48.1716 179.279 48.0198 179.008 47.9031C178.736 47.7863 178.443 47.6842 178.128 47.5966L177.025 47.2814C176.324 47.0801 175.77 46.7926 175.361 46.419C174.953 46.0455 174.748 45.5567 174.748 44.9525C174.748 44.4506 174.884 44.0128 175.155 43.6392C175.43 43.2628 175.797 42.9709 176.259 42.7637C176.723 42.5536 177.241 42.4485 177.813 42.4485C178.391 42.4485 178.904 42.5521 179.354 42.7593C179.803 42.9636 180.159 43.2438 180.422 43.5998C180.687 43.9559 180.827 44.3601 180.842 44.8125H179.791ZM188.665 51.5365H187.526L190.818 42.5711H191.939L195.231 51.5365H194.093L191.414 43.9895H191.344L188.665 51.5365ZM189.085 48.0344H193.673V48.9975H189.085V48.0344ZM202.175 51.5365V42.5711H203.26V50.5734H207.428V51.5365H202.175ZM214.656 51.5365V42.5711H220.067V43.5342H215.742V46.5635H219.787V47.5266H215.742V50.5734H220.137V51.5365H214.656Z" fill="#1E293B"/>
<path d="M98.5846 7.48556H104.082V24.3701C104.082 26.2659 103.629 27.9247 102.723 29.3466C101.826 30.7684 100.569 31.8771 98.9527 32.6727C97.3362 33.4598 95.4531 33.8534 93.3034 33.8534C91.1452 33.8534 89.2579 33.4598 87.6413 32.6727C86.0248 31.8771 84.768 30.7684 83.8709 29.3466C82.9738 27.9247 82.5252 26.2659 82.5252 24.3701V7.48556H88.0222V23.9004C88.0222 24.8906 88.238 25.7708 88.6697 26.541C89.1098 27.3111 89.7276 27.9163 90.5231 28.3564C91.3187 28.7965 92.2454 29.0165 93.3034 29.0165C94.3698 29.0165 95.2965 28.7965 96.0836 28.3564C96.8792 27.9163 97.4928 27.3111 97.9244 26.541C98.3645 25.7708 98.5846 24.8906 98.5846 23.9004V7.48556ZM117.542 33.4852V7.48556H127.799C129.763 7.48556 131.439 7.83679 132.827 8.53926C134.223 9.23326 135.285 10.2192 136.013 11.4972C136.749 12.7667 137.117 14.2605 137.117 15.9786C137.117 17.7051 136.745 19.1905 136 20.4346C135.256 21.6703 134.176 22.6182 132.763 23.2783C131.358 23.9385 129.657 24.2685 127.66 24.2685H120.792V19.8506H126.771C127.82 19.8506 128.692 19.7067 129.386 19.419C130.08 19.1312 130.596 18.6996 130.935 18.1241C131.282 17.5486 131.455 16.8334 131.455 15.9786C131.455 15.1153 131.282 14.3875 130.935 13.795C130.596 13.2026 130.076 12.754 129.373 12.4494C128.679 12.1362 127.803 11.9796 126.746 11.9796H123.039V33.4852H117.542ZM131.582 21.6533L138.044 33.4852H131.976L125.654 21.6533H131.582ZM149.94 33.4852V7.48556H160.35C162.262 7.48556 163.858 7.76908 165.136 8.33613C166.414 8.90318 167.374 9.69028 168.017 10.6974C168.661 11.6961 168.982 12.8471 168.982 14.1505C168.982 15.1661 168.779 16.059 168.373 16.8292C167.967 17.5909 167.408 18.2172 166.697 18.7081C165.995 19.1905 165.191 19.5332 164.285 19.7364V19.9903C165.275 20.0326 166.202 20.3119 167.065 20.8281C167.937 21.3444 168.644 22.068 169.185 22.999C169.727 23.9215 169.998 25.0218 169.998 26.2998C169.998 27.6793 169.655 28.9107 168.97 29.994C168.292 31.0689 167.29 31.9195 165.961 32.5458C164.632 33.1721 162.994 33.4852 161.048 33.4852H149.94ZM155.437 28.9911H159.918C161.45 28.9911 162.567 28.6991 163.269 28.1152C163.972 27.5227 164.323 26.7356 164.323 25.7539C164.323 25.0345 164.15 24.3997 163.803 23.8496C163.456 23.2995 162.961 22.8678 162.317 22.5547C161.683 22.2415 160.925 22.085 160.045 22.085H155.437V28.9911ZM155.437 18.3653H159.512C160.265 18.3653 160.934 18.2341 161.518 17.9717C162.11 17.7009 162.575 17.3201 162.914 16.8292C163.261 16.3383 163.434 15.7501 163.434 15.0646C163.434 14.1251 163.1 13.3676 162.432 12.7921C161.771 12.2166 160.832 11.9289 159.613 11.9289H155.437V18.3653ZM186.993 33.4852H181.103L190.078 7.48556H197.162L206.125 33.4852H200.235L193.722 13.4269H193.519L186.993 33.4852ZM186.625 23.2656H200.539V27.5566H186.625V23.2656ZM239.939 7.48556V33.4852H235.191L223.879 17.1212H223.689V33.4852H218.192V7.48556H223.016L234.238 23.8369H234.467V7.48556H239.939Z" fill="#1E293B"/>
<circle cx="30.82" cy="31.1415" r="30.82" fill="#FEF2F2"/>
<path fill-rule="evenodd" clip-rule="evenodd" d="M0 31.14C0 48.1611 13.7975 61.9586 30.8185 61.9586C47.8396 61.9586 61.6371 48.1611 61.6371 31.14C61.6371 14.119 47.8396 0.321503 30.8185 0.321503C13.7975 0.321503 0 14.119 0 31.14ZM30.8185 55.7949C19.6252 55.7949 10.2919 47.8391 8.16075 37.2729C7.65841 34.7735 9.7741 32.681 12.3274 32.681H49.3097C51.863 32.681 53.9802 34.772 53.4763 37.2729C51.3437 47.8406 42.0118 55.7949 30.8185 55.7949Z" fill="#DC2626"/>
<mask id="path-5-outside-1_168_112" maskUnits="userSpaceOnUse" x="14.5593" y="11.6489" width="32" height="39" fill="black">
<rect fill="white" x="14.5593" y="11.6489" width="32" height="39"/>
<path d="M37.2247 43.0076C37.0508 43.0181 36.8834 43.1856 37.0311 43.2779V43.2779C37.637 43.6564 38.2454 44.0366 38.8884 44.4384C39.1929 44.6286 39.1959 45.0915 38.8757 45.254C31.637 48.9273 22.804 46.5497 18.385 39.7444C18.2962 39.6077 18.1476 39.5227 17.9847 39.5227H16.5388C16.1302 39.5227 15.926 39.5227 15.7961 39.6174C15.6875 39.6967 15.6096 39.8327 15.5961 39.9665C15.5801 40.1265 15.6781 40.2936 15.874 40.628C18.25 44.6817 22.8867 48.4447 28.8076 49.3668C34.8421 50.3066 41.9367 47.7928 45.25 43.6818C45.512 43.3567 45.643 43.1941 45.6404 43.0162C45.6383 42.8721 45.5551 42.7108 45.4389 42.6256C45.2953 42.5204 45.069 42.534 44.6165 42.5614C42.1369 42.711 39.6804 42.8594 37.2247 43.0076Z"/>
<path d="M43.4191 22.6073C43.4663 22.6797 43.4898 22.7159 43.5467 22.7633C43.5877 22.7975 43.6667 22.8403 43.7178 22.856C43.7885 22.8777 43.8458 22.8777 43.9604 22.8777H45.2817C45.6878 22.8777 45.8908 22.8777 46.0202 22.7839C46.1287 22.7053 46.2067 22.5709 46.2211 22.4377C46.2384 22.2787 46.1426 22.1112 45.9512 21.7762C43.3433 17.2123 38.0774 13.1743 31.4239 12.6998C27.4675 12.4176 23.7846 13.3093 20.396 15.3678C18.7432 16.3717 17.2881 17.5922 16.0276 19.0952C15.7153 19.4675 15.5591 19.6537 15.5593 19.8334C15.5595 19.9831 15.6385 20.1399 15.7588 20.2291C15.9032 20.3361 16.1571 20.3205 16.665 20.2894C19.2132 20.1335 21.6944 19.9816 24.1749 19.8297C24.2206 19.8269 24.2594 19.7951 24.2711 19.7508C24.2829 19.7058 24.2641 19.6583 24.2246 19.6336C23.5833 19.2329 22.9409 18.8315 22.2685 18.4114C22.0636 18.2833 21.9611 18.2193 21.9076 18.151C21.7671 17.9714 21.7736 17.6978 21.9225 17.5251C21.9791 17.4594 22.0735 17.4065 22.2624 17.3006C29.5963 13.1883 38.7806 15.4625 43.3608 22.5173C43.3796 22.5463 43.399 22.5766 43.4191 22.6073Z"/>
</mask>
<path d="M37.2247 43.0076C37.0508 43.0181 36.8834 43.1856 37.0311 43.2779V43.2779C37.637 43.6564 38.2454 44.0366 38.8884 44.4384C39.1929 44.6286 39.1959 45.0915 38.8757 45.254C31.637 48.9273 22.804 46.5497 18.385 39.7444C18.2962 39.6077 18.1476 39.5227 17.9847 39.5227H16.5388C16.1302 39.5227 15.926 39.5227 15.7961 39.6174C15.6875 39.6967 15.6096 39.8327 15.5961 39.9665C15.5801 40.1265 15.6781 40.2936 15.874 40.628C18.25 44.6817 22.8867 48.4447 28.8076 49.3668C34.8421 50.3066 41.9367 47.7928 45.25 43.6818C45.512 43.3567 45.643 43.1941 45.6404 43.0162C45.6383 42.8721 45.5551 42.7108 45.4389 42.6256C45.2953 42.5204 45.069 42.534 44.6165 42.5614C42.1369 42.711 39.6804 42.8594 37.2247 43.0076Z" fill="#DC2626"/>
<path d="M43.4191 22.6073C43.4663 22.6797 43.4898 22.7159 43.5467 22.7633C43.5877 22.7975 43.6667 22.8403 43.7178 22.856C43.7885 22.8777 43.8458 22.8777 43.9604 22.8777H45.2817C45.6878 22.8777 45.8908 22.8777 46.0202 22.7839C46.1287 22.7053 46.2067 22.5709 46.2211 22.4377C46.2384 22.2787 46.1426 22.1112 45.9512 21.7762C43.3433 17.2123 38.0774 13.1743 31.4239 12.6998C27.4675 12.4176 23.7846 13.3093 20.396 15.3678C18.7432 16.3717 17.2881 17.5922 16.0276 19.0952C15.7153 19.4675 15.5591 19.6537 15.5593 19.8334C15.5595 19.9831 15.6385 20.1399 15.7588 20.2291C15.9032 20.3361 16.1571 20.3205 16.665 20.2894C19.2132 20.1335 21.6944 19.9816 24.1749 19.8297C24.2206 19.8269 24.2594 19.7951 24.2711 19.7508C24.2829 19.7058 24.2641 19.6583 24.2246 19.6336C23.5833 19.2329 22.9409 18.8315 22.2685 18.4114C22.0636 18.2833 21.9611 18.2193 21.9076 18.151C21.7671 17.9714 21.7736 17.6978 21.9225 17.5251C21.9791 17.4594 22.0735 17.4065 22.2624 17.3006C29.5963 13.1883 38.7806 15.4625 43.3608 22.5173C43.3796 22.5463 43.399 22.5766 43.4191 22.6073Z" fill="#FEF2F2"/>
<path d="M38.8757 45.254L38.9888 45.477L38.9888 45.477L38.8757 45.254ZM18.385 39.7444L18.5947 39.6082L18.5946 39.6082L18.385 39.7444ZM28.8076 49.3668L28.7691 49.6138L28.7691 49.6138L28.8076 49.3668ZM45.25 43.6818L45.0553 43.5249L45.0553 43.5249L45.25 43.6818ZM45.6404 43.0162L45.8904 43.0125L45.6404 43.0162ZM44.6165 42.5614L44.6315 42.8109L44.6165 42.5614ZM45.4389 42.6256L45.2911 42.8272L45.4389 42.6256ZM38.8884 44.4384L39.0209 44.2263L38.8884 44.4384ZM15.7961 39.6174L15.9435 39.8194L15.7961 39.6174ZM15.874 40.628L15.6584 40.7544L15.874 40.628ZM15.5961 39.9665L15.3474 39.9415L15.5961 39.9665ZM31.4239 12.6998L31.4061 12.9492L31.4061 12.9492L31.4239 12.6998ZM20.396 15.3678L20.5258 15.5814L20.5258 15.5814L20.396 15.3678ZM22.2624 17.3006L22.1401 17.0825L22.1401 17.0825L22.2624 17.3006ZM43.3608 22.5173L43.5705 22.3812L43.5705 22.3812L43.3608 22.5173ZM22.2685 18.4114L22.4009 18.1993L22.4009 18.1993L22.2685 18.4114ZM21.9076 18.151L21.7108 18.3051L21.7108 18.3051L21.9076 18.151ZM21.9225 17.5251L22.1118 17.6883L21.9225 17.5251ZM16.0276 19.0952L16.2191 19.2559L16.2191 19.2559L16.0276 19.0952ZM15.5593 19.8334L15.8093 19.8332L15.5593 19.8334ZM16.665 20.2894L16.6803 20.539L16.665 20.2894ZM15.7588 20.2291L15.9077 20.0282L15.7588 20.2291ZM24.2711 19.7508L24.0293 19.6872L24.0293 19.6872L24.2711 19.7508ZM24.2246 19.6336L24.0921 19.8457L24.2246 19.6336ZM46.0202 22.7839L46.1669 22.9863L46.0202 22.7839ZM45.9512 21.7762L45.7341 21.9003L45.7341 21.9003L45.9512 21.7762ZM46.2211 22.4377L45.9726 22.4107L46.2211 22.4377ZM24.1749 19.8297L24.1596 19.5802L24.1749 19.8297ZM43.7178 22.856L43.6444 23.0949L43.7178 22.856ZM43.4191 22.6073L43.2096 22.7438L43.2096 22.7438L43.4191 22.6073ZM43.5467 22.7633L43.3866 22.9553L43.5467 22.7633ZM37.2247 43.0076L37.2097 42.7581L37.2247 43.0076ZM36.8987 43.4899C37.5046 43.8685 38.113 44.2486 38.7559 44.6504L39.0209 44.2263C38.3779 43.8246 37.7695 43.4444 37.1636 43.0658L36.8987 43.4899ZM38.7626 45.0311C31.6378 48.6465 22.9441 46.3064 18.5947 39.6082L18.1753 39.8805C22.6639 46.793 31.6361 49.2081 38.9888 45.477L38.7626 45.0311ZM17.9847 39.2727H16.5388V39.7727H17.9847V39.2727ZM15.6584 40.7544C18.0683 44.8661 22.7666 48.679 28.7691 49.6138L28.846 49.1198C23.0068 48.2104 18.4317 44.4973 16.0897 40.5016L15.6584 40.7544ZM28.7691 49.6138C31.8323 50.0909 35.1561 49.6909 38.1315 48.6544C41.1053 47.6186 43.7514 45.9396 45.4446 43.8387L45.0553 43.5249C43.4354 45.5349 40.8775 47.1684 37.967 48.1823C35.0581 49.1955 31.8174 49.5825 28.846 49.1198L28.7691 49.6138ZM44.6014 42.3118C42.1219 42.4615 39.6653 42.6098 37.2097 42.7581L37.2398 43.2572C39.6954 43.1089 42.152 42.9606 44.6315 42.8109L44.6014 42.3118ZM45.4446 43.8387C45.5718 43.6809 45.6812 43.5458 45.756 43.427C45.8334 43.304 45.8927 43.1702 45.8904 43.0125L45.3904 43.0198C45.3907 43.0401 45.3858 43.0765 45.3329 43.1606C45.2773 43.2489 45.1902 43.3576 45.0553 43.5249L45.4446 43.8387ZM44.6315 42.8109C44.8636 42.7969 45.0172 42.788 45.1315 42.7935C45.2436 42.7989 45.2776 42.8174 45.2911 42.8272L45.5867 42.424C45.4566 42.3286 45.3057 42.3013 45.1556 42.2941C45.0077 42.2869 44.8219 42.2985 44.6014 42.3118L44.6315 42.8109ZM45.8904 43.0125C45.8872 42.7901 45.7661 42.5555 45.5867 42.424L45.2911 42.8272C45.3441 42.8661 45.3895 42.9541 45.3904 43.0198L45.8904 43.0125ZM18.5946 39.6082C18.4623 39.4045 18.2368 39.2727 17.9847 39.2727V39.7727C18.0584 39.7727 18.1302 39.811 18.1753 39.8805L18.5946 39.6082ZM38.7559 44.6504C38.8283 44.6956 38.867 44.7742 38.8663 44.8547C38.8657 44.9333 38.829 44.9974 38.7625 45.0311L38.9888 45.477C39.5046 45.2152 39.4691 44.5064 39.0209 44.2263L38.7559 44.6504ZM16.5388 39.2727C16.3398 39.2727 16.1718 39.2724 16.0381 39.2858C15.9024 39.2994 15.7666 39.3295 15.6488 39.4155L15.9435 39.8194C15.9555 39.8106 15.9867 39.7934 16.0878 39.7833C16.1908 39.773 16.3292 39.7727 16.5388 39.7727V39.2727ZM16.0897 40.5016C15.989 40.3297 15.9236 40.2175 15.8832 40.1286C15.8444 40.0429 15.8432 40.0084 15.8449 39.9915L15.3474 39.9415C15.333 40.0846 15.3728 40.2137 15.4279 40.3351C15.4815 40.4534 15.5631 40.592 15.6584 40.7544L16.0897 40.5016ZM15.6488 39.4155C15.4827 39.5366 15.3679 39.737 15.3474 39.9415L15.8449 39.9915C15.8512 39.9284 15.8922 39.8568 15.9435 39.8194L15.6488 39.4155ZM43.9604 23.1277H45.2817V22.6277H43.9604V23.1277ZM46.1683 21.6522C43.5236 17.0238 38.1871 12.9315 31.4417 12.4505L31.4061 12.9492C37.9677 13.4171 43.1631 17.4008 45.7341 21.9003L46.1683 21.6522ZM31.4417 12.4505C27.4336 12.1646 23.699 13.0688 20.2662 15.1541L20.5258 15.5814C23.8701 13.5499 27.5015 12.6707 31.4061 12.9492L31.4417 12.4505ZM20.2662 15.1541C18.5916 16.1713 17.1152 17.4094 15.836 18.9345L16.2191 19.2559C17.461 17.7751 18.8949 16.5721 20.5258 15.5814L20.2662 15.1541ZM16.6803 20.539C19.2285 20.383 21.7097 20.2311 24.1902 20.0793L24.1596 19.5802C21.6791 19.7321 19.1979 19.8839 16.6497 20.0399L16.6803 20.539ZM24.3571 19.4216C23.7158 19.0209 23.0734 18.6195 22.4009 18.1993L22.136 18.6234C22.8085 19.0436 23.4508 19.4449 24.0921 19.8457L24.3571 19.4216ZM22.3846 17.5186C29.6034 13.471 38.6425 15.709 43.1511 22.6535L43.5705 22.3812C38.9186 15.2161 29.5892 12.9057 22.1401 17.0825L22.3846 17.5186ZM43.1511 22.6534C43.1683 22.6798 43.19 22.7137 43.2096 22.7438L43.6285 22.4708C43.608 22.4394 43.591 22.4127 43.5705 22.3812L43.1511 22.6534ZM22.4009 18.1993C22.2962 18.1339 22.2259 18.0899 22.1746 18.054C22.1227 18.0176 22.1081 18.0015 22.1045 17.9969L21.7108 18.3051C21.7607 18.3688 21.824 18.4189 21.8879 18.4636C21.9524 18.5088 22.0359 18.5608 22.136 18.6234L22.4009 18.1993ZM22.1401 17.0825C22.0482 17.134 21.97 17.1778 21.9082 17.2172C21.8456 17.2572 21.7846 17.3022 21.7331 17.3619L22.1118 17.6883C22.117 17.6823 22.1315 17.668 22.1774 17.6386C22.2243 17.6087 22.2877 17.573 22.3846 17.5186L22.1401 17.0825ZM22.1045 17.9969C22.0375 17.9113 22.0409 17.7707 22.1118 17.6883L21.7331 17.3619C21.5063 17.625 21.4966 18.0315 21.7108 18.3051L22.1045 17.9969ZM15.836 18.9345C15.6835 19.1164 15.5562 19.2677 15.4691 19.3966C15.382 19.5255 15.3092 19.6683 15.3093 19.8337L15.8093 19.8332C15.8093 19.8188 15.8144 19.7787 15.8834 19.6765C15.9525 19.5743 16.0594 19.4463 16.2191 19.2559L15.836 18.9345ZM16.6497 20.0399C16.3904 20.0558 16.2148 20.0662 16.0852 20.0612C15.9539 20.0561 15.9176 20.0356 15.9077 20.0282L15.6099 20.4299C15.7444 20.5295 15.9072 20.5547 16.0659 20.5608C16.2264 20.567 16.4318 20.5542 16.6803 20.539L16.6497 20.0399ZM15.3093 19.8337C15.3096 20.0625 15.4261 20.2937 15.6099 20.4299L15.9077 20.0282C15.8509 19.9861 15.8094 19.9038 15.8093 19.8332L15.3093 19.8337ZM24.5128 19.8144C24.5525 19.6636 24.4895 19.5044 24.3571 19.4216L24.0921 19.8457C24.0387 19.8122 24.0133 19.748 24.0293 19.6872L24.5128 19.8144ZM45.2817 23.1277C45.4795 23.1277 45.6465 23.128 45.7795 23.1147C45.9143 23.1013 46.0495 23.0714 46.1669 22.9863L45.8735 22.5814C45.8615 22.5902 45.8304 22.6072 45.7299 22.6172C45.6275 22.6274 45.49 22.6277 45.2817 22.6277V23.1277ZM45.7341 21.9003C45.8325 22.0725 45.8965 22.1849 45.9357 22.2739C45.9735 22.3597 45.9744 22.394 45.9726 22.4107L46.4697 22.4646C46.4851 22.3224 46.4467 22.1935 46.3932 22.0721C46.341 21.9538 46.2613 21.815 46.1683 21.6522L45.7341 21.9003ZM46.1669 22.9863C46.3326 22.8663 46.4477 22.668 46.4697 22.4646L45.9726 22.4107C45.9658 22.4737 45.9248 22.5443 45.8735 22.5814L46.1669 22.9863ZM24.1902 20.0793C24.3435 20.0699 24.4737 19.9632 24.5128 19.8144L24.0293 19.6872C24.0451 19.627 24.0978 19.584 24.1596 19.5802L24.1902 20.0793ZM43.9604 22.6277C43.8383 22.6277 43.8197 22.6258 43.7911 22.617L43.6444 23.0949C43.7573 23.1296 43.8533 23.1277 43.9604 23.1277V22.6277ZM43.2096 22.7438C43.2572 22.8167 43.2982 22.8816 43.3866 22.9553L43.7068 22.5713C43.6815 22.5502 43.6753 22.5426 43.6285 22.4708L43.2096 22.7438ZM43.7911 22.617C43.7912 22.617 43.7899 22.6166 43.7871 22.6155C43.7844 22.6145 43.7808 22.613 43.7766 22.6111C43.768 22.6073 43.758 22.6024 43.7475 22.5968C43.7371 22.5911 43.7275 22.5854 43.7196 22.5803C43.7157 22.5777 43.7126 22.5756 43.7102 22.5739C43.7078 22.5721 43.7068 22.5712 43.7068 22.5713L43.3866 22.9553C43.4531 23.0107 43.5616 23.0695 43.6444 23.0949L43.7911 22.617ZM37.2097 42.7581C37.0584 42.7672 36.9068 42.841 36.8145 42.953C36.7673 43.0102 36.716 43.1026 36.7254 43.2186C36.7358 43.3453 36.8129 43.4363 36.8987 43.4899L37.1636 43.0658C37.1755 43.0733 37.2181 43.1087 37.2238 43.1778C37.2285 43.2361 37.2023 43.2686 37.2002 43.2711C37.1963 43.2759 37.1987 43.2715 37.2107 43.2656C37.2219 43.2601 37.2327 43.2576 37.2398 43.2572L37.2097 42.7581Z" fill="#FEF2F2" mask="url(#path-5-outside-1_168_112)"/>
</svg>
