<svg width="267" height="66" viewBox="0 0 267 66" fill="none" xmlns="http://www.w3.org/2000/svg">
<path d="M111.212 54.7627L108.597 45.1996H109.774L111.773 52.9883H111.866L113.902 45.1996H115.209L117.245 52.9883H117.339L119.337 45.1996H120.514L117.899 54.7627H116.704L114.593 47.1421H114.518L112.408 54.7627H111.212ZM127.874 54.7627V45.1996H129.032V49.4581H134.131V45.1996H135.289V54.7627H134.131V50.4854H129.032V54.7627H127.874ZM151.593 49.9811C151.593 50.9897 151.411 51.8614 151.047 52.596C150.683 53.3307 150.183 53.8973 149.548 54.2957C148.913 54.6942 148.188 54.8934 147.372 54.8934C146.557 54.8934 145.831 54.6942 145.196 54.2957C144.561 53.8973 144.062 53.3307 143.697 52.596C143.333 51.8614 143.151 50.9897 143.151 49.9811C143.151 48.9725 143.333 48.1009 143.697 47.3662C144.062 46.6315 144.561 46.065 145.196 45.6665C145.831 45.2681 146.557 45.0688 147.372 45.0688C148.188 45.0688 148.913 45.2681 149.548 45.6665C150.183 46.065 150.683 46.6315 151.047 47.3662C151.411 48.1009 151.593 48.9725 151.593 49.9811ZM150.473 49.9811C150.473 49.1531 150.334 48.4542 150.057 47.8845C149.783 47.3148 149.411 46.8837 148.941 46.5911C148.474 46.2985 147.951 46.1521 147.372 46.1521C146.793 46.1521 146.269 46.2985 145.799 46.5911C145.332 46.8837 144.96 47.3148 144.683 47.8845C144.409 48.4542 144.272 49.1531 144.272 49.9811C144.272 50.8092 144.409 51.508 144.683 52.0777C144.96 52.6474 145.332 53.0785 145.799 53.3712C146.269 53.6638 146.793 53.8101 147.372 53.8101C147.951 53.8101 148.474 53.6638 148.941 53.3712C149.411 53.0785 149.783 52.6474 150.057 52.0777C150.334 51.508 150.473 50.8092 150.473 49.9811ZM159.458 54.7627V45.1996H160.616V53.7354H165.061V54.7627H159.458ZM172.771 54.7627V45.1996H178.543V46.2269H173.929V49.4581H178.244V50.4854H173.929V53.7354H178.618V54.7627H172.771ZM191.777 47.5903C191.721 47.1172 191.494 46.7498 191.095 46.4884C190.697 46.2269 190.208 46.0961 189.629 46.0961C189.206 46.0961 188.835 46.1646 188.518 46.3016C188.203 46.4385 187.957 46.6269 187.78 46.8666C187.606 47.1063 187.519 47.3787 187.519 47.6837C187.519 47.939 187.579 48.1585 187.701 48.3421C187.825 48.5227 187.984 48.6737 188.177 48.7951C188.37 48.9134 188.572 49.0114 188.784 49.0893C188.996 49.164 189.19 49.2247 189.368 49.2714L190.339 49.5329C190.588 49.5982 190.865 49.6885 191.17 49.8037C191.478 49.9189 191.772 50.0761 192.053 50.2753C192.336 50.4714 192.569 50.7236 192.753 51.0318C192.937 51.3399 193.029 51.7182 193.029 52.1664C193.029 52.6832 192.893 53.1501 192.622 53.5673C192.355 53.9844 191.962 54.316 191.446 54.5619C190.932 54.8078 190.308 54.9308 189.573 54.9308C188.888 54.9308 188.295 54.8203 187.794 54.5992C187.296 54.3782 186.904 54.07 186.617 53.6747C186.334 53.2793 186.174 52.8202 186.136 52.2972H187.332C187.363 52.6583 187.484 52.9571 187.696 53.1937C187.911 53.4272 188.182 53.6015 188.508 53.7167C188.838 53.8288 189.193 53.8848 189.573 53.8848C190.015 53.8848 190.412 53.8132 190.764 53.67C191.116 53.5237 191.394 53.3214 191.6 53.063C191.805 52.8015 191.908 52.4964 191.908 52.1478C191.908 51.8302 191.819 51.5719 191.642 51.3726C191.464 51.1734 191.231 51.0115 190.941 50.887C190.652 50.7625 190.339 50.6535 190.003 50.5601L188.826 50.2239C188.079 50.0091 187.487 49.7025 187.052 49.304C186.616 48.9056 186.398 48.3842 186.398 47.7398C186.398 47.2043 186.543 46.7374 186.832 46.3389C187.125 45.9374 187.517 45.6261 188.009 45.405C188.504 45.1809 189.056 45.0688 189.667 45.0688C190.283 45.0688 190.831 45.1793 191.31 45.4004C191.79 45.6183 192.169 45.9171 192.45 46.2969C192.733 46.6767 192.882 47.1078 192.898 47.5903H191.777ZM201.242 54.7627H200.028L203.539 45.1996H204.735L208.246 54.7627H207.032L204.174 46.7125H204.1L201.242 54.7627ZM201.69 51.0271H206.584V52.0544H201.69V51.0271ZM215.653 54.7627V45.1996H216.811V53.7354H221.256V54.7627H215.653ZM228.966 54.7627V45.1996H234.738V46.2269H230.124V49.4581H234.439V50.4854H230.124V53.7354H234.813V54.7627H228.966Z" fill="white"/>
<path d="M105.157 7.84166H111.02V25.8518C111.02 27.874 110.537 29.6434 109.571 31.1601C108.614 32.6767 107.273 33.8594 105.549 34.708C103.825 35.5475 101.816 35.9673 99.5232 35.9673C97.2212 35.9673 95.208 35.5475 93.4837 34.708C91.7595 33.8594 90.4189 32.6767 89.4619 31.1601C88.505 29.6434 88.0265 27.874 88.0265 25.8518V7.84166H93.89V25.3508C93.89 26.407 94.1202 27.3459 94.5806 28.1674C95.05 28.9889 95.7091 29.6344 96.5577 30.1039C97.4063 30.5733 98.3948 30.808 99.5232 30.808C100.661 30.808 101.649 30.5733 102.489 30.1039C103.337 29.6344 103.992 28.9889 104.452 28.1674C104.922 27.3459 105.157 26.407 105.157 25.3508V7.84166ZM125.377 35.5746V7.84166H136.319C138.413 7.84166 140.201 8.21631 141.681 8.9656C143.171 9.70587 144.304 10.7576 145.08 12.1208C145.866 13.4749 146.258 15.0683 146.258 16.9009C146.258 18.7426 145.861 20.3269 145.067 21.654C144.272 22.972 143.121 23.9831 141.614 24.6873C140.115 25.3914 138.3 25.7435 136.17 25.7435H128.844V21.0311H135.222C136.341 21.0311 137.271 20.8776 138.012 20.5707C138.752 20.2637 139.302 19.8033 139.664 19.1894C140.034 18.5755 140.219 17.8127 140.219 16.9009C140.219 15.9801 140.034 15.2037 139.664 14.5718C139.302 13.9398 138.747 13.4614 137.998 13.1364C137.258 12.8024 136.323 12.6353 135.195 12.6353H131.241V35.5746H125.377ZM140.354 22.954L147.247 35.5746H140.774L134.03 22.954H140.354ZM159.935 35.5746V7.84166H171.039C173.079 7.84166 174.781 8.14409 176.144 8.74894C177.508 9.35379 178.532 10.1934 179.218 11.2677C179.904 12.3329 180.247 13.5607 180.247 14.9509C180.247 16.0343 180.031 16.9867 179.597 17.8082C179.164 18.6207 178.568 19.2887 177.81 19.8123C177.061 20.3269 176.203 20.6925 175.237 20.9092V21.18C176.293 21.2252 177.282 21.5231 178.203 22.0738C179.132 22.6244 179.886 23.3963 180.464 24.3894C181.042 25.3734 181.331 26.547 181.331 27.9101C181.331 29.3816 180.965 30.6952 180.234 31.8507C179.512 32.9972 178.442 33.9045 177.025 34.5725C175.607 35.2406 173.86 35.5746 171.784 35.5746H159.935ZM165.799 30.7809H170.579C172.213 30.7809 173.404 30.4695 174.154 29.8466C174.903 29.2146 175.278 28.3751 175.278 27.3279C175.278 26.5605 175.093 25.8834 174.722 25.2966C174.352 24.7098 173.824 24.2494 173.138 23.9154C172.461 23.5814 171.653 23.4144 170.714 23.4144H165.799V30.7809ZM165.799 19.4467H170.145C170.949 19.4467 171.662 19.3068 172.285 19.0269C172.917 18.738 173.413 18.3318 173.775 17.8082C174.145 17.2846 174.33 16.6572 174.33 15.9259C174.33 14.9239 173.973 14.1159 173.26 13.502C172.556 12.8881 171.554 12.5812 170.254 12.5812H165.799V19.4467ZM199.459 35.5746H193.176L202.75 7.84166H210.306L219.866 35.5746H213.583L206.636 14.1791H206.42L199.459 35.5746ZM199.067 24.6737H213.908V29.2507H199.067V24.6737ZM255.934 7.84166V35.5746H250.87L238.804 18.1196H238.601V35.5746H232.738V7.84166H237.883L249.854 25.2831H250.098V7.84166H255.934Z" fill="white"/>
<circle cx="32.8747" cy="32.8747" r="32.8747" fill="#FEF2F2"/>
<path fill-rule="evenodd" clip-rule="evenodd" d="M0 32.8731C0 51.0289 14.7173 65.7462 32.8731 65.7462C51.0289 65.7462 65.7462 51.0289 65.7462 32.8731C65.7462 14.7173 51.0289 0 32.8731 0C14.7173 0 0 14.7173 0 32.8731ZM32.8731 59.1716C20.9336 59.1716 10.978 50.6854 8.7048 39.4149C8.16897 36.7488 10.4257 34.5168 13.1492 34.5168H52.597C55.3205 34.5168 57.5789 36.7472 57.0414 39.4149C54.7666 50.687 44.8126 59.1716 32.8731 59.1716Z" fill="#DC2626"/>
<mask id="path-5-outside-1_220_139" maskUnits="userSpaceOnUse" x="15.5962" y="12.1492" width="34" height="41" fill="black">
<rect fill="white" x="15.5962" y="12.1492" width="34" height="41"/>
<path d="M39.7066 45.5318C39.5212 45.543 39.3426 45.7216 39.5001 45.8201V45.8201C40.1464 46.2239 40.7954 46.6294 41.4812 47.058C41.8061 47.2609 41.8092 47.7547 41.4677 47.928C33.7464 51.8462 24.3245 49.31 19.6109 42.051C19.5163 41.9053 19.3577 41.8146 19.184 41.8146H17.6416C17.2059 41.8146 16.988 41.8146 16.8495 41.9157C16.7336 42.0002 16.6505 42.1452 16.6361 42.288C16.619 42.4586 16.7235 42.6369 16.9326 42.9936C19.4669 47.3175 24.4127 51.3314 30.7283 52.315C37.1652 53.3174 44.7328 50.636 48.2669 46.2509C48.5464 45.9042 48.6861 45.7308 48.6834 45.541C48.6811 45.3873 48.5924 45.2152 48.4684 45.1244C48.3153 45.0121 48.0739 45.0267 47.5911 45.0558C44.9463 45.2155 42.326 45.3737 39.7066 45.5318Z"/>
<path d="M46.3132 23.7715C46.3636 23.8487 46.3887 23.8873 46.4494 23.9379C46.4931 23.9743 46.5774 24.02 46.6319 24.0367C46.7073 24.0599 46.7684 24.0599 46.8907 24.0599H48.3001C48.7332 24.0599 48.9497 24.0599 49.0878 23.9599C49.2035 23.876 49.2868 23.7326 49.3021 23.5905C49.3205 23.421 49.2184 23.2424 49.0142 22.885C46.2324 18.0168 40.6155 13.7097 33.5184 13.2035C29.2983 12.9025 25.3698 13.8537 21.7553 16.0493C19.9923 17.1202 18.4402 18.4221 17.0956 20.0253C16.7625 20.4224 16.596 20.621 16.5962 20.8127C16.5964 20.9724 16.6807 21.1396 16.809 21.2347C16.963 21.3488 17.2338 21.3323 17.7756 21.2991C20.4937 21.1328 23.1403 20.9708 25.7861 20.8088C25.8349 20.8058 25.8763 20.7718 25.8887 20.7246C25.9013 20.6766 25.8813 20.6259 25.8392 20.5996C25.1551 20.1721 24.4699 19.744 23.7526 19.2958C23.534 19.1593 23.4248 19.091 23.3677 19.0181C23.2178 18.8266 23.2247 18.5347 23.3836 18.3505C23.444 18.2804 23.5447 18.2239 23.7461 18.111C31.5689 13.7246 41.3655 16.1504 46.2511 23.6755C46.2712 23.7064 46.2919 23.7387 46.3132 23.7715Z"/>
</mask>
<path d="M39.7066 45.5318C39.5212 45.543 39.3426 45.7216 39.5001 45.8201V45.8201C40.1464 46.2239 40.7954 46.6294 41.4812 47.058C41.8061 47.2609 41.8092 47.7547 41.4677 47.928C33.7464 51.8462 24.3245 49.31 19.6109 42.051C19.5163 41.9053 19.3577 41.8146 19.184 41.8146H17.6416C17.2059 41.8146 16.988 41.8146 16.8495 41.9157C16.7336 42.0002 16.6505 42.1452 16.6361 42.288C16.619 42.4586 16.7235 42.6369 16.9326 42.9936C19.4669 47.3175 24.4127 51.3314 30.7283 52.315C37.1652 53.3174 44.7328 50.636 48.2669 46.2509C48.5464 45.9042 48.6861 45.7308 48.6834 45.541C48.6811 45.3873 48.5924 45.2152 48.4684 45.1244C48.3153 45.0121 48.0739 45.0267 47.5911 45.0558C44.9463 45.2155 42.326 45.3737 39.7066 45.5318Z" fill="#DC2626"/>
<path d="M46.3132 23.7715C46.3636 23.8487 46.3887 23.8873 46.4494 23.9379C46.4931 23.9743 46.5774 24.02 46.6319 24.0367C46.7073 24.0599 46.7684 24.0599 46.8907 24.0599H48.3001C48.7332 24.0599 48.9497 24.0599 49.0878 23.9599C49.2035 23.876 49.2868 23.7326 49.3021 23.5905C49.3205 23.421 49.2184 23.2424 49.0142 22.885C46.2324 18.0168 40.6155 13.7097 33.5184 13.2035C29.2983 12.9025 25.3698 13.8537 21.7553 16.0493C19.9923 17.1202 18.4402 18.4221 17.0956 20.0253C16.7625 20.4224 16.596 20.621 16.5962 20.8127C16.5964 20.9724 16.6807 21.1396 16.809 21.2347C16.963 21.3488 17.2338 21.3323 17.7756 21.2991C20.4937 21.1328 23.1403 20.9708 25.7861 20.8088C25.8349 20.8058 25.8763 20.7718 25.8887 20.7246C25.9013 20.6766 25.8813 20.6259 25.8392 20.5996C25.1551 20.1721 24.4699 19.744 23.7526 19.2958C23.534 19.1593 23.4248 19.091 23.3677 19.0181C23.2178 18.8266 23.2247 18.5347 23.3836 18.3505C23.444 18.2804 23.5447 18.2239 23.7461 18.111C31.5689 13.7246 41.3655 16.1504 46.2511 23.6755C46.2712 23.7064 46.2919 23.7387 46.3132 23.7715Z" fill="#FEF2F2"/>
<path d="M41.4677 47.928L41.5808 48.151L41.5808 48.151L41.4677 47.928ZM19.6109 42.051L19.8206 41.9149L19.8206 41.9148L19.6109 42.051ZM30.7283 52.315L30.6898 52.562L30.6899 52.562L30.7283 52.315ZM48.2669 46.2509L48.0723 46.0941L48.0723 46.0941L48.2669 46.2509ZM48.6834 45.541L48.9333 45.5373L48.6834 45.541ZM47.5911 45.0558L47.6062 45.3054L47.5911 45.0558ZM48.4684 45.1244L48.6162 44.9227L48.4684 45.1244ZM41.4812 47.058L41.6137 46.8459L41.4812 47.058ZM16.8495 41.9157L16.9968 42.1176L16.8495 41.9157ZM16.9326 42.9936L17.1483 42.8672L17.1483 42.8672L16.9326 42.9936ZM16.6361 42.288L16.8849 42.313L16.6361 42.288ZM33.5184 13.2035L33.5006 13.4529L33.5006 13.4529L33.5184 13.2035ZM21.7553 16.0493L21.8851 16.263L21.8851 16.263L21.7553 16.0493ZM23.7461 18.111L23.6238 17.8929L23.6238 17.8929L23.7461 18.111ZM46.2511 23.6755L46.4608 23.5394L46.4608 23.5394L46.2511 23.6755ZM23.7526 19.2958L23.6201 19.5078L23.7526 19.2958ZM23.3677 19.0181L23.1709 19.1722L23.3677 19.0181ZM23.3836 18.3505L23.5729 18.5137L23.3836 18.3505ZM17.0956 20.0253L17.2872 20.1859L17.2872 20.1859L17.0956 20.0253ZM16.5962 20.8127L16.8462 20.8124L16.5962 20.8127ZM17.7756 21.2991L17.7909 21.5486L17.7756 21.2991ZM16.809 21.2347L16.9578 21.0339L16.809 21.2347ZM25.8887 20.7246L26.1305 20.7882L26.1305 20.7882L25.8887 20.7246ZM25.8392 20.5996L25.9717 20.3876L25.8392 20.5996ZM49.0878 23.9599L49.2345 24.1623L49.0878 23.9599ZM49.0142 22.885L48.7971 23.009L49.0142 22.885ZM49.3021 23.5905L49.0536 23.5636L49.3021 23.5905ZM25.7861 20.8088L25.8014 21.0583L25.7861 20.8088ZM46.6319 24.0367L46.7052 23.7977L46.6319 24.0367ZM46.3132 23.7715L46.5227 23.635L46.3132 23.7715ZM46.4494 23.9379L46.2892 24.1299L46.4494 23.9379ZM39.7066 45.5318L39.7217 45.7814L39.7066 45.5318ZM39.3677 46.0321C40.0139 46.4359 40.6629 46.8414 41.3488 47.27L41.6137 46.8459C40.9279 46.4174 40.2789 46.0119 39.6326 45.6081L39.3677 46.0321ZM41.3545 47.7051C33.7472 51.5654 24.4646 49.0667 19.8206 41.9149L19.4012 42.1872C24.1844 49.5533 33.7455 52.127 41.5808 48.151L41.3545 47.7051ZM19.184 41.5646H17.6416V42.0646H19.184V41.5646ZM16.7169 43.12C19.2852 47.5019 24.2926 51.5657 30.6898 52.562L30.7668 52.068C24.5328 51.0971 19.6486 47.1331 17.1483 42.8672L16.7169 43.12ZM30.6899 52.562C33.9542 53.0704 37.4969 52.6441 40.6684 51.5394C43.8383 50.4352 46.6578 48.6458 48.4616 46.4078L48.0723 46.0941C46.3418 48.2411 43.6105 49.985 40.5039 51.0672C37.3989 52.1488 33.9393 52.562 30.7668 52.068L30.6899 52.562ZM47.5761 44.8063C44.9313 44.9659 42.3109 45.1241 39.6916 45.2823L39.7217 45.7814C42.3411 45.6232 44.9614 45.465 47.6062 45.3054L47.5761 44.8063ZM48.4616 46.4078C48.5975 46.2392 48.7134 46.096 48.7925 45.9703C48.8743 45.8404 48.9357 45.7009 48.9333 45.5373L48.4334 45.5446C48.4338 45.5708 48.4267 45.6129 48.3694 45.7039C48.3095 45.7991 48.2158 45.9159 48.0723 46.0941L48.4616 46.4078ZM47.6062 45.3054C47.8534 45.2905 48.0183 45.2808 48.1413 45.2868C48.2622 45.2926 48.3024 45.3126 48.3206 45.326L48.6162 44.9227C48.4813 44.8239 48.3242 44.795 48.1654 44.7874C48.0088 44.7798 47.8117 44.7921 47.5761 44.8063L47.6062 45.3054ZM48.9333 45.5373C48.93 45.3053 48.8034 45.0599 48.6162 44.9227L48.3206 45.326C48.3813 45.3705 48.4323 45.4693 48.4334 45.5446L48.9333 45.5373ZM19.8206 41.9148C19.6823 41.702 19.4469 41.5646 19.184 41.5646V42.0646C19.2685 42.0646 19.3502 42.1085 19.4013 42.1872L19.8206 41.9148ZM41.3488 47.27C41.5299 47.3832 41.5006 47.631 41.3545 47.7051L41.5808 48.151C42.1179 47.8784 42.0822 47.1387 41.6137 46.8459L41.3488 47.27ZM17.6416 41.5646C17.429 41.5646 17.2508 41.5643 17.1092 41.5785C16.9657 41.5928 16.8242 41.6246 16.7021 41.7137L16.9968 42.1176C17.0132 42.1057 17.05 42.0869 17.159 42.076C17.2698 42.0649 17.4185 42.0646 17.6416 42.0646V41.5646ZM17.1483 42.8672C17.041 42.6842 16.9707 42.5635 16.9272 42.4678C16.8852 42.3751 16.8826 42.3352 16.8849 42.313L16.3874 42.263C16.3725 42.4114 16.4136 42.5459 16.4719 42.6743C16.5286 42.7995 16.6151 42.9464 16.7169 43.12L17.1483 42.8672ZM16.7021 41.7137C16.5288 41.8401 16.4088 42.0495 16.3874 42.263L16.8849 42.313C16.8921 42.241 16.9383 42.1603 16.9968 42.1176L16.7021 41.7137ZM46.8907 24.3099H48.3001V23.8099H46.8907V24.3099ZM49.2313 22.761C46.4127 17.8283 40.7252 13.4669 33.5362 12.9541L33.5006 13.4529C40.5058 13.9525 46.0522 18.2053 48.7971 23.009L49.2313 22.761ZM33.5362 12.9541C29.2643 12.6494 25.2843 13.6131 21.6255 15.8357L21.8851 16.263C25.4553 14.0942 29.3322 13.1556 33.5006 13.4529L33.5362 12.9541ZM21.6255 15.8356C19.8407 16.9198 18.2673 18.2392 16.9041 19.8646L17.2872 20.1859C18.6131 18.605 20.144 17.3206 21.8851 16.263L21.6255 15.8356ZM17.7909 21.5486C20.509 21.3823 23.1555 21.2203 25.8014 21.0583L25.7708 20.5592C23.125 20.7212 20.4784 20.8832 17.7603 21.0496L17.7909 21.5486ZM25.9717 20.3876C25.2876 19.9601 24.6024 19.532 23.8851 19.0838L23.6201 19.5078C24.3374 19.956 25.0226 20.3841 25.7067 20.8116L25.9717 20.3876ZM23.8684 18.3291C31.576 14.0072 41.2275 16.3969 46.0414 23.8117L46.4608 23.5394C41.5036 15.9039 31.5618 13.442 23.6238 17.8929L23.8684 18.3291ZM46.0414 23.8116C46.0598 23.84 46.0828 23.8758 46.1038 23.908L46.5227 23.635C46.5009 23.6016 46.4825 23.5728 46.4608 23.5394L46.0414 23.8116ZM23.8851 19.0838C23.7735 19.0141 23.6981 18.9669 23.643 18.9283C23.5872 18.8892 23.57 18.8709 23.5646 18.864L23.1709 19.1722C23.2225 19.2382 23.2885 19.2904 23.3562 19.3379C23.4246 19.3858 23.5132 19.441 23.6201 19.5078L23.8851 19.0838ZM23.6238 17.8929C23.5257 17.948 23.4427 17.9944 23.3773 18.0362C23.3111 18.0785 23.2475 18.1254 23.1942 18.1872L23.5729 18.5137C23.58 18.5055 23.597 18.4892 23.6465 18.4575C23.697 18.4253 23.7651 18.387 23.8684 18.3291L23.6238 17.8929ZM23.5646 18.864C23.4882 18.7665 23.492 18.6076 23.5729 18.5137L23.1942 18.1872C22.9574 18.4619 22.9473 18.8867 23.1709 19.1722L23.5646 18.864ZM16.9041 19.8646C16.7411 20.0589 16.606 20.2195 16.5138 20.3561C16.4215 20.4927 16.346 20.6416 16.3462 20.813L16.8462 20.8124C16.8462 20.7921 16.8539 20.7459 16.9281 20.636C17.0023 20.5261 17.117 20.3888 17.2872 20.1859L16.9041 19.8646ZM17.7603 21.0496C17.484 21.0665 17.2957 21.0777 17.1565 21.0723C17.0155 21.0669 16.9726 21.0448 16.9578 21.0339L16.6601 21.4355C16.7994 21.5387 16.9689 21.5654 17.1372 21.5719C17.3074 21.5785 17.5254 21.5649 17.7909 21.5486L17.7603 21.0496ZM16.3462 20.813C16.3464 21.0518 16.4683 21.2934 16.6601 21.4355L16.9578 21.0339C16.8931 20.9859 16.8463 20.893 16.8462 20.8124L16.3462 20.813ZM26.1305 20.7882C26.171 20.6343 26.1067 20.472 25.9717 20.3876L25.7067 20.8116C25.6559 20.7798 25.6317 20.7188 25.6469 20.661L26.1305 20.7882ZM48.3001 24.3099C48.5114 24.3099 48.6885 24.3102 48.8294 24.2962C48.9721 24.282 49.1128 24.2505 49.2345 24.1623L48.9411 23.7574C48.9248 23.7693 48.8882 23.7878 48.7798 23.7986C48.6696 23.8096 48.5219 23.8099 48.3001 23.8099V24.3099ZM48.7971 23.009C48.9019 23.1924 48.9706 23.3133 49.0129 23.4091C49.0538 23.5018 49.056 23.5416 49.0536 23.5636L49.5507 23.6175C49.5666 23.47 49.527 23.3357 49.4704 23.2073C49.4151 23.0821 49.3307 22.935 49.2313 22.761L48.7971 23.009ZM49.2345 24.1623C49.4075 24.037 49.5277 23.8298 49.5507 23.6175L49.0536 23.5636C49.0458 23.6354 48.9996 23.7151 48.9411 23.7574L49.2345 24.1623ZM25.8014 21.0583C25.9578 21.0487 26.0906 20.9399 26.1305 20.7882L25.6469 20.661C25.662 20.6038 25.712 20.5628 25.7708 20.5592L25.8014 21.0583ZM46.8907 23.8099C46.7609 23.8099 46.7385 23.808 46.7052 23.7977L46.5585 24.2757C46.6761 24.3118 46.776 24.3099 46.8907 24.3099V23.8099ZM46.1038 23.908C46.1545 23.9858 46.1971 24.053 46.2892 24.1299L46.6095 23.7459C46.5804 23.7216 46.5727 23.7117 46.5227 23.635L46.1038 23.908ZM46.7052 23.7977C46.6825 23.7908 46.6277 23.7611 46.6095 23.7459L46.2892 24.1299C46.3585 24.1876 46.4723 24.2493 46.5585 24.2757L46.7052 23.7977ZM39.6916 45.2823C39.5346 45.2918 39.3772 45.3686 39.2819 45.4842C39.2332 45.5432 39.181 45.6376 39.1907 45.7555C39.2012 45.8841 39.2795 45.977 39.3677 46.0321L39.6326 45.6081C39.636 45.6102 39.649 45.6191 39.6623 45.6384C39.6764 45.659 39.6866 45.6854 39.689 45.7147C39.6936 45.7711 39.6682 45.8016 39.6676 45.8023C39.6652 45.8052 39.6698 45.7992 39.6843 45.7921C39.698 45.7853 39.7118 45.782 39.7217 45.7814L39.6916 45.2823Z" fill="#FEF2F2" mask="url(#path-5-outside-1_220_139)"/>
</svg>
